<?xml version="1.0" encoding="UTF-8" standalone="no"?><!DOCTYPE svg PUBLIC "-//W3C//DTD SVG 1.1//EN" "http://www.w3.org/Graphics/SVG/1.1/DTD/svg11.dtd"><svg width="100%" height="100%" viewBox="0 0 420 420" version="1.1" xmlns="http://www.w3.org/2000/svg" xmlns:xlink="http://www.w3.org/1999/xlink" xml:space="preserve" xmlns:serif="http://www.serif.com/" style="fill-rule:evenodd;clip-rule:evenodd;stroke-linejoin:round;stroke-miterlimit:2;"><path id="Logo" d="M311.006,52.355l-69.071,0l154.194,331.435c-63.599,0 -127.199,0.092 -190.798,-0.001c-45.199,-0.199 -89.505,-15.587 -124.341,-45.033c-1.021,-0.862 -2.494,-2.146 -2.494,-2.146l-20.708,44.507l-16.01,-7.434l23.308,-50.106c-41.809,-45.014 -56.756,-110.89 -36.392,-168.79c17.161,-48.795 57.476,-88.128 106.322,-106.979c22.557,-8.705 46.495,-13.062 70.905,-13.098l105.085,0l0,17.645Zm-94.496,0c-3.504,0.043 -6.786,2.243 -8.305,5.453l-121.912,262.048c31.878,29.841 75.648,46.219 119.632,46.283l162.524,0c-47.844,-102.833 -94.274,-206.336 -143.533,-308.498c-1.571,-3.191 -4.88,-5.286 -8.406,-5.286Zm-25.58,0.607c-47.302,3.957 -93.086,27.366 -122.094,64.76c-26.071,33.607 -37.418,78.443 -28.876,120.606c5.049,24.922 16.788,48.319 33.148,67.697l0.097,0.114l117.783,-253.181c-0.019,0.001 -0.039,0.003 -0.058,0.004Z" style="fill-rule:nonzero;"/></svg>