<?xml version="1.0" encoding="utf-8"?>
<!-- Generator: Adobe Illustrator 15.1.0, SVG Export Plug-In . SVG Version: 6.00 Build 0)  -->
<!DOCTYPE svg PUBLIC "-//W3C//DTD SVG 1.1//EN" "http://www.w3.org/Graphics/SVG/1.1/DTD/svg11.dtd">
<svg version="1.1" xmlns="http://www.w3.org/2000/svg" xmlns:xlink="http://www.w3.org/1999/xlink" x="0px" y="0px" width="600px"
	 height="600px" viewBox="0 0 600 600" enable-background="new 0 0 600 600" xml:space="preserve">
<g id="Layer_1">
	<rect fill="#E6E6E6" width="600" height="600"/>
</g>
<g id="Layer_3">
	<g opacity="0.5">
		<path fill="#FFFFFF" d="M600,0C434.315,0,300,134.314,300,300c0,165.685,134.315,300,300,300s300-134.315,300-300
			C900,134.314,765.685,0,600,0z M600,347.264c-26.104,0-47.264-21.16-47.264-47.264c0-26.103,21.16-47.263,47.264-47.263
			s47.264,21.161,47.264,47.263C647.264,326.104,626.104,347.264,600,347.264z"/>
	</g>
	<circle opacity="0.25" fill="none" stroke="#CCCCCC" stroke-width="5" stroke-miterlimit="10" cx="600" cy="300" r="105"/>
</g>
<g id="Layer_4">
	<g opacity="0.5">
		<path fill="#FFFFFF" d="M207.33,458.784c-8.765-8.768-20.422-13.598-32.818-13.598c-12.401,0-24.059,4.83-32.827,13.598
			c-8.767,8.773-13.595,20.43-13.595,32.829c0,12.401,4.828,24.054,13.595,32.821c8.769,8.77,20.426,13.6,32.827,13.6
			c12.396,0,24.053-4.83,32.818-13.6c8.768-8.768,13.603-20.42,13.603-32.821C220.932,479.214,216.098,467.558,207.33,458.784
			 M174.512,526.093c-9.208,0-17.873-3.593-24.387-10.104c-6.511-6.514-10.103-15.169-10.103-24.376
			c0-9.218,3.592-17.878,10.103-24.384c6.514-6.517,15.178-10.105,24.387-10.105c9.208,0,17.867,3.589,24.382,10.105
			c6.502,6.506,10.096,15.166,10.096,24.384C208.99,510.627,193.525,526.093,174.512,526.093z"/>
		<path fill="#FFFFFF" d="M100.139,471.654c17.417-9.31,28.227-27.321,28.227-47.075c0-14.248-5.534-27.652-15.612-37.726
			c-10.083-10.085-23.481-15.632-37.732-15.632l-11.83,0.002l0.022,166.854l17.644,0.002c9.622,0,18.669-3.745,25.468-10.548
			c6.804-6.807,10.557-15.855,10.557-25.473c0-6.23-1.617-12.363-4.677-17.746C109.301,479.185,105.112,474.816,100.139,471.654
			 M75.188,383.166c10.996,0.05,21.341,4.352,29.12,12.121c7.824,7.83,12.117,18.233,12.117,29.292
			c0,11.062-4.293,21.465-12.117,29.285c-7.779,7.778-18.125,12.075-29.12,12.126V383.166z M80.84,526.142h-5.652v-48.187
			c0.985,0,5.604,0.028,5.604,0.028c6.435,0,12.535,2.496,17.085,7.043c4.548,4.554,7.052,10.6,7.052,17.033
			C104.93,515.336,94.12,526.142,80.84,526.142z"/>
		<path fill="#FFFFFF" d="M153.367,418.039c0,4.836,1.911,9.294,5.507,12.892c5.049,5.048,10.592,5.737,14.352,5.432
			c4.487-0.37,8.998-2.415,12.067-5.478c2.745-2.746,4.294-4.298,5.792-5.755l9.281,9.042l6.519-6.538l0.086-0.156l-9.14-9.151
			l6.499-6.513l-6.799-6.801l-6.501,6.522c0,0-19.02-19.062-21.372-21.439c-1.268-1.289-2.044-2.646-2.044-4.789
			c0-2.282,1.033-3.798,1.9-4.674c1.273-1.273,3.151-2.064,4.86-2.064c2.613,0,4.223,1.379,4.785,1.968l0.136,0.146l0.139-0.139
			l3.861-3.853l2.674-2.661l0.107-0.136l-0.178-0.203c-1.75-1.789-5.592-4.788-11.543-4.788c-4.54,0-8.743,1.808-11.825,5.094
			c-2.884,3.066-4.541,7.172-4.541,11.271c0,6.81,3.878,10.998,6.624,13.551l-5.78,5.657
			C155.467,407.841,153.367,413.042,153.367,418.039 M165.654,411.317l5.744-5.75l12.855,12.737
			c-0.586,0.603-3.078,3.12-5.824,5.832c-3.302,3.259-8.788,3.938-12.775-0.042c-1.741-1.75-2.666-3.918-2.666-6.284
			C162.988,415.413,163.987,412.982,165.654,411.317z"/>
	</g>
</g>
<g id="Layer_2" display="none">
	<g display="inline" opacity="0.15">
		<path fill="#FFFFFF" d="M598,2v596H2V2H598 M600,0H0v600h600V0L600,0z"/>
	</g>
</g>
</svg>
