<?xml version="1.0" encoding="UTF-8" standalone="no"?><!DOCTYPE svg PUBLIC "-//W3C//DTD SVG 1.1//EN" "http://www.w3.org/Graphics/SVG/1.1/DTD/svg11.dtd"><svg width="100%" height="100%" viewBox="0 0 420 420" version="1.1" xmlns="http://www.w3.org/2000/svg" xmlns:xlink="http://www.w3.org/1999/xlink" xml:space="preserve" xmlns:serif="http://www.serif.com/" style="fill-rule:evenodd;clip-rule:evenodd;stroke-linejoin:round;stroke-miterlimit:2;"><path d="M350.554,192.761c16.842,-5.495 37.769,12.278 46.705,39.665c8.935,27.387 2.516,54.082 -14.325,59.577c-16.842,5.495 -37.769,-12.278 -46.705,-39.665c-8.935,-27.387 -2.516,-54.082 14.325,-59.577Z"/><path d="M149.944,32.977c8.023,-15.794 35.389,-18.025 61.072,-4.978c25.684,13.047 40.022,36.463 31.999,52.257c-8.024,15.794 -35.389,18.025 -61.073,4.978c-25.684,-13.047 -40.022,-36.463 -31.998,-52.257Z"/><path d="M278.104,60.08c8.303,-10.939 26.001,-11.503 39.496,-1.259c13.496,10.244 17.712,27.441 9.409,38.38c-8.303,10.939 -26.001,11.504 -39.497,1.26c-13.496,-10.244 -17.712,-27.442 -9.408,-38.381Z"/><path d="M331.771,120.867c8.301,-10.941 25.999,-11.508 39.496,-1.267c13.498,10.242 17.717,27.439 9.416,38.379c-8.302,10.941 -26,11.508 -39.497,1.267c-13.498,-10.242 -17.716,-27.439 -9.415,-38.379Z"/><path d="M228.596,309.046c9.606,-42.11 37.698,-71.668 62.695,-65.966c24.996,5.702 37.491,44.519 27.885,86.628c-9.605,42.109 -37.698,71.668 -62.694,65.966c-24.996,-5.702 -37.491,-44.519 -27.886,-86.628Z"/><path d="M108.317,89.733c46.786,-3.649 86.529,15.916 88.693,43.664c2.164,27.748 -34.064,53.239 -80.85,56.888c-46.787,3.65 -86.53,-15.915 -88.694,-43.664c-2.164,-27.748 34.064,-53.238 80.851,-56.888Z"/><path d="M132.667,216.934c36.956,-28.326 81.469,-32.395 99.34,-9.08c17.871,23.315 2.376,65.242 -34.58,93.569c-36.956,28.326 -81.468,32.395 -99.339,9.08c-17.871,-23.315 -2.377,-65.242 34.579,-93.569Z"/></svg>