<?xml version="1.0" encoding="UTF-8" standalone="no"?>
<!DOCTYPE svg PUBLIC "-//W3C//DTD SVG 1.1//EN" "http://www.w3.org/Graphics/SVG/1.1/DTD/svg11.dtd">
<svg width="100%" height="100%" viewBox="0 0 23 23" version="1.1" xmlns="http://www.w3.org/2000/svg" xmlns:xlink="http://www.w3.org/1999/xlink" xml:space="preserve" xmlns:serif="http://www.serif.com/" style="fill-rule:evenodd;clip-rule:evenodd;stroke-linecap:round;stroke-linejoin:round;">
    <path d="M5.5,17.5C5.5,19.708 7.292,21.5 9.5,21.5C11.708,21.5 13.5,19.708 13.5,17.5C13.5,14.029 18.5,14.477 18.5,8.5C18.5,4.637 15.363,1.5 11.5,1.5C7.637,1.5 4.5,4.637 4.5,8.5" style="fill:none;stroke:black;stroke-width:1px;"/>
    <path d="M15.5,8.5C15.5,6.292 13.708,4.5 11.5,4.5C9.292,4.5 7.5,6.292 7.5,8.5L7.5,9.5C9.156,9.5 10.5,10.844 10.5,12.5C10.5,14.156 9.156,15.5 7.5,15.5" style="fill:none;stroke:black;stroke-width:1px;"/>
</svg>
