<?xml version="1.0" encoding="UTF-8" standalone="no"?><!DOCTYPE svg PUBLIC "-//W3C//DTD SVG 1.1//EN" "http://www.w3.org/Graphics/SVG/1.1/DTD/svg11.dtd"><svg width="100%" height="100%" viewBox="-1 -1 23 23" version="1.1" xmlns="http://www.w3.org/2000/svg" xmlns:xlink="http://www.w3.org/1999/xlink" xml:space="preserve" xmlns:serif="http://www.serif.com/" style="fill-rule:evenodd;clip-rule:evenodd;stroke-linecap:round;stroke-linejoin:round;"><path d="M19.5,18.007c0,0.396 -0.157,0.776 -0.437,1.056c-0.28,0.28 -0.66,0.437 -1.056,0.437l-15.014,0c-0.396,0 -0.776,-0.157 -1.056,-0.437c-0.28,-0.28 -0.437,-0.66 -0.437,-1.056l0,-15.014c0,-0.396 0.157,-0.776 0.437,-1.056c0.28,-0.28 0.66,-0.437 1.056,-0.437l15.014,0c0.396,0 0.776,0.157 1.056,0.437c0.28,0.28 0.437,0.66 0.437,1.056l0,15.014Z" style="fill:none;stroke:#000;stroke-width:1px;"/><path d="M1.5,10.5l5.262,0c2.335,0 4.516,1.167 5.811,3.11c1.735,2.601 3.927,5.89 3.927,5.89" style="fill:none;stroke:#000;stroke-width:1px;stroke-linejoin:miter;"/></svg>