<?xml version="1.0" encoding="UTF-8" standalone="no"?><!DOCTYPE svg PUBLIC "-//W3C//DTD SVG 1.1//EN" "http://www.w3.org/Graphics/SVG/1.1/DTD/svg11.dtd"><svg width="100%" height="100%" viewBox="0 0 21 21" version="1.1" xmlns="http://www.w3.org/2000/svg" xmlns:xlink="http://www.w3.org/1999/xlink" xml:space="preserve" xmlns:serif="http://www.serif.com/" style="fill-rule:evenodd;clip-rule:evenodd;stroke-linecap:round;stroke-linejoin:round;"><path d="M1.5,18.007c0,0.396 0.157,0.776 0.437,1.056c0.28,0.28 0.66,0.437 1.056,0.437c3.388,0 11.626,0 15.014,0c0.396,0 0.776,-0.157 1.056,-0.437c0.28,-0.28 0.437,-0.66 0.437,-1.056c0,-3.388 0,-11.626 0,-15.014c0,-0.396 -0.157,-0.776 -0.437,-1.056c-0.28,-0.28 -0.66,-0.437 -1.056,-0.437c-3.388,0 -11.626,0 -15.014,0c-0.396,0 -0.776,0.157 -1.056,0.437c-0.28,0.28 -0.437,0.66 -0.437,1.056c0,3.388 0,11.626 0,15.014Z" style="fill:none;stroke:#000;stroke-width:1px;"/><path d="M3.5,5.5c0,0 0.948,0 1.921,0c1.331,0 2.608,0.529 3.549,1.47c2.779,2.779 8.53,8.53 8.53,8.53" style="fill:none;stroke:#000;stroke-width:1px;"/><circle cx="17.5" cy="5.5" r="0.5"/><circle cx="15.5" cy="5.5" r="0.5"/><circle cx="13.5" cy="5.5" r="0.5"/><circle cx="11.5" cy="5.5" r="0.5"/></svg>