<?xml version="1.0" encoding="utf-8"?>
<!-- Generator: Adobe Illustrator 15.1.0, SVG Export Plug-In . SVG Version: 6.00 Build 0)  -->
<!DOCTYPE svg PUBLIC "-//W3C//DTD SVG 1.1//EN" "http://www.w3.org/Graphics/SVG/1.1/DTD/svg11.dtd">
<svg version="1.1" id="Layer_3" xmlns="http://www.w3.org/2000/svg" xmlns:xlink="http://www.w3.org/1999/xlink" x="0px" y="0px"
	 width="44px" height="44px" viewBox="0 0 44 44" enable-background="new 0 0 44 44" xml:space="preserve">
<polygon fill="none" stroke="#000000" stroke-linecap="round" stroke-linejoin="round" stroke-miterlimit="10" points="22.5,1.5 
	9.5,7.5 19.5,12.5 32.5,6.5 "/>
<path fill="none" stroke="#000000" stroke-linecap="round" stroke-linejoin="round" stroke-miterlimit="10" d="M14.5,6.5"/>
<polyline fill="none" stroke="#000000" stroke-linecap="round" stroke-linejoin="round" stroke-miterlimit="10" points="19.5,12.5 
	22.5,14.5 21.5,27 "/>
<path fill="none" stroke="#000000" stroke-linecap="round" stroke-linejoin="round" stroke-miterlimit="10" d="M22.5,15.5"/>
<polyline fill="none" stroke="#000000" stroke-linecap="round" stroke-linejoin="round" stroke-miterlimit="10" points="34.5,23 
	34.5,36.5 21.5,42.5 "/>
<line fill="none" stroke="#000000" stroke-linecap="round" stroke-linejoin="round" stroke-miterlimit="10" x1="33.5" y1="21.5" x2="33.5" y2="23"/>
<polyline fill="none" stroke="#000000" stroke-linecap="round" stroke-linejoin="round" stroke-miterlimit="10" points="32.5,6.5 
	35.5,8.5 34.5,21 "/>
<line fill="none" stroke="#000000" stroke-linecap="round" stroke-linejoin="round" stroke-miterlimit="10" x1="19.5" y1="12.5" x2="19.5" y2="41.5"/>
<line fill="none" stroke="#000000" stroke-linecap="round" stroke-linejoin="round" stroke-miterlimit="10" x1="35.5" y1="8.5" x2="22.5" y2="14.5"/>
<line fill="none" stroke="#000000" stroke-linecap="round" stroke-linejoin="round" stroke-miterlimit="10" x1="34.5" y1="21" x2="21.5" y2="27"/>
<polyline fill="none" stroke="#000000" stroke-linecap="round" stroke-linejoin="round" stroke-miterlimit="10" points="21.5,42.5 
	21.5,29 34.5,23 "/>
<polyline fill="none" stroke="#000000" stroke-linecap="round" stroke-linejoin="round" stroke-miterlimit="10" points="9.5,7.5 
	9.5,36.5 19.505,41.502 21.5,42 "/>
</svg>
