<?xml version="1.0" encoding="utf-8"?>
<!-- Generator: Adobe Illustrator 15.1.0, SVG Export Plug-In . SVG Version: 6.00 Build 0)  -->
<!DOCTYPE svg PUBLIC "-//W3C//DTD SVG 1.1//EN" "http://www.w3.org/Graphics/SVG/1.1/DTD/svg11.dtd">
<svg version="1.1" id="Layer_2" xmlns="http://www.w3.org/2000/svg" xmlns:xlink="http://www.w3.org/1999/xlink" x="0px" y="0px"
	 width="22px" height="22px" viewBox="0 0 22 22" enable-background="new 0 0 22 22" xml:space="preserve">
<g>
	<circle fill="none" stroke="#000000" stroke-miterlimit="10" cx="14.43" cy="14.78" r="4.237"/>
	<path fill="none" stroke="#000000" stroke-linecap="square" stroke-miterlimit="10" d="M3.5,2.876v16.072h1.351
		c1.662,0,3.009-1.349,3.009-3.011c0-1.66-1.392-3.254-3.746-3.254c2.709,0,4.905-2.194,4.905-4.902
		C9.019,5.072,7.091,2.876,3.5,2.876z"/>
	<path fill="none" stroke="#000000" stroke-miterlimit="10" d="M17.592,8.405L13.626,4.44l0,0c-0.205-0.206-0.332-0.49-0.332-0.804
		c0-0.626,0.509-1.136,1.136-1.136c0.313,0,0.6,0.127,0.805,0.333"/>
	<path fill="none" stroke="#000000" stroke-miterlimit="10" d="M14.238,5.052l-1.084,1.085c-0.256,0.255-0.412,0.609-0.412,0.999
		c0,0.78,0.631,1.413,1.412,1.413c0.389,0,0.742-0.158,0.998-0.414l2.018-2.02"/>
</g>
<line fill="none" stroke="#000000" stroke-miterlimit="10" x1="4.672" y1="12.684" x2="3.5" y2="12.684"/>
</svg>
