<?xml version="1.0" encoding="utf-8"?>
<!-- Generator: Adobe Illustrator 15.1.0, SVG Export Plug-In . SVG Version: 6.00 Build 0)  -->
<!DOCTYPE svg PUBLIC "-//W3C//DTD SVG 1.1//EN" "http://www.w3.org/Graphics/SVG/1.1/DTD/svg11.dtd">
<svg version="1.1" id="Layer_2" xmlns="http://www.w3.org/2000/svg" xmlns:xlink="http://www.w3.org/1999/xlink" x="0px" y="0px"
	 width="22px" height="22px" viewBox="0 0 22 22" enable-background="new 0 0 22 22" xml:space="preserve">
<path fill="none" stroke="#000000" stroke-linecap="round" stroke-miterlimit="10" d="M12,18c0,1.104-0.896,2-2,2H4
	c-1.104,0-2-0.896-2-2V4c0-1.104,0.896-2,2-2h6c1.104,0,2,0.896,2,2V18z"/>
<circle fill="#000000" cx="7" cy="18" r="1"/>
<path fill="none" stroke="#000000" stroke-linecap="round" stroke-miterlimit="10" d="M18.068,3.927C19.88,5.736,21,8.237,21,11
	c0,2.762-1.119,5.262-2.93,7.07"/>
<path fill="none" stroke="#000000" stroke-linecap="round" stroke-miterlimit="10" d="M15.24,6.754C16.327,7.84,17,9.342,17,11
	c0,1.656-0.672,3.156-1.757,4.242"/>
</svg>
