<?xml version="1.0" encoding="utf-8"?>
<!-- Generator: Adobe Illustrator 15.1.0, SVG Export Plug-In . SVG Version: 6.00 Build 0)  -->
<!DOCTYPE svg PUBLIC "-//W3C//DTD SVG 1.1//EN" "http://www.w3.org/Graphics/SVG/1.1/DTD/svg11.dtd">
<svg version="1.1" id="Layer_3" xmlns="http://www.w3.org/2000/svg" xmlns:xlink="http://www.w3.org/1999/xlink" x="0px" y="0px"
	 width="22px" height="22px" viewBox="0 0 22 22" enable-background="new 0 0 22 22" xml:space="preserve">
<g>
	<path d="M14.271,13.544L14.271,13.544c0.038,0,0.076,0.004,0.112,0.011c0.695,0.136,1.229,1.546,0.901,3.231
		c-0.311,1.597-1.249,2.67-1.932,2.67c-0.038,0-0.075-0.004-0.112-0.011c-0.695-0.136-1.229-1.546-0.901-3.231
		C12.65,14.617,13.589,13.544,14.271,13.544 M14.271,12.544c-1.261,0-2.523,1.473-2.913,3.479c-0.421,2.169,0.336,4.14,1.691,4.403
		c0.101,0.02,0.202,0.029,0.304,0.029c1.261,0,2.523-1.473,2.913-3.479c0.421-2.169-0.336-4.14-1.691-4.403
		C14.475,12.554,14.373,12.544,14.271,12.544L14.271,12.544z"/>
</g>
<g>
	<path d="M8.951,2.337L8.951,2.337c0.384,0,0.825,0.127,1.244,0.358c0.448,0.247,0.815,0.587,1.007,0.933
		c0.13,0.234,0.131,0.386,0.111,0.421c-0.023,0.041-0.18,0.132-0.499,0.132c-0.384,0-0.826-0.127-1.244-0.358
		c-0.922-0.51-1.195-1.214-1.118-1.354C8.476,2.427,8.633,2.337,8.951,2.337 M8.951,1.337c-0.623,0-1.137,0.219-1.374,0.648
		c-0.438,0.796,0.238,2.01,1.51,2.713c0.586,0.323,1.196,0.482,1.727,0.482c0.623,0,1.136-0.219,1.374-0.648
		c0.439-0.796-0.236-2.011-1.511-2.713C10.092,1.496,9.482,1.337,8.951,1.337L8.951,1.337z"/>
</g>
<g>
	<path d="M14.964,4.053c0.123,0,0.25,0.034,0.369,0.1c0.158,0.088,0.28,0.221,0.333,0.365c0.025,0.067,0.046,0.165,0,0.246
		c-0.057,0.104-0.206,0.141-0.326,0.141c-0.123,0-0.251-0.035-0.369-0.1c-0.294-0.163-0.419-0.457-0.333-0.611
		C14.694,4.09,14.844,4.053,14.964,4.053 M14.964,3.053c-0.505,0-0.967,0.232-1.202,0.658c-0.366,0.664-0.042,1.546,0.726,1.97
		c0.275,0.152,0.57,0.225,0.853,0.225c0.505,0,0.968-0.232,1.202-0.658c0.367-0.665,0.042-1.546-0.727-1.97
		C15.54,3.125,15.245,3.053,14.964,3.053L14.964,3.053z"/>
</g>
<g>
	<path d="M17.735,6.959c0.123,0,0.25,0.034,0.369,0.1c0.158,0.088,0.28,0.221,0.333,0.365c0.025,0.067,0.046,0.165,0,0.246
		c-0.057,0.104-0.206,0.141-0.326,0.141c-0.123,0-0.251-0.035-0.369-0.1c-0.294-0.163-0.419-0.457-0.333-0.611
		C17.466,6.996,17.615,6.959,17.735,6.959 M17.735,5.959c-0.505,0-0.967,0.232-1.202,0.658c-0.366,0.664-0.042,1.546,0.726,1.97
		c0.275,0.152,0.57,0.225,0.853,0.225c0.505,0,0.968-0.232,1.202-0.658c0.367-0.665,0.042-1.546-0.727-1.97
		C18.312,6.031,18.017,5.959,17.735,5.959L17.735,5.959z"/>
</g>
<g>
	<path d="M17.971,11.123c0.227,0,0.794,0.475,1.067,1.384c0.223,0.739,0.128,1.324-0.021,1.601
		c-0.048,0.089-0.098,0.138-0.139,0.147c-0.227,0-0.793-0.475-1.066-1.382c-0.304-1.009-0.009-1.703,0.143-1.748
		C17.958,11.124,17.962,11.123,17.971,11.123 M17.971,10.123c-0.103,0-0.204,0.014-0.303,0.044
		c-0.866,0.262-1.232,1.602-0.813,2.994c0.372,1.232,1.23,2.094,2.024,2.094c0.103,0,0.204-0.014,0.303-0.044
		c0.869-0.261,1.233-1.602,0.813-2.993C19.624,10.985,18.765,10.123,17.971,10.123L17.971,10.123z"/>
</g>
<g>
	<path d="M9.759,11.078L9.759,11.078c0.295,0,0.833,0.055,1.114,0.425c0.166,0.219,0.224,0.516,0.174,0.883
		c-0.114,0.831-0.757,1.78-1.679,2.479c-0.81,0.615-1.731,0.968-2.528,0.968c-0.296,0-0.834-0.055-1.114-0.423
		c-0.505-0.668-0.012-2.213,1.504-3.364C8.04,11.431,8.962,11.078,9.759,11.078 M9.758,10.078c-0.974,0-2.113,0.396-3.133,1.17
		c-1.861,1.413-2.621,3.544-1.697,4.764c0.418,0.55,1.108,0.819,1.911,0.819c0.974,0,2.113-0.396,3.133-1.171
		c1.862-1.411,2.622-3.544,1.696-4.763C11.251,10.348,10.561,10.078,9.758,10.078L9.758,10.078z"/>
</g>
<g>
	<path d="M5.987,5.6c1.741,0,2.888,0.774,2.952,1.492c0.034,0.38-0.222,0.812-0.702,1.184C7.63,8.746,6.739,9.064,5.792,9.147
		C5.619,9.163,5.448,9.17,5.281,9.17c-1.739,0-2.886-0.774-2.95-1.491C2.257,6.847,3.588,5.791,5.479,5.623
		C5.65,5.607,5.82,5.6,5.987,5.6 M5.987,4.6c-0.195,0-0.395,0.008-0.596,0.026C3.016,4.838,1.2,6.244,1.334,7.768
		C1.459,9.16,3.172,10.17,5.281,10.17c0.197,0,0.397-0.009,0.6-0.027c2.375-0.21,4.191-1.616,4.055-3.14
		C9.812,5.609,8.097,4.6,5.987,4.6L5.987,4.6z"/>
</g>
</svg>
