<?xml version="1.0" encoding="UTF-8" standalone="no"?><!DOCTYPE svg PUBLIC "-//W3C//DTD SVG 1.1//EN" "http://www.w3.org/Graphics/SVG/1.1/DTD/svg11.dtd"><svg width="100%" height="100%" viewBox="-1 -1 23 23" version="1.1" xmlns="http://www.w3.org/2000/svg" xmlns:xlink="http://www.w3.org/1999/xlink" xml:space="preserve" xmlns:serif="http://www.serif.com/" style="fill-rule:evenodd;clip-rule:evenodd;stroke-linecap:round;stroke-linejoin:round;"><path d="M5.01,8.1c0.927,-2.118 3.042,-3.6 5.5,-3.6c3.312,0 6,2.689 6,6c0,3.311 -2.688,6 -6,6c-2.458,0 -4.573,-1.482 -5.5,-3.6" style="fill:none;stroke:#fff;stroke-width:1px;"/><path d="M11.5,10.5l-11,0" style="fill:none;stroke:#fff;stroke-width:1px;"/><path d="M9.5,7.5l3,3l-3,3" style="fill:none;stroke:#fff;stroke-width:1px;"/><path d="M10.5,18.5l0,2" style="fill:none;stroke:#fff;stroke-width:1px;"/><path d="M10.5,0.5l0,2" style="fill:none;stroke:#fff;stroke-width:1px;"/><path d="M4.843,16.157l-1.414,1.414" style="fill:none;stroke:#fff;stroke-width:1px;"/><path d="M17.571,3.429l-1.414,1.414" style="fill:none;stroke:#fff;stroke-width:1px;"/><path d="M20.5,10.5l-2,0" style="fill:none;stroke:#fff;stroke-width:1px;"/><path d="M4.843,4.843l-1.414,-1.414" style="fill:none;stroke:#fff;stroke-width:1px;"/><path d="M17.571,17.571l-1.414,-1.414" style="fill:none;stroke:#fff;stroke-width:1px;"/></svg>