<?xml version="1.0" encoding="UTF-8" standalone="no"?><!DOCTYPE svg PUBLIC "-//W3C//DTD SVG 1.1//EN" "http://www.w3.org/Graphics/SVG/1.1/DTD/svg11.dtd"><svg width="100%" height="100%" viewBox="0 0 21 21" version="1.1" xmlns="http://www.w3.org/2000/svg" xmlns:xlink="http://www.w3.org/1999/xlink" xml:space="preserve" xmlns:serif="http://www.serif.com/" style="fill-rule:evenodd;clip-rule:evenodd;stroke-miterlimit:10;"><g><ellipse cx="14.75" cy="14.745" rx="4.75" ry="4.745" style="fill:none;stroke:#000;stroke-width:1px;"/><path d="M2.5,1.5l0,18l1.489,0c1.861,0 3.511,-1.639 3.511,-3.5c0,-1.679 -1.295,-3.5 -4.349,-3.5c3.034,0 5.349,-2.474 5.349,-5.507c0,-3.034 -1.978,-5.493 -6,-5.493Z" style="fill:none;stroke:#000;stroke-width:1px;stroke-linecap:square;stroke-miterlimit:3;"/><path d="M18.154,7.712l-4.406,-4.405c-0.227,-0.228 -0.369,-0.544 -0.369,-0.893c0,-0.695 0.566,-1.262 1.262,-1.262c0.348,0 0.667,0.142 0.895,0.37" style="fill:none;stroke:#000;stroke-width:1px;"/><path d="M14.428,3.987l-1.204,1.206c-0.284,0.283 -0.458,0.676 -0.458,1.109c0,0.867 0.701,1.57 1.569,1.57c0.432,0 0.824,-0.176 1.108,-0.46l2.242,-2.244" style="fill:none;stroke:#000;stroke-width:1px;"/><path d="M3.802,12.5l-1.302,0" style="fill:none;stroke:#000;stroke-width:1px;"/></g></svg>