<?xml version="1.0" encoding="UTF-8" standalone="no"?><!DOCTYPE svg PUBLIC "-//W3C//DTD SVG 1.1//EN" "http://www.w3.org/Graphics/SVG/1.1/DTD/svg11.dtd"><svg width="100%" height="100%" viewBox="-1 -1 23 23" version="1.1" xmlns="http://www.w3.org/2000/svg" xmlns:xlink="http://www.w3.org/1999/xlink" xml:space="preserve" xmlns:serif="http://www.serif.com/" style="fill-rule:evenodd;clip-rule:evenodd;stroke-linejoin:round;stroke-miterlimit:2;"><path d="M18.497,10.099c-0.463,0.008 -0.736,0.553 -0.817,0.922c-0.016,0.073 -0.028,0.147 -0.038,0.221c-0.154,1.213 0.35,2.577 1.316,3.254c0.285,0.2 0.653,0.343 0.975,0.16c0.466,-0.264 0.554,-0.879 0.566,-1.355c0.03,-1.234 -0.532,-2.615 -1.586,-3.103c-0.13,-0.06 -0.271,-0.101 -0.416,-0.099Z" style="fill:none;stroke:#000;stroke-width:1px;"/><path d="M8.439,0.5c-0.458,0.007 -0.986,0.108 -1.143,0.554c-0.156,0.442 0.133,0.895 0.39,1.212c0.818,1.005 2.295,1.594 3.38,1.306c0.268,-0.072 0.534,-0.223 0.63,-0.484c0.161,-0.443 -0.13,-0.9 -0.389,-1.218c-0.676,-0.831 -1.744,-1.354 -2.817,-1.37c-0.026,0 -0.026,0 -0.051,0Z" style="fill:none;stroke:#000;stroke-width:1px;"/><path d="M15.123,2.282c-0.311,0.005 -0.631,0.153 -0.739,0.456c-0.289,0.807 0.829,1.821 1.714,1.519c0.189,-0.064 0.352,-0.206 0.423,-0.395c0.265,-0.704 -0.511,-1.582 -1.398,-1.58Z" style="fill:none;stroke:#000;stroke-width:1px;"/><path d="M18.137,5.669c-0.311,0.005 -0.63,0.153 -0.739,0.456c-0.289,0.807 0.83,1.821 1.715,1.519c0.189,-0.064 0.352,-0.206 0.423,-0.396c0.264,-0.703 -0.512,-1.581 -1.399,-1.579Z" style="fill:none;stroke:#000;stroke-width:1px;"/><path d="M14.46,12.919c-0.681,0.008 -1.26,0.548 -1.657,1.071c-1.229,1.613 -1.737,4.04 -0.704,5.767c0.233,0.39 0.621,0.737 1.106,0.743c0.704,0.009 1.276,-0.545 1.668,-1.055c1.245,-1.619 1.75,-4.057 0.717,-5.783c-0.233,-0.388 -0.618,-0.729 -1.095,-0.743c-0.011,0 -0.023,0 -0.035,0Z" style="fill:none;stroke:#000;stroke-width:1px;"/><path d="M5.154,4.389c-1.38,0.006 -2.817,0.341 -3.851,1.187c-0.514,0.42 -0.954,1.051 -0.754,1.717c0.217,0.723 0.958,1.133 1.604,1.376c1.763,0.665 3.884,0.49 5.499,-0.425c0.795,-0.451 1.598,-1.176 1.333,-2.095c-0.208,-0.72 -0.937,-1.129 -1.566,-1.373c-0.717,-0.278 -1.508,-0.388 -2.265,-0.387Z" style="fill:none;stroke:#000;stroke-width:1px;"/><path d="M9.457,10.152c-2.502,0.025 -5.069,2.122 -5.381,4.432c-0.08,0.589 0.086,1.255 0.596,1.618c0.836,0.594 2.08,0.405 3.175,-0.067c1.671,-0.721 3.183,-2.1 3.516,-3.864c0.118,-0.624 -0.012,-1.357 -0.56,-1.754c-0.379,-0.275 -0.875,-0.367 -1.346,-0.365Z" style="fill:none;stroke:#000;stroke-width:1px;"/></svg>