<?xml version="1.0" encoding="UTF-8" standalone="no"?><!DOCTYPE svg PUBLIC "-//W3C//DTD SVG 1.1//EN" "http://www.w3.org/Graphics/SVG/1.1/DTD/svg11.dtd"><svg width="100%" height="100%" viewBox="0 0 21 21" version="1.1" xmlns="http://www.w3.org/2000/svg" xmlns:xlink="http://www.w3.org/1999/xlink" xml:space="preserve" xmlns:serif="http://www.serif.com/" style="fill-rule:evenodd;clip-rule:evenodd;stroke-linejoin:round;stroke-miterlimit:1.41421;"><path d="M5.865,4.317l0.107,0.002l0.107,0.004l0.106,0.006l0.104,0.008l0.104,0.009l0.103,0.011l0.103,0.013l0.101,0.014l0.1,0.015l0.099,0.018l0.098,0.018l0.096,0.021l0.096,0.022l0.095,0.023l0.093,0.025l0.092,0.026l0.09,0.028l0.089,0.029l0.088,0.03l0.087,0.032l0.084,0.033l0.084,0.035l0.082,0.036l0.08,0.037l0.079,0.039l0.077,0.039l0.075,0.041l0.074,0.043l0.072,0.043l0.07,0.045l0.069,0.046l0.066,0.047l0.065,0.048l0.062,0.049l0.061,0.051l0.059,0.051l0.056,0.053l0.055,0.053l0.052,0.055l0.051,0.056l0.048,0.056l0.046,0.058l0.043,0.059l0.041,0.059l0.039,0.061l0.037,0.061l0.034,0.062l0.032,0.063l0.029,0.064l0.027,0.065l0.025,0.066l0.021,0.066l0.019,0.068l0.017,0.068l0.013,0.068l0.011,0.07l0.009,0.07l0.005,0.07l0.003,0.071l-0.001,0.07l-0.003,0.07l-0.005,0.069l-0.009,0.07l-0.011,0.069l-0.014,0.069l-0.017,0.068l-0.019,0.068l-0.021,0.068l-0.024,0.067l-0.027,0.067l-0.029,0.066l-0.032,0.066l-0.034,0.066l-0.036,0.065l-0.039,0.064l-0.041,0.064l-0.043,0.063l-0.045,0.062l-0.048,0.062l-0.05,0.061l-0.052,0.06l-0.054,0.06l-0.056,0.059l-0.059,0.058l-0.06,0.058l-0.062,0.056l-0.064,0.056l-0.066,0.054l-0.069,0.054l-0.069,0.053l-0.072,0.052l-0.074,0.051l-0.075,0.05l-0.077,0.049l-0.078,0.048l-0.081,0.047l-0.082,0.045l-0.083,0.045l-0.085,0.043l-0.087,0.043l-0.088,0.041l-0.09,0.039l-0.091,0.039l-0.093,0.037l-0.093,0.036l-0.096,0.035l-0.096,0.033l-0.098,0.032l-0.099,0.03l-0.1,0.029l-0.102,0.028l-0.102,0.026l-0.104,0.025l-0.105,0.023l-0.106,0.021l-0.107,0.02l-0.107,0.019l-0.109,0.016l-0.11,0.015l-0.111,0.014l-0.111,0.012l-0.112,0.01l-0.111,0.008l-0.111,0.006l-0.11,0.004l-0.109,0.003l-0.109,0.001l-0.108,-0.001l-0.107,-0.002l-0.107,-0.005l-0.105,-0.006l-0.105,-0.007l-0.104,-0.009l-0.103,-0.011l-0.102,-0.013l-0.102,-0.014l-0.1,-0.016l-0.099,-0.017l-0.098,-0.019l-0.096,-0.02l-0.096,-0.022l-0.094,-0.023l-0.094,-0.025l-0.091,-0.026l-0.091,-0.028l-0.089,-0.029l-0.088,-0.03l-0.087,-0.032l-0.084,-0.034l-0.084,-0.034l-0.082,-0.036l-0.08,-0.037l-0.079,-0.039l-0.077,-0.04l-0.075,-0.041l-0.074,-0.042l-0.072,-0.043l-0.07,-0.045l-0.068,-0.046l-0.067,-0.047l-0.065,-0.048l-0.062,-0.049l-0.061,-0.051l-0.059,-0.051l-0.056,-0.053l-0.055,-0.053l-0.052,-0.055l-0.05,-0.056l-0.049,-0.056l-0.045,-0.058l-0.044,-0.059l-0.041,-0.059l-0.039,-0.061l-0.037,-0.061l-0.034,-0.062l-0.032,-0.064l-0.029,-0.064l-0.027,-0.064l-0.025,-0.066l-0.021,-0.067l-0.019,-0.067l-0.017,-0.068l-0.013,-0.069l-0.011,-0.069l-0.009,-0.07l-0.005,-0.071l-0.003,-0.07l0.001,-0.07l0.003,-0.07l0.006,-0.07l0.008,-0.069l0.011,-0.069l0.014,-0.069l0.017,-0.068l0.019,-0.068l0.021,-0.068l0.025,-0.067l0.026,-0.067l0.029,-0.067l0.032,-0.066l0.034,-0.065l0.036,-0.065l0.039,-0.064l0.041,-0.064l0.043,-0.063l0.046,-0.062l0.047,-0.062l0.05,-0.061l0.052,-0.061l0.054,-0.059l0.056,-0.059l0.059,-0.058l0.06,-0.058l0.062,-0.056l0.064,-0.056l0.067,-0.055l0.068,-0.053l0.069,-0.053l0.072,-0.052l0.074,-0.051l0.075,-0.05l0.077,-0.049l0.079,-0.048l0.08,-0.047l0.082,-0.046l0.083,-0.044l0.086,-0.044l0.086,-0.042l0.088,-0.041l0.09,-0.04l0.091,-0.038l0.093,-0.037l0.093,-0.036l0.096,-0.035l0.096,-0.033l0.098,-0.032l0.099,-0.031l0.1,-0.029l0.102,-0.027l0.102,-0.026l0.104,-0.025l0.105,-0.023l0.106,-0.022l0.107,-0.02l0.108,-0.018l0.108,-0.017l0.11,-0.015l0.111,-0.013l0.111,-0.012l0.112,-0.01l0.111,-0.008l0.111,-0.006l0.11,-0.005l0.109,-0.002l0.109,-0.001l0.108,0.001Zm-0.2,1l-0.094,0.002l-0.094,0.004l-0.094,0.005l-0.095,0.007l-0.096,0.009l-0.096,0.01l-0.095,0.011l-0.094,0.013l-0.093,0.014l-0.092,0.016l-0.091,0.017l-0.09,0.018l-0.089,0.02l-0.088,0.021l-0.087,0.022l-0.085,0.023l-0.085,0.025l-0.083,0.025l-0.082,0.027l-0.081,0.028l-0.079,0.029l-0.078,0.029l-0.076,0.031l-0.075,0.032l-0.074,0.033l-0.072,0.033l-0.07,0.034l-0.069,0.036l-0.067,0.035l-0.066,0.037l-0.064,0.037l-0.062,0.038l-0.06,0.038l-0.059,0.039l-0.056,0.039l-0.055,0.04l-0.053,0.04l-0.051,0.041l-0.049,0.04l-0.047,0.041l-0.045,0.041l-0.043,0.041l-0.041,0.041l-0.04,0.041l-0.036,0.041l-0.035,0.04l-0.033,0.04l-0.031,0.041l-0.029,0.039l-0.027,0.039l-0.025,0.039l-0.023,0.038l-0.021,0.038l-0.019,0.037l-0.018,0.036l-0.015,0.036l-0.014,0.035l-0.013,0.034l-0.01,0.034l-0.01,0.033l-0.007,0.032l-0.007,0.032l-0.005,0.031l-0.004,0.031l-0.002,0.03l-0.001,0.031l-0.001,0.03l0.002,0.03l0.002,0.03l0.003,0.03l0.005,0.03l0.006,0.03l0.007,0.029l0.009,0.03l0.009,0.029l0.011,0.03l0.012,0.03l0.014,0.03l0.016,0.031l0.017,0.031l0.018,0.031l0.021,0.031l0.022,0.032l0.024,0.033l0.026,0.032l0.028,0.033l0.03,0.033l0.032,0.034l0.034,0.033l0.036,0.033l0.038,0.034l0.04,0.033l0.042,0.033l0.044,0.033l0.046,0.033l0.048,0.032l0.05,0.032l0.052,0.031l0.054,0.031l0.056,0.031l0.058,0.03l0.06,0.029l0.061,0.028l0.063,0.028l0.065,0.027l0.067,0.026l0.068,0.025l0.07,0.024l0.071,0.024l0.073,0.022l0.074,0.021l0.076,0.02l0.077,0.019l0.079,0.018l0.079,0.017l0.081,0.015l0.083,0.015l0.083,0.013l0.084,0.012l0.086,0.01l0.087,0.009l0.087,0.008l0.089,0.006l0.089,0.006l0.09,0.003l0.092,0.002l0.092,0.001l0.092,-0.001l0.094,-0.002l0.094,-0.004l0.094,-0.005l0.095,-0.007l0.096,-0.009l0.096,-0.01l0.095,-0.011l0.094,-0.013l0.093,-0.014l0.092,-0.016l0.091,-0.017l0.09,-0.019l0.089,-0.019l0.088,-0.021l0.087,-0.022l0.085,-0.023l0.085,-0.025l0.083,-0.025l0.082,-0.027l0.081,-0.028l0.079,-0.029l0.078,-0.03l0.076,-0.031l0.075,-0.031l0.074,-0.033l0.072,-0.033l0.07,-0.035l0.069,-0.035l0.068,-0.036l0.065,-0.036l0.064,-0.037l0.062,-0.038l0.06,-0.039l0.059,-0.038l0.057,-0.04l0.054,-0.039l0.053,-0.04l0.051,-0.041l0.049,-0.04l0.047,-0.041l0.045,-0.041l0.043,-0.041l0.042,-0.041l0.039,-0.041l0.037,-0.041l0.035,-0.04l0.032,-0.041l0.031,-0.04l0.029,-0.039l0.027,-0.04l0.025,-0.038l0.023,-0.039l0.021,-0.037l0.019,-0.037l0.018,-0.037l0.015,-0.035l0.014,-0.035l0.013,-0.034l0.01,-0.034l0.01,-0.033l0.007,-0.032l0.007,-0.032l0.005,-0.031l0.004,-0.031l0.002,-0.031l0.001,-0.03l0.001,-0.03l-0.002,-0.03l-0.002,-0.031l-0.003,-0.03l-0.005,-0.03l-0.006,-0.029l-0.007,-0.03l-0.008,-0.029l-0.01,-0.03l-0.011,-0.029l-0.012,-0.03l-0.014,-0.03l-0.016,-0.031l-0.017,-0.031l-0.018,-0.031l-0.021,-0.032l-0.022,-0.032l-0.024,-0.032l-0.026,-0.033l-0.028,-0.033l-0.03,-0.033l-0.032,-0.033l-0.034,-0.033l-0.036,-0.034l-0.038,-0.033l-0.04,-0.033l-0.042,-0.033l-0.044,-0.033l-0.046,-0.033l-0.048,-0.032l-0.05,-0.032l-0.052,-0.032l-0.054,-0.031l-0.056,-0.03l-0.058,-0.03l-0.06,-0.029l-0.061,-0.028l-0.063,-0.028l-0.065,-0.027l-0.067,-0.026l-0.068,-0.025l-0.07,-0.025l-0.071,-0.023l-0.073,-0.022l-0.074,-0.021l-0.076,-0.02l-0.077,-0.019l-0.079,-0.018l-0.079,-0.017l-0.081,-0.016l-0.083,-0.014l-0.083,-0.013l-0.084,-0.012l-0.086,-0.01l-0.087,-0.01l-0.087,-0.007l-0.089,-0.007l-0.089,-0.005l-0.09,-0.003l-0.092,-0.003l-0.091,0l-0.093,0.001Z"/><path d="M9.552,9.801l0.085,0.003l0.084,0.005l0.083,0.006l0.081,0.009l0.081,0.01l0.08,0.012l0.078,0.015l0.078,0.016l0.076,0.018l0.074,0.019l0.074,0.022l0.071,0.024l0.071,0.025l0.069,0.028l0.068,0.029l0.066,0.031l0.064,0.034l0.063,0.035l0.061,0.037l0.06,0.039l0.057,0.041l0.056,0.042l0.054,0.045l0.053,0.047l0.05,0.048l0.048,0.051l0.047,0.052l0.044,0.054l0.042,0.056l0.041,0.058l0.037,0.06l0.036,0.061l0.032,0.062l0.03,0.063l0.028,0.064l0.025,0.066l0.023,0.066l0.02,0.067l0.017,0.068l0.015,0.07l0.013,0.069l0.01,0.071l0.008,0.072l0.005,0.072l0.003,0.073l0.001,0.074l-0.001,0.074l-0.004,0.075l-0.007,0.075l-0.008,0.076l-0.011,0.077l-0.013,0.077l-0.016,0.077l-0.017,0.078l-0.02,0.078l-0.022,0.079l-0.024,0.078l-0.027,0.079l-0.028,0.079l-0.031,0.079l-0.032,0.08l-0.035,0.079l-0.037,0.08l-0.039,0.079l-0.041,0.08l-0.043,0.079l-0.045,0.08l-0.047,0.079l-0.049,0.079l-0.051,0.079l-0.053,0.078l-0.055,0.078l-0.056,0.078l-0.059,0.078l-0.06,0.077l-0.063,0.077l-0.064,0.076l-0.066,0.076l-0.068,0.075l-0.069,0.075l-0.072,0.074l-0.073,0.073l-0.075,0.073l-0.076,0.072l-0.079,0.071l-0.08,0.071l-0.082,0.069l-0.083,0.069l-0.085,0.068l-0.087,0.067l-0.088,0.065l-0.09,0.065l-0.091,0.064l-0.093,0.063l-0.094,0.061l-0.095,0.059l-0.094,0.058l-0.095,0.055l-0.096,0.054l-0.095,0.052l-0.096,0.05l-0.096,0.048l-0.096,0.046l-0.096,0.045l-0.096,0.042l-0.097,0.041l-0.096,0.038l-0.096,0.037l-0.096,0.035l-0.095,0.033l-0.096,0.032l-0.095,0.029l-0.095,0.027l-0.095,0.026l-0.094,0.024l-0.094,0.022l-0.094,0.019l-0.092,0.018l-0.093,0.017l-0.092,0.014l-0.091,0.012l-0.091,0.011l-0.09,0.008l-0.089,0.007l-0.088,0.005l-0.088,0.003l-0.086,0.001l-0.086,-0.001l-0.085,-0.003l-0.084,-0.004l-0.083,-0.007l-0.082,-0.008l-0.081,-0.011l-0.079,-0.012l-0.079,-0.014l-0.077,-0.016l-0.076,-0.018l-0.075,-0.02l-0.073,-0.022l-0.072,-0.023l-0.071,-0.026l-0.069,-0.027l-0.067,-0.03l-0.066,-0.031l-0.065,-0.033l-0.063,-0.035l-0.061,-0.037l-0.059,-0.039l-0.058,-0.041l-0.056,-0.043l-0.054,-0.044l-0.052,-0.047l-0.05,-0.049l-0.049,-0.05l-0.046,-0.052l-0.045,-0.055l-0.042,-0.056l-0.04,-0.058l-0.038,-0.06l-0.035,-0.06l-0.033,-0.062l-0.03,-0.064l-0.028,-0.064l-0.025,-0.065l-0.022,-0.066l-0.02,-0.068l-0.018,-0.068l-0.015,-0.069l-0.012,-0.07l-0.011,-0.071l-0.008,-0.071l-0.005,-0.072l-0.003,-0.073l-0.001,-0.074l0.002,-0.074l0.004,-0.075l0.006,-0.076l0.009,-0.076l0.011,-0.076l0.013,-0.077l0.015,-0.078l0.018,-0.077l0.02,-0.079l0.022,-0.078l0.024,-0.079l0.026,-0.079l0.028,-0.079l0.031,-0.079l0.033,-0.079l0.035,-0.08l0.036,-0.079l0.039,-0.08l0.041,-0.079l0.043,-0.08l0.045,-0.079l0.047,-0.079l0.049,-0.079l0.051,-0.079l0.053,-0.079l0.055,-0.078l0.057,-0.078l0.058,-0.077l0.061,-0.078l0.062,-0.076l0.064,-0.077l0.066,-0.075l0.068,-0.076l0.07,-0.074l0.071,-0.074l0.073,-0.074l0.075,-0.073l0.077,-0.072l0.078,-0.071l0.08,-0.07l0.082,-0.07l0.083,-0.068l0.085,-0.068l0.087,-0.067l0.088,-0.066l0.09,-0.065l0.092,-0.063l0.093,-0.063l0.094,-0.061l0.094,-0.06l0.095,-0.057l0.095,-0.056l0.095,-0.053l0.096,-0.052l0.096,-0.05l0.095,-0.048l0.097,-0.047l0.096,-0.044l0.096,-0.042l0.096,-0.041l0.096,-0.039l0.096,-0.037l0.096,-0.035l0.096,-0.033l0.095,-0.031l0.096,-0.029l0.095,-0.028l0.094,-0.025l0.095,-0.024l0.094,-0.022l0.093,-0.02l0.093,-0.018l0.092,-0.016l0.092,-0.014l0.092,-0.013l0.09,-0.01l0.09,-0.009l0.089,-0.007l0.089,-0.004l0.087,-0.003l0.087,-0.001l0.086,0Zm-0.15,1l-0.066,0.003l-0.068,0.003l-0.069,0.006l-0.07,0.006l-0.071,0.008l-0.072,0.01l-0.073,0.012l-0.074,0.013l-0.074,0.014l-0.076,0.016l-0.076,0.018l-0.077,0.019l-0.078,0.021l-0.078,0.023l-0.079,0.024l-0.079,0.026l-0.08,0.028l-0.08,0.029l-0.081,0.031l-0.081,0.032l-0.081,0.035l-0.081,0.035l-0.081,0.038l-0.082,0.039l-0.081,0.041l-0.082,0.043l-0.081,0.044l-0.081,0.046l-0.082,0.047l-0.081,0.049l-0.08,0.051l-0.081,0.053l-0.08,0.053l-0.078,0.055l-0.077,0.055l-0.075,0.057l-0.074,0.057l-0.073,0.057l-0.071,0.059l-0.069,0.059l-0.068,0.06l-0.066,0.06l-0.065,0.061l-0.063,0.061l-0.062,0.062l-0.059,0.062l-0.059,0.062l-0.056,0.063l-0.055,0.063l-0.053,0.063l-0.051,0.063l-0.05,0.063l-0.048,0.064l-0.046,0.063l-0.044,0.063l-0.043,0.064l-0.041,0.063l-0.039,0.062l-0.037,0.063l-0.035,0.062l-0.033,0.062l-0.032,0.061l-0.03,0.061l-0.028,0.06l-0.026,0.06l-0.024,0.059l-0.022,0.058l-0.021,0.057l-0.019,0.056l-0.017,0.056l-0.015,0.054l-0.014,0.054l-0.012,0.052l-0.01,0.051l-0.008,0.05l-0.007,0.048l-0.005,0.048l-0.004,0.046l-0.003,0.044l-0.001,0.043l0.001,0.042l0.001,0.04l0.003,0.039l0.005,0.037l0.005,0.037l0.006,0.034l0.007,0.034l0.009,0.032l0.009,0.031l0.01,0.03l0.011,0.029l0.012,0.028l0.013,0.027l0.014,0.027l0.015,0.026l0.017,0.026l0.017,0.025l0.018,0.024l0.019,0.023l0.02,0.023l0.022,0.022l0.022,0.022l0.023,0.021l0.025,0.02l0.027,0.02l0.028,0.02l0.029,0.019l0.031,0.019l0.033,0.019l0.035,0.018l0.036,0.017l0.039,0.016l0.04,0.016l0.042,0.016l0.043,0.014l0.046,0.013l0.047,0.013l0.05,0.012l0.051,0.01l0.052,0.01l0.055,0.008l0.056,0.007l0.057,0.006l0.06,0.005l0.061,0.003l0.062,0.002l0.063,0.001l0.065,-0.001l0.067,-0.002l0.067,-0.004l0.069,-0.005l0.07,-0.007l0.071,-0.008l0.072,-0.01l0.073,-0.011l0.074,-0.013l0.075,-0.014l0.075,-0.017l0.077,-0.017l0.077,-0.02l0.077,-0.021l0.079,-0.022l0.079,-0.025l0.079,-0.026l0.08,-0.027l0.08,-0.029l0.08,-0.031l0.081,-0.033l0.081,-0.034l0.081,-0.036l0.082,-0.037l0.081,-0.04l0.082,-0.04l0.081,-0.043l0.081,-0.044l0.082,-0.046l0.081,-0.048l0.081,-0.049l0.081,-0.05l0.081,-0.053l0.079,-0.054l0.079,-0.054l0.077,-0.056l0.075,-0.056l0.074,-0.057l0.072,-0.058l0.071,-0.058l0.07,-0.059l0.068,-0.06l0.066,-0.06l0.065,-0.061l0.063,-0.061l0.061,-0.062l0.06,-0.062l0.058,-0.063l0.057,-0.062l0.054,-0.063l0.054,-0.063l0.051,-0.063l0.05,-0.064l0.047,-0.063l0.047,-0.064l0.044,-0.063l0.042,-0.063l0.041,-0.063l0.039,-0.063l0.037,-0.062l0.035,-0.063l0.034,-0.061l0.032,-0.062l0.029,-0.06l0.028,-0.061l0.026,-0.059l0.025,-0.059l0.022,-0.058l0.021,-0.057l0.018,-0.057l0.017,-0.055l0.016,-0.055l0.013,-0.053l0.012,-0.052l0.01,-0.051l0.009,-0.05l0.007,-0.049l0.005,-0.047l0.004,-0.046l0.002,-0.045l0.001,-0.043l0,-0.041l-0.002,-0.041l-0.003,-0.038l-0.004,-0.038l-0.005,-0.036l-0.007,-0.035l-0.007,-0.033l-0.008,-0.032l-0.009,-0.031l-0.011,-0.03l-0.011,-0.029l-0.012,-0.028l-0.013,-0.028l-0.014,-0.026l-0.015,-0.026l-0.016,-0.026l-0.018,-0.025l-0.018,-0.024l-0.019,-0.024l-0.02,-0.022l-0.021,-0.022l-0.022,-0.022l-0.024,-0.021l-0.025,-0.021l-0.026,-0.02l-0.028,-0.02l-0.03,-0.019l-0.031,-0.019l-0.033,-0.018l-0.034,-0.018l-0.037,-0.017l-0.038,-0.017l-0.04,-0.016l-0.042,-0.015l-0.044,-0.014l-0.045,-0.014l-0.048,-0.012l-0.049,-0.012l-0.051,-0.011l-0.053,-0.009l-0.054,-0.009l-0.056,-0.007l-0.058,-0.006l-0.059,-0.004l-0.061,-0.004l-0.062,-0.002l-0.064,0l-0.065,0Z"/><path d="M14.058,12.004l0.064,0.002l0.063,0.006l0.064,0.008l0.063,0.011l0.063,0.013l0.062,0.016l0.061,0.018l0.06,0.021l0.06,0.023l0.058,0.026l0.057,0.028l0.057,0.03l0.055,0.032l0.055,0.035l0.053,0.037l0.053,0.039l0.051,0.041l0.05,0.043l0.05,0.046l0.048,0.047l0.047,0.049l0.046,0.052l0.045,0.053l0.044,0.055l0.043,0.057l0.041,0.059l0.041,0.06l0.039,0.063l0.038,0.064l0.037,0.065l0.035,0.067l0.034,0.069l0.034,0.071l0.031,0.072l0.031,0.073l0.029,0.075l0.028,0.076l0.027,0.078l0.025,0.079l0.024,0.081l0.023,0.081l0.021,0.083l0.02,0.085l0.019,0.085l0.017,0.086l0.016,0.088l0.014,0.089l0.013,0.089l0.011,0.091l0.01,0.092l0.009,0.092l0.006,0.094l0.006,0.094l0.004,0.095l0.002,0.096l0.001,0.097l-0.001,0.098l-0.002,0.098l-0.004,0.099l-0.006,0.099l-0.007,0.1l-0.008,0.101l-0.011,0.101l-0.012,0.101l-0.014,0.102l-0.015,0.103l-0.017,0.102l-0.019,0.103l-0.02,0.103l-0.022,0.102l-0.024,0.101l-0.024,0.1l-0.027,0.099l-0.027,0.097l-0.029,0.097l-0.03,0.096l-0.031,0.094l-0.033,0.094l-0.034,0.092l-0.035,0.091l-0.037,0.089l-0.037,0.089l-0.039,0.087l-0.04,0.085l-0.04,0.085l-0.042,0.083l-0.043,0.081l-0.044,0.081l-0.045,0.078l-0.046,0.078l-0.047,0.075l-0.048,0.074l-0.048,0.073l-0.05,0.071l-0.05,0.069l-0.051,0.068l-0.052,0.066l-0.053,0.064l-0.053,0.062l-0.054,0.061l-0.055,0.059l-0.056,0.057l-0.056,0.055l-0.056,0.054l-0.058,0.051l-0.057,0.049l-0.059,0.048l-0.059,0.045l-0.059,0.044l-0.06,0.041l-0.06,0.04l-0.061,0.037l-0.061,0.035l-0.061,0.033l-0.062,0.031l-0.062,0.028l-0.062,0.027l-0.063,0.024l-0.062,0.021l-0.063,0.02l-0.063,0.017l-0.064,0.014l-0.063,0.013l-0.064,0.009l-0.063,0.008l-0.064,0.005l-0.064,0.002l-0.063,0l-0.064,-0.003l-0.063,-0.006l-0.064,-0.008l-0.063,-0.01l-0.063,-0.014l-0.062,-0.016l-0.061,-0.018l-0.061,-0.021l-0.059,-0.023l-0.058,-0.026l-0.058,-0.027l-0.056,-0.031l-0.056,-0.032l-0.054,-0.035l-0.054,-0.037l-0.052,-0.039l-0.051,-0.041l-0.051,-0.043l-0.049,-0.046l-0.048,-0.047l-0.047,-0.049l-0.046,-0.052l-0.045,-0.053l-0.044,-0.055l-0.043,-0.057l-0.041,-0.059l-0.041,-0.06l-0.039,-0.062l-0.038,-0.064l-0.037,-0.066l-0.035,-0.067l-0.035,-0.069l-0.033,-0.071l-0.032,-0.072l-0.03,-0.073l-0.03,-0.075l-0.028,-0.076l-0.026,-0.078l-0.026,-0.079l-0.024,-0.081l-0.022,-0.081l-0.022,-0.083l-0.019,-0.084l-0.019,-0.086l-0.017,-0.086l-0.016,-0.088l-0.014,-0.088l-0.013,-0.09l-0.011,-0.091l-0.01,-0.092l-0.009,-0.092l-0.007,-0.094l-0.005,-0.094l-0.004,-0.095l-0.002,-0.096l-0.001,-0.097l0.001,-0.097l0.002,-0.099l0.004,-0.098l0.005,-0.1l0.007,-0.1l0.009,-0.1l0.011,-0.101l0.012,-0.102l0.013,-0.102l0.016,-0.102l0.017,-0.103l0.019,-0.103l0.02,-0.103l0.022,-0.102l0.023,-0.101l0.025,-0.1l0.026,-0.098l0.028,-0.098l0.029,-0.097l0.03,-0.096l0.031,-0.094l0.033,-0.093l0.034,-0.092l0.035,-0.091l0.036,-0.09l0.038,-0.088l0.039,-0.088l0.039,-0.085l0.041,-0.085l0.042,-0.083l0.043,-0.081l0.044,-0.08l0.045,-0.079l0.046,-0.077l0.047,-0.076l0.047,-0.074l0.049,-0.073l0.05,-0.071l0.05,-0.069l0.051,-0.067l0.052,-0.066l0.053,-0.065l0.053,-0.062l0.054,-0.061l0.055,-0.059l0.055,-0.057l0.056,-0.055l0.057,-0.053l0.057,-0.052l0.058,-0.049l0.059,-0.048l0.058,-0.045l0.06,-0.044l0.06,-0.041l0.06,-0.039l0.061,-0.038l0.061,-0.035l0.061,-0.033l0.062,-0.031l0.062,-0.028l0.062,-0.026l0.062,-0.024l0.063,-0.022l0.063,-0.019l0.063,-0.018l0.064,-0.014l0.063,-0.012l0.063,-0.01l0.064,-0.008l0.064,-0.004l0.063,-0.003l0.064,0.001Zm-0.071,1l-0.025,0.002l-0.025,0.003l-0.026,0.004l-0.027,0.005l-0.028,0.007l-0.028,0.007l-0.03,0.01l-0.031,0.01l-0.031,0.012l-0.033,0.014l-0.033,0.015l-0.034,0.017l-0.035,0.019l-0.036,0.021l-0.037,0.022l-0.037,0.025l-0.038,0.026l-0.038,0.028l-0.039,0.03l-0.039,0.032l-0.039,0.033l-0.04,0.036l-0.04,0.038l-0.04,0.039l-0.04,0.041l-0.041,0.044l-0.04,0.045l-0.04,0.046l-0.04,0.049l-0.039,0.05l-0.04,0.053l-0.039,0.053l-0.039,0.056l-0.038,0.057l-0.038,0.059l-0.037,0.06l-0.037,0.062l-0.036,0.064l-0.036,0.065l-0.035,0.067l-0.034,0.068l-0.034,0.069l-0.033,0.071l-0.032,0.072l-0.031,0.073l-0.03,0.075l-0.03,0.076l-0.028,0.077l-0.027,0.078l-0.027,0.08l-0.025,0.08l-0.025,0.082l-0.023,0.083l-0.022,0.084l-0.021,0.084l-0.02,0.086l-0.018,0.087l-0.018,0.087l-0.016,0.088l-0.014,0.087l-0.014,0.087l-0.011,0.087l-0.01,0.086l-0.009,0.085l-0.008,0.085l-0.006,0.085l-0.004,0.083l-0.004,0.083l-0.002,0.082l0,0.082l0.001,0.08l0.001,0.08l0.004,0.079l0.004,0.078l0.006,0.077l0.007,0.075l0.008,0.075l0.009,0.074l0.011,0.072l0.011,0.071l0.013,0.07l0.013,0.069l0.015,0.067l0.015,0.066l0.017,0.065l0.017,0.063l0.019,0.061l0.019,0.06l0.02,0.058l0.021,0.057l0.021,0.055l0.022,0.053l0.023,0.051l0.023,0.05l0.024,0.048l0.024,0.046l0.025,0.044l0.025,0.042l0.025,0.04l0.026,0.038l0.026,0.037l0.025,0.034l0.026,0.032l0.026,0.031l0.025,0.028l0.026,0.027l0.025,0.024l0.025,0.023l0.024,0.021l0.025,0.02l0.023,0.018l0.024,0.016l0.023,0.014l0.023,0.014l0.022,0.012l0.022,0.01l0.022,0.01l0.022,0.009l0.021,0.007l0.022,0.007l0.022,0.005l0.023,0.005l0.023,0.004l0.022,0.003l0.023,0.002l0.023,0.001l0.023,0l0.024,-0.001l0.025,-0.002l0.025,-0.003l0.026,-0.004l0.027,-0.005l0.028,-0.006l0.028,-0.008l0.03,-0.009l0.031,-0.011l0.031,-0.012l0.033,-0.014l0.033,-0.015l0.034,-0.017l0.035,-0.019l0.036,-0.021l0.037,-0.022l0.037,-0.024l0.038,-0.027l0.038,-0.028l0.039,-0.03l0.039,-0.031l0.039,-0.034l0.04,-0.036l0.04,-0.037l0.04,-0.04l0.04,-0.041l0.04,-0.043l0.04,-0.045l0.04,-0.047l0.04,-0.049l0.04,-0.05l0.039,-0.052l0.04,-0.054l0.038,-0.056l0.039,-0.057l0.038,-0.059l0.037,-0.06l0.037,-0.062l0.036,-0.064l0.036,-0.065l0.035,-0.066l0.034,-0.068l0.034,-0.07l0.033,-0.07l0.032,-0.073l0.031,-0.073l0.03,-0.075l0.029,-0.076l0.029,-0.077l0.027,-0.078l0.027,-0.08l0.025,-0.08l0.024,-0.082l0.024,-0.083l0.022,-0.083l0.021,-0.085l0.02,-0.086l0.018,-0.086l0.018,-0.088l0.016,-0.088l0.014,-0.087l0.013,-0.087l0.012,-0.087l0.01,-0.086l0.009,-0.085l0.007,-0.085l0.006,-0.084l0.005,-0.084l0.003,-0.083l0.002,-0.082l0.001,-0.081l-0.001,-0.081l-0.002,-0.08l-0.003,-0.079l-0.004,-0.077l-0.006,-0.077l-0.007,-0.076l-0.008,-0.075l-0.009,-0.074l-0.011,-0.072l-0.011,-0.071l-0.013,-0.07l-0.013,-0.069l-0.015,-0.067l-0.016,-0.066l-0.016,-0.064l-0.018,-0.063l-0.018,-0.062l-0.019,-0.06l-0.02,-0.058l-0.021,-0.057l-0.021,-0.055l-0.023,-0.053l-0.022,-0.051l-0.024,-0.05l-0.023,-0.048l-0.025,-0.046l-0.024,-0.044l-0.025,-0.042l-0.026,-0.04l-0.025,-0.038l-0.026,-0.036l-0.026,-0.035l-0.025,-0.032l-0.026,-0.03l-0.026,-0.029l-0.025,-0.026l-0.025,-0.025l-0.025,-0.023l-0.025,-0.021l-0.024,-0.02l-0.024,-0.017l-0.023,-0.017l-0.023,-0.014l-0.023,-0.013l-0.022,-0.012l-0.022,-0.011l-0.022,-0.01l-0.022,-0.008l-0.022,-0.008l-0.022,-0.006l-0.022,-0.006l-0.022,-0.005l-0.023,-0.004l-0.022,-0.003l-0.023,-0.001l-0.023,-0.001l-0.024,-0.001l-0.023,0.001Z"/><path d="M8.678,0.948l0.057,0.001l0.056,0.003l0.058,0.004l0.057,0.004l0.058,0.006l0.059,0.008l0.059,0.008l0.059,0.009l0.06,0.011l0.059,0.011l0.061,0.013l0.06,0.014l0.061,0.015l0.061,0.016l0.061,0.017l0.061,0.019l0.061,0.019l0.062,0.021l0.062,0.022l0.061,0.023l0.062,0.024l0.062,0.025l0.061,0.027l0.062,0.027l0.062,0.029l0.061,0.03l0.062,0.031l0.061,0.032l0.061,0.034l0.06,0.034l0.059,0.034l0.058,0.036l0.057,0.036l0.056,0.037l0.055,0.037l0.055,0.038l0.053,0.039l0.052,0.039l0.051,0.04l0.051,0.04l0.049,0.041l0.048,0.041l0.047,0.042l0.046,0.042l0.045,0.043l0.044,0.043l0.043,0.043l0.042,0.044l0.04,0.044l0.04,0.045l0.038,0.045l0.037,0.045l0.036,0.045l0.035,0.046l0.034,0.045l0.032,0.046l0.031,0.047l0.03,0.046l0.029,0.046l0.027,0.047l0.026,0.046l0.025,0.047l0.023,0.047l0.023,0.046l0.02,0.047l0.02,0.047l0.018,0.047l0.017,0.046l0.015,0.047l0.014,0.046l0.013,0.046l0.011,0.046l0.01,0.046l0.008,0.046l0.007,0.046l0.006,0.045l0.004,0.045l0.002,0.045l0.001,0.044l0,0.044l-0.002,0.044l-0.004,0.043l-0.005,0.043l-0.007,0.043l-0.008,0.042l-0.01,0.042l-0.011,0.041l-0.013,0.041l-0.015,0.04l-0.016,0.039l-0.018,0.039l-0.02,0.039l-0.021,0.038l-0.023,0.036l-0.024,0.036l-0.025,0.034l-0.027,0.034l-0.028,0.032l-0.029,0.031l-0.031,0.03l-0.031,0.029l-0.033,0.029l-0.034,0.027l-0.036,0.025l-0.036,0.025l-0.038,0.024l-0.038,0.023l-0.04,0.021l-0.041,0.021l-0.041,0.019l-0.043,0.019l-0.044,0.017l-0.044,0.016l-0.046,0.015l-0.046,0.014l-0.048,0.013l-0.048,0.012l-0.049,0.01l-0.049,0.01l-0.051,0.009l-0.051,0.007l-0.052,0.006l-0.053,0.005l-0.053,0.004l-0.054,0.003l-0.054,0.002l-0.055,0.001l-0.056,0l-0.056,-0.002l-0.057,-0.002l-0.057,-0.004l-0.058,-0.005l-0.058,-0.006l-0.058,-0.007l-0.059,-0.008l-0.06,-0.01l-0.059,-0.01l-0.06,-0.012l-0.06,-0.013l-0.061,-0.013l-0.06,-0.015l-0.061,-0.017l-0.061,-0.017l-0.062,-0.018l-0.061,-0.02l-0.062,-0.021l-0.061,-0.021l-0.062,-0.023l-0.062,-0.025l-0.061,-0.025l-0.062,-0.026l-0.062,-0.028l-0.061,-0.029l-0.062,-0.03l-0.061,-0.031l-0.062,-0.032l-0.06,-0.033l-0.06,-0.034l-0.059,-0.035l-0.058,-0.035l-0.057,-0.036l-0.057,-0.037l-0.055,-0.037l-0.054,-0.038l-0.053,-0.039l-0.053,-0.039l-0.051,-0.04l-0.05,-0.04l-0.05,-0.041l-0.048,-0.042l-0.047,-0.041l-0.046,-0.043l-0.045,-0.042l-0.044,-0.043l-0.043,-0.044l-0.041,-0.044l-0.041,-0.044l-0.04,-0.044l-0.038,-0.045l-0.037,-0.045l-0.036,-0.046l-0.035,-0.045l-0.033,-0.046l-0.033,-0.046l-0.031,-0.046l-0.03,-0.046l-0.028,-0.047l-0.028,-0.046l-0.026,-0.047l-0.024,-0.047l-0.024,-0.046l-0.022,-0.047l-0.021,-0.047l-0.019,-0.046l-0.019,-0.047l-0.016,-0.047l-0.016,-0.046l-0.014,-0.047l-0.013,-0.046l-0.011,-0.046l-0.01,-0.046l-0.008,-0.046l-0.007,-0.045l-0.005,-0.045l-0.004,-0.045l-0.003,-0.045l-0.001,-0.045l0.001,-0.044l0.002,-0.043l0.003,-0.044l0.006,-0.043l0.006,-0.042l0.008,-0.042l0.01,-0.042l0.012,-0.041l0.013,-0.041l0.015,-0.04l0.016,-0.04l0.018,-0.039l0.019,-0.038l0.022,-0.038l0.022,-0.037l0.024,-0.035l0.026,-0.035l0.026,-0.033l0.028,-0.032l0.029,-0.032l0.031,-0.03l0.032,-0.029l0.033,-0.028l0.034,-0.027l0.035,-0.026l0.037,-0.025l0.037,-0.024l0.039,-0.022l0.039,-0.022l0.041,-0.02l0.042,-0.02l0.043,-0.018l0.043,-0.017l0.045,-0.017l0.045,-0.015l0.047,-0.014l0.047,-0.013l0.048,-0.011l0.049,-0.011l0.05,-0.01l0.05,-0.008l0.051,-0.007l0.052,-0.007l0.053,-0.005l0.053,-0.004l0.054,-0.003l0.055,-0.002l0.055,-0.001l0.055,0.001Zm-0.087,1l-0.033,0.001l-0.033,0.002l-0.032,0.002l-0.03,0.003l-0.03,0.004l-0.028,0.004l-0.027,0.005l-0.026,0.005l-0.025,0.005l-0.023,0.006l-0.022,0.006l-0.021,0.006l-0.02,0.006l-0.018,0.007l-0.016,0.006l-0.016,0.007l-0.014,0.007l-0.012,0.006l-0.012,0.006l-0.01,0.006l-0.009,0.006l-0.008,0.005l-0.007,0.005l-0.006,0.005l-0.005,0.004l-0.004,0.004l-0.003,0.004l-0.003,0.003l-0.003,0.002l-0.001,0.003l-0.002,0.002l-0.001,0.002l-0.002,0.002l-0.001,0.002l-0.003,0.007l-0.002,0.006l-0.002,0.007l-0.001,0.005l-0.001,0.005l-0.001,0.007l0,0.007l-0.001,0.009l0,0.009l0.001,0.011l0,0.012l0.001,0.013l0.002,0.014l0.002,0.015l0.003,0.017l0.004,0.017l0.005,0.019l0.005,0.02l0.006,0.02l0.008,0.022l0.008,0.023l0.009,0.023l0.01,0.025l0.011,0.025l0.013,0.026l0.013,0.026l0.014,0.027l0.016,0.028l0.017,0.028l0.017,0.029l0.019,0.029l0.02,0.03l0.021,0.03l0.022,0.03l0.024,0.03l0.024,0.031l0.025,0.031l0.027,0.031l0.027,0.031l0.029,0.031l0.03,0.032l0.03,0.031l0.032,0.031l0.033,0.031l0.034,0.031l0.034,0.031l0.036,0.03l0.037,0.03l0.037,0.031l0.039,0.029l0.039,0.03l0.04,0.029l0.041,0.029l0.043,0.028l0.042,0.029l0.044,0.027l0.045,0.027l0.045,0.027l0.046,0.026l0.047,0.026l0.047,0.025l0.048,0.024l0.047,0.023l0.047,0.022l0.047,0.021l0.047,0.02l0.047,0.019l0.047,0.018l0.047,0.018l0.046,0.016l0.046,0.016l0.046,0.014l0.046,0.014l0.045,0.013l0.045,0.012l0.044,0.011l0.044,0.01l0.044,0.009l0.043,0.008l0.042,0.008l0.042,0.007l0.041,0.005l0.041,0.005l0.039,0.004l0.039,0.004l0.039,0.002l0.037,0.002l0.037,0.001l0.035,0l0.035,0l0.034,-0.002l0.033,-0.001l0.031,-0.003l0.031,-0.003l0.029,-0.003l0.029,-0.005l0.027,-0.004l0.026,-0.005l0.024,-0.005l0.024,-0.006l0.022,-0.006l0.021,-0.006l0.019,-0.007l0.018,-0.006l0.017,-0.007l0.015,-0.007l0.014,-0.006l0.013,-0.007l0.011,-0.006l0.011,-0.006l0.009,-0.006l0.008,-0.005l0.006,-0.005l0.006,-0.005l0.005,-0.004l0.004,-0.004l0.004,-0.003l0.003,-0.003l0.002,-0.003l0.002,-0.002l0.001,-0.002l0.002,-0.002l0.001,-0.003l0.001,-0.002l0.002,-0.002l0.001,-0.002l0.001,-0.003l0.001,-0.002l0,-0.003l0.001,-0.003l0.001,-0.005l0.001,-0.004l0.001,-0.006l0.001,-0.006l0.001,-0.008l0,-0.008l0,-0.01l0,-0.01l-0.001,-0.012l-0.001,-0.013l-0.002,-0.014l-0.002,-0.016l-0.003,-0.016l-0.004,-0.018l-0.004,-0.019l-0.006,-0.019l-0.006,-0.021l-0.007,-0.022l-0.008,-0.022l-0.01,-0.024l-0.01,-0.024l-0.011,-0.025l-0.012,-0.026l-0.014,-0.027l-0.014,-0.027l-0.015,-0.028l-0.017,-0.028l-0.018,-0.029l-0.019,-0.029l-0.02,-0.029l-0.021,-0.03l-0.022,-0.031l-0.023,-0.03l-0.024,-0.031l-0.026,-0.031l-0.026,-0.031l-0.028,-0.031l-0.029,-0.031l-0.029,-0.031l-0.031,-0.031l-0.032,-0.031l-0.032,-0.031l-0.034,-0.031l-0.035,-0.031l-0.036,-0.031l-0.036,-0.03l-0.038,-0.03l-0.038,-0.03l-0.04,-0.029l-0.04,-0.03l-0.041,-0.029l-0.042,-0.028l-0.043,-0.028l-0.044,-0.028l-0.044,-0.027l-0.046,-0.026l-0.046,-0.027l-0.047,-0.025l-0.047,-0.025l-0.047,-0.024l-0.047,-0.023l-0.048,-0.022l-0.047,-0.021l-0.047,-0.02l-0.047,-0.02l-0.047,-0.018l-0.046,-0.017l-0.047,-0.017l-0.046,-0.015l-0.046,-0.015l-0.045,-0.014l-0.046,-0.013l-0.044,-0.011l-0.045,-0.011l-0.044,-0.01l-0.043,-0.01l-0.043,-0.008l-0.043,-0.007l-0.041,-0.007l-0.042,-0.006l-0.04,-0.005l-0.04,-0.004l-0.039,-0.003l-0.038,-0.003l-0.038,-0.001l-0.036,-0.001l-0.036,-0.001l-0.035,0.001Z"/><path d="M14.708,2.765l0.037,0.001l0.037,0.002l0.038,0.003l0.037,0.003l0.037,0.005l0.038,0.005l0.037,0.006l0.037,0.007l0.038,0.008l0.037,0.008l0.038,0.009l0.037,0.011l0.038,0.011l0.037,0.012l0.038,0.013l0.037,0.013l0.037,0.015l0.037,0.015l0.037,0.017l0.036,0.017l0.037,0.018l0.036,0.019l0.036,0.02l0.035,0.02l0.035,0.021l0.034,0.022l0.033,0.022l0.033,0.023l0.032,0.023l0.031,0.024l0.031,0.025l0.03,0.025l0.029,0.025l0.029,0.026l0.027,0.027l0.028,0.027l0.026,0.027l0.026,0.028l0.025,0.028l0.024,0.029l0.024,0.029l0.022,0.03l0.022,0.029l0.022,0.031l0.02,0.03l0.02,0.031l0.019,0.031l0.018,0.031l0.018,0.032l0.016,0.032l0.016,0.032l0.015,0.032l0.014,0.033l0.014,0.033l0.012,0.032l0.012,0.034l0.011,0.033l0.01,0.033l0.009,0.034l0.009,0.033l0.007,0.034l0.007,0.034l0.005,0.033l0.005,0.034l0.004,0.034l0.003,0.034l0.003,0.034l0.001,0.033l0,0.034l0,0.034l-0.001,0.034l-0.003,0.033l-0.003,0.034l-0.004,0.033l-0.005,0.033l-0.007,0.033l-0.007,0.033l-0.008,0.033l-0.009,0.033l-0.01,0.032l-0.011,0.032l-0.011,0.032l-0.013,0.032l-0.014,0.031l-0.015,0.031l-0.016,0.031l-0.017,0.03l-0.018,0.03l-0.018,0.029l-0.019,0.028l-0.02,0.028l-0.021,0.027l-0.021,0.026l-0.022,0.025l-0.023,0.025l-0.024,0.024l-0.024,0.024l-0.025,0.022l-0.025,0.022l-0.026,0.021l-0.027,0.021l-0.027,0.02l-0.028,0.019l-0.028,0.018l-0.029,0.018l-0.03,0.017l-0.03,0.016l-0.03,0.015l-0.031,0.015l-0.031,0.014l-0.032,0.013l-0.032,0.012l-0.033,0.012l-0.033,0.011l-0.033,0.01l-0.034,0.009l-0.034,0.009l-0.034,0.007l-0.035,0.007l-0.035,0.007l-0.035,0.005l-0.036,0.005l-0.035,0.003l-0.036,0.003l-0.037,0.003l-0.036,0.001l-0.037,0.001l-0.036,-0.001l-0.037,-0.001l-0.037,-0.002l-0.037,-0.002l-0.038,-0.004l-0.037,-0.004l-0.037,-0.005l-0.038,-0.006l-0.037,-0.007l-0.038,-0.008l-0.037,-0.008l-0.038,-0.01l-0.037,-0.01l-0.038,-0.011l-0.037,-0.012l-0.037,-0.013l-0.038,-0.014l-0.037,-0.014l-0.037,-0.016l-0.037,-0.016l-0.036,-0.017l-0.037,-0.018l-0.036,-0.019l-0.036,-0.02l-0.035,-0.02l-0.035,-0.021l-0.034,-0.022l-0.033,-0.022l-0.033,-0.023l-0.032,-0.023l-0.031,-0.024l-0.031,-0.025l-0.03,-0.025l-0.029,-0.025l-0.029,-0.027l-0.027,-0.026l-0.028,-0.027l-0.026,-0.027l-0.026,-0.028l-0.025,-0.029l-0.024,-0.028l-0.024,-0.029l-0.022,-0.03l-0.022,-0.03l-0.022,-0.03l-0.02,-0.03l-0.02,-0.031l-0.019,-0.031l-0.018,-0.032l-0.018,-0.031l-0.016,-0.032l-0.016,-0.032l-0.015,-0.033l-0.014,-0.032l-0.014,-0.033l-0.012,-0.033l-0.012,-0.033l-0.011,-0.033l-0.01,-0.033l-0.009,-0.034l-0.008,-0.033l-0.008,-0.034l-0.007,-0.034l-0.005,-0.034l-0.005,-0.033l-0.004,-0.034l-0.003,-0.034l-0.003,-0.034l-0.001,-0.034l0,-0.034l0,-0.033l0.002,-0.034l0.002,-0.033l0.003,-0.034l0.004,-0.033l0.006,-0.034l0.006,-0.033l0.007,-0.033l0.008,-0.032l0.009,-0.033l0.01,-0.032l0.011,-0.032l0.012,-0.032l0.012,-0.032l0.014,-0.031l0.015,-0.031l0.016,-0.031l0.017,-0.03l0.018,-0.03l0.018,-0.029l0.019,-0.028l0.02,-0.028l0.021,-0.027l0.021,-0.026l0.023,-0.025l0.022,-0.025l0.024,-0.024l0.024,-0.024l0.025,-0.022l0.025,-0.022l0.026,-0.022l0.027,-0.02l0.027,-0.02l0.028,-0.019l0.029,-0.018l0.028,-0.018l0.03,-0.017l0.03,-0.016l0.03,-0.015l0.031,-0.015l0.031,-0.014l0.032,-0.013l0.032,-0.012l0.033,-0.012l0.033,-0.011l0.033,-0.01l0.034,-0.009l0.034,-0.009l0.034,-0.008l0.035,-0.007l0.035,-0.006l0.035,-0.005l0.036,-0.005l0.036,-0.004l0.036,-0.003l0.036,-0.002l0.036,-0.001l0.037,-0.001l0.036,0Zm-0.046,1l-0.014,0.001l-0.013,0.001l-0.014,0.001l-0.013,0.001l-0.013,0.002l-0.012,0.002l-0.012,0.002l-0.012,0.002l-0.011,0.003l-0.011,0.003l-0.011,0.003l-0.01,0.003l-0.01,0.003l-0.009,0.003l-0.009,0.004l-0.009,0.003l-0.008,0.004l-0.008,0.004l-0.007,0.003l-0.007,0.004l-0.006,0.004l-0.007,0.003l-0.005,0.004l-0.006,0.004l-0.005,0.004l-0.004,0.003l-0.005,0.004l-0.004,0.003l-0.004,0.004l-0.003,0.003l-0.004,0.004l-0.003,0.003l-0.003,0.004l-0.003,0.003l-0.002,0.003l-0.003,0.004l-0.002,0.004l-0.003,0.003l-0.002,0.004l-0.002,0.004l-0.003,0.005l-0.002,0.004l-0.001,0.004l-0.002,0.004l-0.001,0.004l-0.002,0.004l-0.001,0.004l-0.001,0.005l-0.002,0.004l-0.001,0.005l0,0.005l-0.001,0.005l-0.001,0.005l0,0.006l-0.001,0.006l0,0.006l0,0.007l0,0.006l0,0.008l0.001,0.007l0,0.008l0.001,0.008l0.002,0.009l0.001,0.008l0.002,0.009l0.002,0.01l0.002,0.009l0.003,0.01l0.003,0.011l0.004,0.01l0.003,0.011l0.005,0.011l0.004,0.011l0.005,0.011l0.005,0.011l0.006,0.012l0.006,0.012l0.007,0.012l0.006,0.011l0.008,0.012l0.008,0.012l0.008,0.013l0.008,0.012l0.009,0.012l0.01,0.012l0.009,0.012l0.011,0.012l0.01,0.012l0.011,0.012l0.012,0.012l0.012,0.012l0.012,0.012l0.013,0.011l0.013,0.012l0.013,0.011l0.014,0.011l0.014,0.011l0.015,0.011l0.015,0.01l0.016,0.01l0.015,0.011l0.017,0.009l0.016,0.01l0.018,0.009l0.017,0.01l0.017,0.008l0.017,0.008l0.018,0.008l0.017,0.007l0.017,0.007l0.017,0.006l0.017,0.006l0.017,0.005l0.017,0.005l0.016,0.005l0.017,0.004l0.017,0.004l0.016,0.003l0.016,0.003l0.016,0.003l0.016,0.002l0.016,0.002l0.015,0.001l0.016,0.001l0.015,0.001l0.015,0l0.014,0l0.015,0l0.014,0l0.013,-0.001l0.014,-0.001l0.013,-0.002l0.013,-0.001l0.012,-0.002l0.012,-0.002l0.012,-0.003l0.011,-0.002l0.011,-0.003l0.011,-0.003l0.01,-0.003l0.01,-0.003l0.009,-0.004l0.009,-0.003l0.009,-0.004l0.008,-0.003l0.008,-0.004l0.007,-0.004l0.007,-0.003l0.007,-0.004l0.006,-0.004l0.005,-0.003l0.006,-0.004l0.005,-0.004l0.005,-0.003l0.004,-0.004l0.004,-0.004l0.004,-0.003l0.004,-0.004l0.003,-0.003l0.003,-0.003l0.003,-0.004l0.003,-0.003l0.002,-0.004l0.003,-0.003l0.002,-0.004l0.003,-0.004l0.002,-0.004l0.002,-0.004l0.003,-0.004l0.002,-0.004l0.001,-0.004l0.002,-0.004l0.002,-0.004l0.001,-0.004l0.001,-0.005l0.002,-0.004l0.001,-0.004l0.001,-0.005l0.001,-0.005l0,-0.005l0.001,-0.006l0.001,-0.005l0,-0.006l0,-0.006l0,-0.007l0,-0.007l0,-0.007l-0.001,-0.007l0,-0.008l-0.001,-0.008l-0.001,-0.009l-0.002,-0.009l-0.002,-0.009l-0.002,-0.009l-0.002,-0.01l-0.003,-0.01l-0.003,-0.01l-0.003,-0.01l-0.004,-0.011l-0.004,-0.011l-0.005,-0.011l-0.005,-0.011l-0.005,-0.012l-0.006,-0.011l-0.006,-0.012l-0.006,-0.012l-0.007,-0.012l-0.008,-0.012l-0.007,-0.012l-0.009,-0.012l-0.008,-0.012l-0.009,-0.012l-0.01,-0.012l-0.009,-0.012l-0.011,-0.013l-0.01,-0.012l-0.011,-0.011l-0.012,-0.012l-0.012,-0.012l-0.012,-0.012l-0.013,-0.011l-0.013,-0.012l-0.013,-0.011l-0.014,-0.011l-0.014,-0.011l-0.015,-0.011l-0.015,-0.01l-0.015,-0.011l-0.016,-0.01l-0.017,-0.01l-0.016,-0.009l-0.017,-0.01l-0.018,-0.009l-0.017,-0.008l-0.017,-0.008l-0.017,-0.008l-0.018,-0.007l-0.017,-0.007l-0.017,-0.006l-0.017,-0.006l-0.017,-0.006l-0.017,-0.005l-0.016,-0.004l-0.017,-0.004l-0.016,-0.004l-0.017,-0.003l-0.016,-0.003l-0.016,-0.003l-0.016,-0.002l-0.016,-0.002l-0.015,-0.001l-0.016,-0.002l-0.015,0l-0.015,-0.001l-0.014,0l-0.015,0Z"/><path d="M17.492,5.625l0.037,0.001l0.037,0.001l0.037,0.003l0.037,0.004l0.038,0.004l0.037,0.005l0.037,0.006l0.038,0.007l0.037,0.008l0.038,0.008l0.037,0.01l0.038,0.01l0.037,0.011l0.038,0.012l0.037,0.013l0.037,0.013l0.037,0.015l0.037,0.015l0.037,0.017l0.037,0.017l0.036,0.018l0.037,0.019l0.035,0.02l0.036,0.02l0.034,0.021l0.034,0.022l0.034,0.022l0.032,0.023l0.032,0.023l0.032,0.024l0.03,0.025l0.03,0.025l0.03,0.025l0.028,0.026l0.028,0.027l0.027,0.027l0.027,0.027l0.025,0.028l0.025,0.028l0.025,0.029l0.023,0.029l0.023,0.03l0.022,0.03l0.021,0.03l0.021,0.03l0.02,0.031l0.018,0.031l0.019,0.031l0.017,0.032l0.017,0.032l0.016,0.032l0.015,0.032l0.014,0.033l0.013,0.033l0.013,0.033l0.011,0.033l0.011,0.033l0.01,0.033l0.01,0.034l0.008,0.033l0.007,0.034l0.007,0.034l0.006,0.034l0.005,0.033l0.004,0.034l0.003,0.034l0.002,0.034l0.001,0.034l0.001,0.033l-0.001,0.034l-0.001,0.034l-0.002,0.033l-0.004,0.034l-0.004,0.033l-0.005,0.033l-0.006,0.034l-0.007,0.032l-0.008,0.033l-0.009,0.033l-0.01,0.032l-0.011,0.032l-0.012,0.032l-0.013,0.032l-0.014,0.031l-0.015,0.031l-0.016,0.031l-0.016,0.03l-0.018,0.03l-0.019,0.029l-0.019,0.028l-0.02,0.028l-0.02,0.027l-0.022,0.026l-0.022,0.025l-0.023,0.025l-0.023,0.024l-0.025,0.024l-0.024,0.022l-0.026,0.022l-0.026,0.022l-0.027,0.02l-0.027,0.02l-0.028,0.019l-0.028,0.018l-0.029,0.018l-0.029,0.017l-0.03,0.016l-0.031,0.015l-0.03,0.015l-0.032,0.014l-0.032,0.013l-0.032,0.012l-0.032,0.012l-0.033,0.011l-0.034,0.01l-0.033,0.009l-0.034,0.009l-0.035,0.008l-0.034,0.007l-0.035,0.006l-0.036,0.005l-0.035,0.005l-0.036,0.004l-0.036,0.003l-0.036,0.002l-0.037,0.001l-0.036,0.001l-0.037,-0.001l-0.037,-0.001l-0.037,-0.001l-0.037,-0.003l-0.037,-0.004l-0.038,-0.004l-0.037,-0.005l-0.037,-0.006l-0.038,-0.007l-0.037,-0.008l-0.038,-0.008l-0.037,-0.01l-0.038,-0.01l-0.037,-0.011l-0.038,-0.012l-0.037,-0.013l-0.037,-0.013l-0.037,-0.015l-0.037,-0.015l-0.037,-0.017l-0.037,-0.017l-0.036,-0.018l-0.037,-0.019l-0.035,-0.02l-0.036,-0.02l-0.034,-0.021l-0.034,-0.022l-0.034,-0.022l-0.032,-0.023l-0.032,-0.023l-0.032,-0.024l-0.03,-0.025l-0.03,-0.025l-0.029,-0.025l-0.029,-0.026l-0.028,-0.027l-0.027,-0.027l-0.027,-0.027l-0.025,-0.028l-0.025,-0.028l-0.025,-0.029l-0.023,-0.029l-0.023,-0.03l-0.022,-0.029l-0.021,-0.031l-0.021,-0.03l-0.019,-0.031l-0.019,-0.031l-0.019,-0.031l-0.017,-0.032l-0.017,-0.032l-0.015,-0.032l-0.015,-0.032l-0.015,-0.033l-0.013,-0.033l-0.013,-0.033l-0.011,-0.033l-0.011,-0.033l-0.01,-0.033l-0.01,-0.034l-0.008,-0.033l-0.007,-0.034l-0.007,-0.034l-0.006,-0.033l-0.005,-0.034l-0.004,-0.034l-0.003,-0.034l-0.002,-0.034l-0.001,-0.034l-0.001,-0.033l0.001,-0.034l0.001,-0.034l0.002,-0.033l0.004,-0.034l0.004,-0.033l0.005,-0.033l0.006,-0.033l0.007,-0.033l0.008,-0.033l0.009,-0.033l0.01,-0.032l0.011,-0.032l0.012,-0.032l0.013,-0.032l0.014,-0.031l0.015,-0.031l0.016,-0.031l0.017,-0.03l0.017,-0.03l0.019,-0.029l0.019,-0.028l0.02,-0.028l0.02,-0.027l0.022,-0.026l0.022,-0.025l0.023,-0.025l0.023,-0.024l0.025,-0.024l0.024,-0.022l0.026,-0.022l0.026,-0.022l0.027,-0.02l0.027,-0.02l0.028,-0.019l0.028,-0.018l0.029,-0.018l0.029,-0.017l0.03,-0.016l0.031,-0.015l0.031,-0.015l0.031,-0.014l0.032,-0.013l0.032,-0.012l0.032,-0.012l0.033,-0.011l0.034,-0.01l0.033,-0.009l0.034,-0.009l0.035,-0.007l0.035,-0.007l0.035,-0.007l0.035,-0.005l0.035,-0.005l0.036,-0.003l0.036,-0.003l0.036,-0.003l0.037,-0.001l0.036,-0.001l0.037,0.001Zm-0.046,1l-0.014,0l-0.014,0.001l-0.013,0.001l-0.013,0.002l-0.013,0.001l-0.013,0.002l-0.012,0.002l-0.012,0.003l-0.011,0.002l-0.011,0.003l-0.01,0.003l-0.011,0.003l-0.009,0.003l-0.01,0.003l-0.009,0.004l-0.008,0.003l-0.008,0.004l-0.008,0.004l-0.008,0.003l-0.006,0.004l-0.007,0.004l-0.006,0.004l-0.006,0.003l-0.005,0.004l-0.005,0.004l-0.005,0.003l-0.004,0.004l-0.005,0.004l-0.003,0.003l-0.004,0.003l-0.003,0.004l-0.003,0.003l-0.003,0.004l-0.003,0.003l-0.003,0.004l-0.002,0.003l-0.003,0.004l-0.002,0.004l-0.003,0.003l-0.002,0.005l-0.002,0.004l-0.002,0.004l-0.002,0.004l-0.001,0.004l-0.002,0.004l-0.001,0.004l-0.002,0.004l-0.001,0.005l-0.001,0.004l-0.001,0.005l-0.001,0.005l-0.001,0.005l0,0.005l-0.001,0.006l0,0.006l-0.001,0.006l0,0.007l0,0.007l0.001,0.007l0,0.007l0.001,0.008l0.001,0.008l0.001,0.009l0.002,0.009l0.001,0.009l0.002,0.009l0.003,0.01l0.003,0.01l0.003,0.01l0.003,0.01l0.004,0.011l0.004,0.011l0.005,0.011l0.004,0.011l0.006,0.012l0.005,0.011l0.007,0.012l0.006,0.012l0.007,0.012l0.007,0.012l0.008,0.012l0.008,0.012l0.009,0.012l0.009,0.012l0.009,0.012l0.01,0.012l0.01,0.012l0.011,0.012l0.011,0.012l0.011,0.012l0.012,0.012l0.012,0.012l0.013,0.011l0.013,0.012l0.014,0.011l0.014,0.011l0.014,0.011l0.014,0.011l0.016,0.01l0.015,0.011l0.016,0.01l0.016,0.01l0.017,0.009l0.017,0.01l0.017,0.009l0.018,0.008l0.017,0.008l0.017,0.008l0.017,0.007l0.017,0.007l0.017,0.006l0.017,0.006l0.017,0.005l0.017,0.005l0.017,0.005l0.017,0.004l0.016,0.004l0.016,0.003l0.017,0.003l0.016,0.003l0.016,0.002l0.015,0.002l0.016,0.001l0.015,0.001l0.015,0.001l0.015,0.001l0.015,0l0.014,-0.001l0.014,0l0.014,-0.001l0.013,-0.001l0.013,-0.001l0.013,-0.002l0.013,-0.002l0.012,-0.002l0.012,-0.003l0.011,-0.002l0.011,-0.003l0.011,-0.003l0.01,-0.003l0.01,-0.003l0.009,-0.003l0.009,-0.004l0.008,-0.003l0.009,-0.004l0.007,-0.004l0.008,-0.003l0.006,-0.004l0.007,-0.004l0.006,-0.004l0.006,-0.003l0.005,-0.004l0.005,-0.004l0.005,-0.003l0.004,-0.004l0.005,-0.003l0.003,-0.004l0.004,-0.003l0.003,-0.004l0.004,-0.003l0.002,-0.004l0.003,-0.003l0.003,-0.004l0.003,-0.003l0.002,-0.004l0.002,-0.003l0.003,-0.004l0.002,-0.005l0.002,-0.004l0.002,-0.004l0.002,-0.004l0.002,-0.004l0.001,-0.004l0.001,-0.004l0.002,-0.004l0.001,-0.005l0.001,-0.004l0.001,-0.005l0.001,-0.005l0.001,-0.005l0,-0.005l0.001,-0.006l0,-0.006l0.001,-0.006l0,-0.007l0,-0.007l-0.001,-0.007l0,-0.007l-0.001,-0.008l-0.001,-0.008l-0.001,-0.009l-0.001,-0.008l-0.002,-0.01l-0.002,-0.009l-0.003,-0.01l-0.002,-0.01l-0.004,-0.01l-0.003,-0.01l-0.004,-0.011l-0.004,-0.011l-0.004,-0.011l-0.005,-0.011l-0.006,-0.011l-0.005,-0.012l-0.006,-0.012l-0.007,-0.012l-0.007,-0.012l-0.007,-0.012l-0.008,-0.012l-0.008,-0.012l-0.009,-0.012l-0.009,-0.012l-0.009,-0.012l-0.01,-0.012l-0.01,-0.012l-0.011,-0.012l-0.011,-0.012l-0.011,-0.012l-0.012,-0.012l-0.012,-0.012l-0.013,-0.011l-0.013,-0.012l-0.014,-0.011l-0.013,-0.011l-0.015,-0.011l-0.014,-0.011l-0.016,-0.01l-0.015,-0.011l-0.016,-0.01l-0.016,-0.01l-0.017,-0.009l-0.017,-0.01l-0.017,-0.009l-0.018,-0.008l-0.017,-0.008l-0.017,-0.008l-0.017,-0.007l-0.017,-0.007l-0.017,-0.006l-0.017,-0.006l-0.017,-0.005l-0.017,-0.005l-0.017,-0.005l-0.017,-0.004l-0.016,-0.004l-0.016,-0.003l-0.017,-0.003l-0.016,-0.003l-0.016,-0.002l-0.015,-0.002l-0.016,-0.001l-0.015,-0.001l-0.015,-0.001l-0.015,-0.001l-0.015,0l-0.014,0.001Z"/><path d="M17.809,9.802l0.042,0.002l0.043,0.005l0.042,0.006l0.043,0.007l0.042,0.009l0.043,0.011l0.043,0.012l0.042,0.013l0.043,0.016l0.043,0.016l0.043,0.018l0.042,0.019l0.043,0.021l0.042,0.022l0.042,0.024l0.042,0.025l0.042,0.026l0.042,0.028l0.041,0.028l0.042,0.031l0.041,0.031l0.041,0.033l0.04,0.034l0.04,0.035l0.04,0.036l0.04,0.038l0.039,0.039l0.039,0.04l0.038,0.041l0.039,0.042l0.037,0.043l0.037,0.045l0.037,0.046l0.036,0.046l0.036,0.048l0.035,0.049l0.035,0.049l0.034,0.051l0.034,0.052l0.033,0.053l0.032,0.053l0.032,0.055l0.031,0.055l0.03,0.057l0.03,0.057l0.029,0.059l0.028,0.059l0.028,0.06l0.026,0.06l0.026,0.062l0.026,0.062l0.024,0.064l0.023,0.063l0.023,0.065l0.022,0.066l0.021,0.065l0.019,0.066l0.019,0.066l0.017,0.065l0.016,0.065l0.015,0.065l0.014,0.065l0.013,0.065l0.012,0.064l0.011,0.065l0.009,0.063l0.009,0.064l0.007,0.063l0.007,0.063l0.005,0.063l0.004,0.062l0.003,0.061l0.003,0.061l0.001,0.061l0,0.06l-0.001,0.06l-0.002,0.059l-0.003,0.058l-0.004,0.058l-0.005,0.057l-0.006,0.057l-0.007,0.056l-0.008,0.055l-0.009,0.054l-0.01,0.054l-0.011,0.053l-0.012,0.052l-0.013,0.051l-0.014,0.051l-0.015,0.049l-0.016,0.049l-0.016,0.048l-0.018,0.047l-0.018,0.045l-0.02,0.045l-0.02,0.044l-0.022,0.043l-0.022,0.042l-0.023,0.04l-0.024,0.04l-0.025,0.038l-0.025,0.037l-0.027,0.037l-0.028,0.034l-0.028,0.034l-0.029,0.032l-0.03,0.031l-0.031,0.03l-0.032,0.029l-0.033,0.027l-0.033,0.025l-0.034,0.025l-0.035,0.023l-0.036,0.021l-0.037,0.02l-0.037,0.019l-0.039,0.016l-0.039,0.016l-0.04,0.014l-0.04,0.012l-0.041,0.01l-0.041,0.009l-0.041,0.007l-0.041,0.006l-0.042,0.003l-0.042,0.002l-0.042,0.001l-0.042,-0.002l-0.042,-0.002l-0.043,-0.005l-0.042,-0.006l-0.043,-0.007l-0.042,-0.009l-0.043,-0.011l-0.043,-0.012l-0.043,-0.013l-0.042,-0.016l-0.043,-0.016l-0.043,-0.018l-0.042,-0.019l-0.043,-0.021l-0.042,-0.022l-0.042,-0.024l-0.042,-0.025l-0.042,-0.026l-0.042,-0.028l-0.042,-0.028l-0.041,-0.031l-0.041,-0.031l-0.041,-0.033l-0.04,-0.034l-0.04,-0.035l-0.04,-0.036l-0.04,-0.038l-0.039,-0.039l-0.039,-0.04l-0.039,-0.041l-0.038,-0.042l-0.037,-0.043l-0.038,-0.045l-0.036,-0.046l-0.037,-0.046l-0.035,-0.048l-0.036,-0.049l-0.034,-0.049l-0.034,-0.051l-0.034,-0.052l-0.033,-0.053l-0.032,-0.053l-0.032,-0.055l-0.031,-0.055l-0.03,-0.057l-0.03,-0.057l-0.029,-0.059l-0.028,-0.059l-0.028,-0.06l-0.027,-0.06l-0.026,-0.062l-0.025,-0.062l-0.024,-0.064l-0.024,-0.063l-0.022,-0.065l-0.022,-0.066l-0.021,-0.065l-0.019,-0.066l-0.019,-0.066l-0.017,-0.065l-0.016,-0.065l-0.016,-0.065l-0.014,-0.065l-0.012,-0.065l-0.012,-0.064l-0.011,-0.065l-0.01,-0.063l-0.008,-0.064l-0.007,-0.063l-0.007,-0.063l-0.005,-0.063l-0.004,-0.062l-0.004,-0.061l-0.002,-0.061l-0.001,-0.061l0,-0.06l0.001,-0.06l0.002,-0.059l0.003,-0.058l0.004,-0.058l0.005,-0.057l0.006,-0.057l0.007,-0.056l0.008,-0.055l0.009,-0.054l0.01,-0.054l0.011,-0.053l0.012,-0.052l0.013,-0.051l0.014,-0.051l0.015,-0.049l0.015,-0.049l0.017,-0.048l0.018,-0.047l0.018,-0.045l0.02,-0.045l0.02,-0.044l0.021,-0.043l0.023,-0.042l0.023,-0.04l0.024,-0.04l0.025,-0.038l0.025,-0.037l0.027,-0.037l0.027,-0.034l0.029,-0.034l0.029,-0.032l0.03,-0.031l0.031,-0.03l0.032,-0.029l0.032,-0.027l0.034,-0.025l0.034,-0.025l0.035,-0.023l0.036,-0.021l0.037,-0.02l0.037,-0.019l0.039,-0.016l0.039,-0.016l0.04,-0.014l0.04,-0.012l0.041,-0.01l0.041,-0.009l0.041,-0.007l0.041,-0.006l0.042,-0.003l0.042,-0.002l0.042,-0.001l0.042,0.002Zm-0.055,0.999l-0.003,0l-0.001,0l-0.002,0l-0.001,0l-0.001,0l0,0l-0.001,0.001l-0.004,0.002l-0.004,0.002l-0.006,0.004l-0.004,0.004l-0.004,0.004l-0.006,0.005l-0.005,0.006l-0.007,0.007l-0.007,0.008l-0.007,0.01l-0.008,0.01l-0.008,0.012l-0.009,0.014l-0.009,0.014l-0.009,0.016l-0.009,0.018l-0.01,0.019l-0.009,0.02l-0.009,0.021l-0.01,0.023l-0.009,0.024l-0.009,0.026l-0.008,0.027l-0.009,0.028l-0.008,0.029l-0.007,0.03l-0.008,0.032l-0.006,0.033l-0.007,0.034l-0.006,0.035l-0.005,0.036l-0.004,0.037l-0.005,0.038l-0.003,0.039l-0.003,0.039l-0.002,0.041l-0.001,0.041l-0.001,0.042l0,0.043l0.001,0.044l0.002,0.044l0.002,0.045l0.003,0.046l0.004,0.046l0.005,0.047l0.005,0.047l0.007,0.048l0.007,0.048l0.008,0.048l0.009,0.049l0.01,0.05l0.01,0.049l0.012,0.05l0.012,0.05l0.014,0.051l0.014,0.05l0.015,0.051l0.016,0.051l0.017,0.051l0.018,0.05l0.018,0.049l0.019,0.049l0.019,0.048l0.02,0.047l0.02,0.046l0.021,0.046l0.022,0.045l0.022,0.044l0.022,0.043l0.023,0.043l0.023,0.041l0.024,0.041l0.023,0.039l0.025,0.039l0.024,0.038l0.025,0.037l0.025,0.035l0.025,0.035l0.025,0.034l0.026,0.033l0.025,0.031l0.026,0.031l0.025,0.029l0.026,0.029l0.025,0.027l0.026,0.026l0.025,0.025l0.025,0.024l0.025,0.022l0.024,0.022l0.024,0.02l0.024,0.019l0.023,0.018l0.023,0.016l0.022,0.016l0.022,0.014l0.021,0.013l0.02,0.012l0.019,0.011l0.019,0.01l0.018,0.008l0.016,0.008l0.016,0.007l0.015,0.005l0.014,0.005l0.013,0.004l0.011,0.003l0.011,0.003l0.009,0.002l0.008,0.001l0.007,0.001l0.006,0.001l0.005,0l0.005,0.001l0.003,-0.001l0.002,0l0.002,0l0.002,0l0.001,0l0,0l0.001,0l0.001,-0.001l0.001,0l0,0l0.001,-0.001l0.001,0l0.001,-0.001l0.002,-0.001l0.002,-0.001l0.002,-0.002l0.004,-0.002l0.004,-0.004l0.004,-0.004l0.005,-0.005l0.006,-0.006l0.007,-0.007l0.007,-0.008l0.007,-0.01l0.008,-0.01l0.008,-0.012l0.009,-0.014l0.009,-0.014l0.009,-0.016l0.009,-0.018l0.01,-0.018l0.009,-0.021l0.009,-0.021l0.01,-0.023l0.009,-0.024l0.009,-0.026l0.008,-0.027l0.009,-0.028l0.008,-0.029l0.007,-0.03l0.008,-0.032l0.006,-0.033l0.007,-0.034l0.005,-0.035l0.006,-0.036l0.004,-0.037l0.004,-0.038l0.004,-0.039l0.003,-0.039l0.002,-0.041l0.001,-0.041l0.001,-0.042l0,-0.043l-0.001,-0.044l-0.002,-0.044l-0.002,-0.045l-0.003,-0.046l-0.004,-0.046l-0.005,-0.047l-0.005,-0.047l-0.007,-0.048l-0.007,-0.048l-0.008,-0.048l-0.009,-0.049l-0.01,-0.05l-0.01,-0.049l-0.012,-0.05l-0.013,-0.05l-0.013,-0.051l-0.014,-0.05l-0.015,-0.051l-0.016,-0.051l-0.017,-0.051l-0.018,-0.05l-0.018,-0.049l-0.019,-0.049l-0.019,-0.048l-0.02,-0.047l-0.02,-0.046l-0.021,-0.046l-0.022,-0.045l-0.022,-0.044l-0.022,-0.043l-0.023,-0.043l-0.023,-0.041l-0.024,-0.041l-0.024,-0.039l-0.024,-0.039l-0.024,-0.038l-0.025,-0.037l-0.025,-0.035l-0.025,-0.035l-0.026,-0.034l-0.025,-0.033l-0.025,-0.031l-0.026,-0.031l-0.026,-0.029l-0.025,-0.029l-0.026,-0.027l-0.025,-0.026l-0.025,-0.025l-0.025,-0.024l-0.025,-0.022l-0.024,-0.022l-0.024,-0.02l-0.024,-0.019l-0.023,-0.018l-0.023,-0.016l-0.022,-0.016l-0.022,-0.014l-0.021,-0.013l-0.02,-0.012l-0.019,-0.011l-0.019,-0.01l-0.018,-0.008l-0.017,-0.008l-0.015,-0.007l-0.015,-0.005l-0.014,-0.005l-0.013,-0.004l-0.011,-0.003l-0.011,-0.003l-0.009,-0.002l-0.008,-0.001l-0.007,-0.001l-0.006,-0.001l-0.006,0l-0.004,-0.001l-0.003,0.001Z"/></svg>