<?xml version="1.0" encoding="UTF-8" standalone="no"?><!DOCTYPE svg PUBLIC "-//W3C//DTD SVG 1.1//EN" "http://www.w3.org/Graphics/SVG/1.1/DTD/svg11.dtd"><svg width="100%" height="100%" viewBox="0 0 100 100" version="1.1" xmlns="http://www.w3.org/2000/svg" xmlns:xlink="http://www.w3.org/1999/xlink" xml:space="preserve" xmlns:serif="http://www.serif.com/" style="fill-rule:evenodd;clip-rule:evenodd;stroke-linejoin:round;stroke-miterlimit:1.41421;"><circle cx="50.612" cy="50.048" r="38.952" style="fill:#fff;"/><g><path d="M50.284,26.761l-0.026,-0.624l0.004,0.624c-0.448,0.004 -0.818,0.247 -1.015,0.669l-17.841,38.35c4.637,4.275 10.762,6.625 17.299,6.625l23.52,0l-20.926,-44.975c-0.196,-0.422 -0.567,-0.665 -1.015,-0.669Z" style="fill-rule:nonzero;"/><path d="M24.123,49.582c0,4.988 1.778,9.857 5.028,13.815l16.985,-36.513c-12.428,1.203 -22.013,10.987 -22.013,22.698Z" style="fill-rule:nonzero;"/><path d="M50,0c-27.614,0 -50,22.386 -50,50c0,27.613 22.386,50 50,50c27.613,0 50,-22.387 50,-50c0,-27.614 -22.387,-50 -50,-50Zm-1.295,75.456c-6.944,0 -13.53,-2.404 -18.642,-6.789l-3.011,6.472l-2.767,-1.285l3.456,-7.431c-4.304,-4.692 -6.668,-10.656 -6.668,-16.841c0,-14.264 12.396,-25.87 27.632,-25.87l15.667,0l0,3.049l-10.018,0l22.654,48.695l-28.303,0Z" style="fill-rule:nonzero;"/></g></svg>