<?xml version="1.0" encoding="UTF-8" standalone="no"?>
<!DOCTYPE svg PUBLIC "-//W3C//DTD SVG 1.1//EN" "http://www.w3.org/Graphics/SVG/1.1/DTD/svg11.dtd">
<svg width="100%" height="100%" viewBox="0 0 150 150" version="1.1" xmlns="http://www.w3.org/2000/svg" xmlns:xlink="http://www.w3.org/1999/xlink" xml:space="preserve" xmlns:serif="http://www.serif.com/" style="fill-rule:evenodd;clip-rule:evenodd;stroke-linecap:round;stroke-linejoin:round;stroke-miterlimit:1.5;">
	<rect id="Artboard1" x="25" y="25" width="100" height="100" style="fill:none;" />
	
	<g id="Layer-1" serif:id="Layer 1">
		<path d="M75,44.987c16.576,0 30.012,13.437 30.012,30.012c0,16.575 -13.436,30.014 -30.012,30.014c-16.573,0 -30.012,-13.439 -30.012,-30.014c0,-16.575 13.439,-30.012 30.012,-30.012m4.881,15.871c0,1.4 0.796,2.261 1.362,2.787l-1.188,1.16c-0.693,0.693 -1.123,1.76 -1.123,2.787c0,0.995 0.39,1.91 1.132,2.649c1.037,1.037 2.174,1.18 2.947,1.118c0.923,-0.076 1.85,-0.498 2.481,-1.126c0.564,-0.564 0.881,-0.883 1.191,-1.184l1.908,1.859l1.338,-1.344l0.017,-0.032l-1.876,-1.881l1.334,-1.338l-1.398,-1.398l-1.336,1.341c0,0 -3.906,-3.918 -4.389,-4.404c-0.261,-0.267 -0.422,-0.545 -0.422,-0.986c0,-0.47 0.212,-0.781 0.392,-0.959c0.26,-0.262 0.646,-0.426 0.997,-0.426c0.538,0 0.868,0.285 0.982,0.405l0.03,0.03l0.028,-0.028l0.791,-0.791l0.552,-0.547l0.022,-0.03l-0.037,-0.04c-0.361,-0.368 -1.148,-0.984 -2.372,-0.984c-0.932,0 -1.796,0.372 -2.429,1.046c-0.595,0.631 -0.934,1.474 -0.934,2.316m-10.617,29.235c1.398,-1.398 2.168,-3.259 2.168,-5.237c0,-1.279 -0.33,-2.539 -0.959,-3.644c-0.597,-1.054 -1.457,-1.953 -2.48,-2.603c3.579,-1.912 5.8,-5.613 5.8,-9.672c0,-2.929 -1.137,-5.682 -3.208,-7.752c-2.071,-2.072 -4.826,-3.211 -7.753,-3.211l-2.433,0l0.005,34.285l3.627,0c1.978,0 3.838,-0.769 5.233,-2.166m20.756,-0.637c1.802,-1.803 2.797,-4.197 2.797,-6.745c0,-2.547 -0.995,-4.942 -2.797,-6.744c-1.802,-1.803 -4.195,-2.795 -6.742,-2.795c-2.55,0 -4.945,0.992 -6.747,2.795c-1.804,1.802 -2.795,4.197 -2.795,6.744c0,2.548 0.991,4.942 2.795,6.745c1.802,1.802 4.197,2.795 6.747,2.795c2.547,0 4.94,-0.993 6.742,-2.795m-6.743,-13.831c-1.891,0 -3.672,0.739 -5.013,2.076c-1.336,1.337 -2.077,3.116 -2.077,5.011c0,1.89 0.741,3.669 2.077,5.01c1.341,1.336 3.122,2.075 5.013,2.075c3.906,0 7.085,-3.178 7.085,-7.085c0,-1.895 -0.739,-3.674 -2.073,-5.011c-1.341,-1.337 -3.12,-2.076 -5.012,-2.076m-11.937,-6.688c0,-2.272 -0.884,-4.411 -2.491,-6.021c-1.598,-1.596 -3.725,-2.479 -5.984,-2.489l0,17.02c2.259,-0.011 4.386,-0.893 5.984,-2.491c1.607,-1.608 2.491,-3.747 2.491,-6.019m12.742,-0.09c0.563,-0.56 1.075,-1.076 1.196,-1.199l-2.643,-2.617l-1.179,1.18c-0.343,0.342 -0.546,0.842 -0.546,1.333c0,0.488 0.186,0.935 0.546,1.295c0.82,0.817 1.948,0.677 2.626,0.008m-20.064,11.064c1.323,0 2.574,0.512 3.511,1.448c0.933,0.936 1.448,2.176 1.448,3.498c0,2.73 -2.222,4.949 -4.949,4.949l-1.163,0l0,-9.903c0.202,0 1.153,0.008 1.153,0.008" style="fill-rule:nonzero;" />
		<circle id="ring-1" cx="0" cy="0" r="28.5" transform="translate(75 75)" style="fill:none;stroke:#000;stroke-width:1px;" />
		<circle id="ring-2" cx="0" cy="0" r="28.5" transform="translate(75 75)" style="fill:none;stroke:#000;stroke-width:1px;" />
		<circle id="ring-3" cx="0" cy="0" r="28.5" transform="translate(75 75)" style="fill:none;stroke:#000;stroke-width:1px;" />
		
		<animate attributeName="r"
			xlink:href="#ring-1"
		    from="28.5"
		    to="72"
		    begin="0s"
		    dur="2.4s"
		    repeatCount="indefinite"
		/>
		
		<animate attributeName="r"
			xlink:href="#ring-2"
		    from="28.5"
		    to="72"
		    begin="0.8s"
		    dur="2.4s"
		    repeatCount="indefinite"
		/>
		
		<animate attributeName="r"
			xlink:href="#ring-3"
		    from="28.5"
		    to="72"
		    begin="1.6s"
		    dur="2.4s"
		    repeatCount="indefinite"
		/>
		
		<animate attributeName="opacity"
			xlink:href="#ring-1"
			from="1"
			to="0"
			begin="0s"
			dur="2.4s"
			repeatCount="indefinite"
		/>
		
		<animate attributeName="opacity"
			xlink:href="#ring-2"
			from="1"
			to="0"
			begin="0.8s"
			dur="2.4s"
			repeatCount="indefinite"
		/>
		
		<animate attributeName="opacity"
			xlink:href="#ring-3"
			from="1"
			to="0"
			begin="1.6s"
			dur="2.4s"
			repeatCount="indefinite"
		/>
	</g>
</svg>