<?xml version="1.0" encoding="utf-8"?>
<!-- Generator: Adobe Illustrator 15.1.0, SVG Export Plug-In . SVG Version: 6.00 Build 0)  -->
<!DOCTYPE svg PUBLIC "-//W3C//DTD SVG 1.1//EN" "http://www.w3.org/Graphics/SVG/1.1/DTD/svg11.dtd">
<svg version="1.1" id="Layer_1" xmlns="http://www.w3.org/2000/svg" xmlns:xlink="http://www.w3.org/1999/xlink" x="0px" y="0px"
	 width="80px" height="80px" viewBox="0 0 80 80" enable-background="new 0 0 80 80" xml:space="preserve">
<g>
	<g>
		<defs>
			<rect id="SVGID_1_" x="20" y="15.896" width="44" height="47.209"/>
		</defs>
		<clipPath id="SVGID_2_">
			<use xlink:href="#SVGID_1_"  overflow="visible"/>
		</clipPath>
		<path clip-path="url(#SVGID_2_)" fill="#FFFFFF" d="M60.203,40.977c-2.445-2.447-5.699-3.795-9.157-3.795
			c-3.461,0-6.713,1.348-9.16,3.795c-2.446,2.446-3.793,5.7-3.793,9.16c0,3.462,1.348,6.713,3.793,9.159
			c2.447,2.447,5.699,3.795,9.16,3.795c3.458,0,6.712-1.348,9.157-3.795C62.65,56.85,64,53.599,64,50.137
			C64,46.677,62.65,43.423,60.203,40.977 M51.046,59.759c-2.569,0-4.986-1.002-6.805-2.82c-1.817-1.817-2.819-4.231-2.819-6.802
			c0-2.571,1.002-4.988,2.819-6.804c1.818-1.818,4.235-2.82,6.805-2.82c2.568,0,4.985,1.001,6.804,2.82
			c1.814,1.815,2.816,4.232,2.816,6.804C60.666,55.442,56.352,59.759,51.046,59.759z"/>
		<path clip-path="url(#SVGID_2_)" fill="#FFFFFF" d="M30.292,44.566c4.861-2.597,7.878-7.623,7.878-13.135
			c0-3.976-1.545-7.717-4.357-10.527c-2.813-2.814-6.551-4.362-10.528-4.362l-3.301,0l0.006,46.56l4.924,0.002
			c2.685,0,5.209-1.046,7.106-2.945c1.899-1.898,2.947-4.423,2.947-7.106c0-1.738-0.452-3.45-1.305-4.953
			C32.849,46.669,31.681,45.45,30.292,44.566 M23.33,19.875c3.068,0.014,5.955,1.214,8.125,3.382
			c2.184,2.186,3.381,5.088,3.381,8.174s-1.198,5.989-3.381,8.172c-2.17,2.17-5.057,3.368-8.125,3.384V19.875z M24.907,59.771H23.33
			V46.326c0.274,0,1.564,0.008,1.564,0.008c1.795,0,3.497,0.696,4.767,1.965c1.268,1.271,1.967,2.958,1.967,4.754
			C31.628,56.757,28.612,59.771,24.907,59.771z"/>
	</g>
	<path fill="#FFFFFF" d="M45.146,29.606c0,1.35,0.532,2.594,1.536,3.598c1.409,1.408,2.955,1.601,4.004,1.516
		c1.252-0.103,2.512-0.674,3.367-1.529c0.767-0.766,1.198-1.199,1.617-1.605l2.589,2.522l1.819-1.824l0.023-0.044l-2.549-2.554
		l1.812-1.817l-1.896-1.897l-1.815,1.819c0,0-5.307-5.318-5.963-5.981c-0.354-0.36-0.569-0.739-0.569-1.337
		c0-0.637,0.288-1.06,0.528-1.304c0.356-0.355,0.88-0.576,1.357-0.576c0.729,0,1.178,0.385,1.335,0.549l0.038,0.041l0.038-0.038
		l1.077-1.075l0.748-0.743l0.028-0.037l-0.048-0.057c-0.489-0.499-1.562-1.335-3.223-1.335c-1.267,0-2.439,0.504-3.3,1.421
		c-0.805,0.855-1.267,2.001-1.267,3.145c0,1.9,1.082,3.069,1.849,3.781l-1.615,1.579C45.731,26.761,45.146,28.212,45.146,29.606
		 M48.574,27.73l1.603-1.604l3.587,3.555c-0.163,0.168-0.858,0.87-1.625,1.628c-0.921,0.909-2.453,1.098-3.564-0.013
		c-0.485-0.487-0.745-1.093-0.745-1.753C47.829,28.874,48.108,28.196,48.574,27.73z"/>
</g>
</svg>
