<?xml version="1.0" encoding="utf-8"?>
<!-- Generator: Adobe Illustrator 15.1.0, SVG Export Plug-In . SVG Version: 6.00 Build 0)  -->
<!DOCTYPE svg PUBLIC "-//W3C//DTD SVG 1.1//EN" "http://www.w3.org/Graphics/SVG/1.1/DTD/svg11.dtd">
<svg version="1.1" id="Layer_1" xmlns="http://www.w3.org/2000/svg" xmlns:xlink="http://www.w3.org/1999/xlink" x="0px" y="0px"
	 width="90px" height="109px" viewBox="0 0 90 109" enable-background="new 0 0 90 109" xml:space="preserve">
<path fill="#C7DFF0" d="M49.64,102.49c0,0.156-0.123,0.25-0.273,0.211L8.875,91.768c-0.149-0.041-0.272-0.203-0.272-0.359V46.555
	c0-0.154,0.123-0.25,0.272-0.209l40.491,10.816c0.15,0.039,0.273,0.201,0.273,0.355V102.49z"/>
<path fill="none" stroke="#1D1D1B" stroke-width="0.7" stroke-miterlimit="10" d="M49.64,102.49c0,0.156-0.123,0.25-0.273,0.211
	L8.875,91.768c-0.149-0.041-0.272-0.203-0.272-0.359V46.555c0-0.154,0.123-0.25,0.272-0.209l40.491,10.816
	c0.15,0.039,0.273,0.201,0.273,0.355V102.49z"/>
<path fill="#C7DFF0" d="M82.415,91.582c0,0.156-0.121,0.324-0.271,0.373l-32.235,10.73c-0.148,0.049-0.27-0.039-0.27-0.193V57.518
	c0-0.156,0.121-0.324,0.27-0.373l32.235-10.826c0.149-0.049,0.271,0.037,0.271,0.193V91.582z"/>
<path fill="none" stroke="#1D1D1B" stroke-width="0.7" stroke-miterlimit="10" d="M82.415,91.582c0,0.156-0.121,0.324-0.271,0.373
	l-32.235,10.73c-0.148,0.049-0.27-0.039-0.27-0.193V57.518c0-0.156,0.121-0.324,0.27-0.373l32.235-10.826
	c0.149-0.049,0.271,0.037,0.271,0.193V91.582z"/>
<path fill="#C7DFF0" d="M41.675,35.48c-0.151-0.041-0.396-0.033-0.544,0.016L8.87,46.182c-0.146,0.051-0.145,0.123,0.006,0.164
	l40.549,10.826c0.149,0.039,0.395,0.033,0.543-0.018l32.179-10.836c0.147-0.049,0.144-0.121-0.006-0.162L41.675,35.48z"/>
<path fill="none" stroke="#1D1D1B" stroke-width="0.7" stroke-miterlimit="10" d="M41.675,35.48
	c-0.151-0.041-0.396-0.033-0.544,0.016L8.87,46.182c-0.146,0.051-0.145,0.123,0.006,0.164l40.549,10.826
	c0.149,0.039,0.395,0.033,0.543-0.018l32.179-10.836c0.147-0.049,0.144-0.121-0.006-0.162L41.675,35.48z"/>
<path fill="#C7DFF0" d="M49.64,50.025c0,0.156-0.123,0.25-0.273,0.209l-31.832-8.51c-0.15-0.041-0.274-0.201-0.274-0.357V14.922
	c0-0.156,0.124-0.25,0.274-0.209l31.832,8.51c0.15,0.041,0.273,0.201,0.273,0.357V50.025z"/>
<path fill="none" stroke="#1D1D1B" stroke-width="0.7" stroke-miterlimit="10" d="M49.64,50.025c0,0.156-0.123,0.25-0.273,0.209
	l-31.832-8.51c-0.15-0.041-0.274-0.201-0.274-0.357V14.922c0-0.156,0.124-0.25,0.274-0.209l31.832,8.51
	c0.15,0.041,0.273,0.201,0.273,0.357V50.025z"/>
<path fill="#C7DFF0" d="M75.44,41.367c0,0.156-0.121,0.324-0.271,0.375l-25.261,8.477c-0.149,0.049-0.271-0.037-0.271-0.193V23.58
	c0-0.156,0.121-0.324,0.271-0.373l25.261-8.479c0.149-0.049,0.271,0.037,0.271,0.193V41.367z"/>
<path fill="none" stroke="#1D1D1B" stroke-width="0.7" stroke-miterlimit="10" d="M75.44,41.367c0,0.156-0.121,0.324-0.271,0.375
	l-25.261,8.477c-0.149,0.049-0.271-0.037-0.271-0.193V23.58c0-0.156,0.121-0.324,0.271-0.373l25.261-8.479
	c0.149-0.049,0.271,0.037,0.271,0.193V41.367z"/>
<path fill="#C7DFF0" d="M43.334,6.055c-0.15-0.041-0.396-0.033-0.543,0.018l-25.263,8.477c-0.147,0.049-0.145,0.123,0.006,0.164
	l31.831,8.51c0.151,0.041,0.396,0.033,0.544-0.016l25.262-8.479c0.147-0.049,0.145-0.123-0.005-0.164L43.334,6.055z"/>
<path fill="none" stroke="#1D1D1B" stroke-width="0.7" stroke-miterlimit="10" d="M43.334,6.055
	c-0.15-0.041-0.396-0.033-0.543,0.018l-25.263,8.477c-0.147,0.049-0.145,0.123,0.006,0.164l31.831,8.51
	c0.151,0.041,0.396,0.033,0.544-0.016l25.262-8.479c0.147-0.049,0.145-0.123-0.005-0.164L43.334,6.055z"/>
<path fill="#C7DFF0" d="M72.691,38.625c0,0.156-0.124,0.25-0.274,0.211l-8.77-2.346c-0.151-0.039-0.274-0.199-0.274-0.357v-7.205
	c0-0.156,0.123-0.25,0.274-0.211l8.77,2.346c0.15,0.041,0.274,0.201,0.274,0.357V38.625z"/>
<path fill="none" stroke="#1D1D1B" stroke-width="0.7" stroke-miterlimit="10" d="M72.691,38.625c0,0.156-0.124,0.25-0.274,0.211
	l-8.77-2.346c-0.151-0.039-0.274-0.199-0.274-0.357v-7.205c0-0.156,0.123-0.25,0.274-0.211l8.77,2.346
	c0.15,0.041,0.274,0.201,0.274,0.357V38.625z"/>
<path fill="#C7DFF0" d="M80.115,36.135c0,0.154-0.121,0.322-0.27,0.373l-6.886,2.311c-0.149,0.049-0.27-0.037-0.27-0.193V31.42
	c0-0.156,0.12-0.324,0.27-0.373l6.886-2.312c0.148-0.049,0.27,0.037,0.27,0.193V36.135z"/>
<path fill="none" stroke="#1D1D1B" stroke-width="0.7" stroke-miterlimit="10" d="M80.115,36.135c0,0.154-0.121,0.322-0.27,0.373
	l-6.886,2.311c-0.149,0.049-0.27-0.037-0.27-0.193V31.42c0-0.156,0.12-0.324,0.27-0.373l6.886-2.312
	c0.148-0.049,0.27,0.037,0.27,0.193V36.135z"/>
<path fill="#C7DFF0" d="M71.071,26.227c-0.15-0.041-0.396-0.033-0.543,0.018l-6.888,2.311c-0.146,0.049-0.145,0.123,0.007,0.164
	l8.77,2.344c0.15,0.041,0.394,0.033,0.543-0.018l6.886-2.311c0.148-0.049,0.146-0.123-0.004-0.164L71.071,26.227z"/>
<path fill="none" stroke="#1D1D1B" stroke-width="0.7" stroke-miterlimit="10" d="M71.071,26.227
	c-0.15-0.041-0.396-0.033-0.543,0.018l-6.888,2.311c-0.146,0.049-0.145,0.123,0.007,0.164l8.77,2.344
	c0.15,0.041,0.394,0.033,0.543-0.018l6.886-2.311c0.148-0.049,0.146-0.123-0.004-0.164L71.071,26.227z"/>
<path fill="#C7DFF0" d="M26.61,29.229c0-1.682,0.73-3.15,1.817-3.938c-0.535-0.387-1.154-0.609-1.817-0.609
	c-2.009,0-3.637,2.037-3.637,4.547c0,2.512,1.628,4.549,3.637,4.549c0.663,0,1.282-0.223,1.817-0.609
	C27.341,32.381,26.61,30.912,26.61,29.229"/>
<path fill="none" stroke="#1D1D1B" stroke-width="0.7" stroke-miterlimit="10" d="M26.61,29.229c0-1.682,0.73-3.15,1.817-3.938
	c-0.535-0.387-1.154-0.609-1.817-0.609c-2.009,0-3.637,2.037-3.637,4.547c0,2.512,1.628,4.549,3.637,4.549
	c0.663,0,1.282-0.223,1.817-0.609C27.341,32.381,26.61,30.912,26.61,29.229z"/>
<path fill="#FFFFFF" d="M30.247,29.229c0-1.682-0.731-3.15-1.818-3.938c-1.087,0.787-1.819,2.256-1.819,3.938
	c0,1.684,0.732,3.152,1.819,3.939C29.516,32.381,30.247,30.912,30.247,29.229"/>
<path fill="none" stroke="#1D1D1B" stroke-width="0.7" stroke-miterlimit="10" d="M30.247,29.229c0-1.682-0.731-3.15-1.818-3.938
	c-1.087,0.787-1.819,2.256-1.819,3.938c0,1.684,0.732,3.152,1.819,3.939C29.516,32.381,30.247,30.912,30.247,29.229z"/>
<path fill="#C7DFF0" d="M39.943,32.475c0-1.684,0.73-3.152,1.817-3.939c-0.535-0.387-1.155-0.607-1.817-0.607
	c-2.009,0-3.638,2.035-3.638,4.547s1.629,4.547,3.638,4.547c0.662,0,1.282-0.223,1.817-0.609
	C40.674,35.625,39.943,34.156,39.943,32.475"/>
<path fill="none" stroke="#1D1D1B" stroke-width="0.7" stroke-miterlimit="10" d="M39.943,32.475c0-1.684,0.73-3.152,1.817-3.939
	c-0.535-0.387-1.155-0.607-1.817-0.607c-2.009,0-3.638,2.035-3.638,4.547s1.629,4.547,3.638,4.547c0.662,0,1.282-0.223,1.817-0.609
	C40.674,35.625,39.943,34.156,39.943,32.475z"/>
<path fill="#FFFFFF" d="M43.58,32.475c0-1.684-0.732-3.152-1.818-3.939c-1.087,0.787-1.819,2.256-1.819,3.939
	c0,1.682,0.732,3.15,1.819,3.938C42.848,35.625,43.58,34.156,43.58,32.475"/>
<path fill="none" stroke="#1D1D1B" stroke-width="0.7" stroke-miterlimit="10" d="M43.58,32.475c0-1.684-0.732-3.152-1.818-3.939
	c-1.087,0.787-1.819,2.256-1.819,3.939c0,1.682,0.732,3.15,1.819,3.938C42.848,35.625,43.58,34.156,43.58,32.475z"/>
<polygon fill="#C7DFF0" points="43.58,45.406 22.975,39.896 22.975,36.156 43.58,41.666 "/>
<polyline fill="none" stroke="#1D1D1B" stroke-width="0.7" stroke-miterlimit="10" points="43.58,45.406 22.975,39.896 
	22.975,36.156 43.58,41.666 43.58,45.406 "/>
<polygon fill="#FFFFFF" points="28.429,37.615 28.429,39.311 43.579,43.383 43.579,41.666 "/>
<polygon fill="none" stroke="#1D1D1B" stroke-width="0.7" stroke-miterlimit="10" points="28.429,37.615 28.429,39.311 
	43.579,43.383 43.579,41.666 "/>
<line fill="#4979BC" x1="22.975" y1="39.896" x2="28.429" y2="39.311"/>
<line fill="none" stroke="#1D1D1B" stroke-width="0.7" stroke-miterlimit="10" x1="22.975" y1="39.896" x2="28.429" y2="39.311"/>
<path fill="#C7DFF0" d="M69.933,90.352c0,0.156-0.122,0.248-0.272,0.205l-4.384-1.283c-0.15-0.045-0.273-0.209-0.273-0.363V59.309
	c0-0.156,0.123-0.248,0.273-0.207l4.384,1.256c0.149,0.043,0.272,0.207,0.272,0.361V90.352z"/>
<path fill="none" stroke="#1D1D1B" stroke-width="0.7" stroke-miterlimit="10" d="M69.933,90.352c0,0.156-0.122,0.248-0.272,0.205
	l-4.384-1.283c-0.15-0.045-0.273-0.209-0.273-0.363V59.309c0-0.156,0.123-0.248,0.273-0.207l4.384,1.256
	c0.149,0.043,0.272,0.207,0.272,0.361V90.352z"/>
<path fill="#C7DFF0" d="M78.314,87.562c0,0.156-0.121,0.324-0.271,0.373l-7.843,2.609c-0.148,0.051-0.27-0.037-0.27-0.193V60.719
	c0-0.156,0.121-0.324,0.27-0.373l7.843-2.635c0.149-0.049,0.271,0.039,0.271,0.193V87.562z"/>
<path fill="none" stroke="#1D1D1B" stroke-width="0.7" stroke-miterlimit="10" d="M78.314,87.562c0,0.156-0.121,0.324-0.271,0.373
	l-7.843,2.609c-0.148,0.051-0.27-0.037-0.27-0.193V60.719c0-0.156,0.121-0.324,0.27-0.373l7.843-2.635
	c0.149-0.049,0.271,0.039,0.271,0.193V87.562z"/>
<path fill="#C7DFF0" d="M73.665,56.322c-0.15-0.043-0.396-0.037-0.543,0.012l-7.85,2.602c-0.147,0.049-0.146,0.123,0.003,0.166
	l4.399,1.26c0.149,0.043,0.393,0.037,0.541-0.014l7.829-2.637c0.147-0.049,0.146-0.125-0.004-0.166L73.665,56.322z"/>
<path fill="none" stroke="#1D1D1B" stroke-width="0.7" stroke-miterlimit="10" d="M73.665,56.322
	c-0.15-0.043-0.396-0.037-0.543,0.012l-7.85,2.602c-0.147,0.049-0.146,0.123,0.003,0.166l4.399,1.26
	c0.149,0.043,0.393,0.037,0.541-0.014l7.829-2.637c0.147-0.049,0.146-0.125-0.004-0.166L73.665,56.322z"/>
</svg>
