<?xml version="1.0" encoding="UTF-8" standalone="no"?><!DOCTYPE svg PUBLIC "-//W3C//DTD SVG 1.1//EN" "http://www.w3.org/Graphics/SVG/1.1/DTD/svg11.dtd"><svg width="100%" height="100%" viewBox="0 0 100 25" version="1.1" xmlns="http://www.w3.org/2000/svg" xmlns:xlink="http://www.w3.org/1999/xlink" xml:space="preserve" xmlns:serif="http://www.serif.com/" style="fill-rule:evenodd;clip-rule:evenodd;stroke-miterlimit:1.5;"><path d="M49,4.5l-9.5,0l0,16l9.5,0.054" style="fill:none;stroke:#000;stroke-width:1px;"/><path d="M91,4.5l-9.5,0l0,16.054l9.5,-0.054" style="fill:none;stroke:#000;stroke-width:1px;"/><path d="M45.514,12.528l-5.798,0" style="fill:none;stroke:#000;stroke-width:1px;"/><path d="M87.5,12.528l-6,0" style="fill:none;stroke:#000;stroke-width:1px;"/><path d="M25.5,21l0,-16.5l5.743,0c1.762,0 4.757,0.847 4.757,4c0,4.259 -4.5,4.028 -4.5,4.028l4.5,8.472" style="fill:none;stroke:#000;stroke-width:1px;stroke-miterlimit:3;"/><path d="M51.5,21c0,0 6.086,-13.389 7.293,-16.045c0.126,-0.277 0.402,-0.455 0.707,-0.455c0,0 0,0 0,0c0.305,0 0.581,0.178 0.707,0.455c1.207,2.656 7.293,16.045 7.293,16.045" style="fill:none;stroke:#000;stroke-width:1px;stroke-miterlimit:3;"/><path d="M22,4.5l-5.473,0c-4.43,0 -8.027,3.597 -8.027,8.027c0,4.43 3.597,8.027 8.027,8.027l5.473,0" style="fill:none;stroke:#000;stroke-width:1px;stroke-miterlimit:3;"/><path d="M66.919,4.5l11.081,0" style="fill:none;stroke:#000;stroke-width:1px;stroke-miterlimit:3;"/><path d="M72.5,4.5l0,16.5" style="fill:none;stroke:#000;stroke-width:1px;stroke-miterlimit:3;"/></svg>