<?xml version="1.0" encoding="UTF-8" standalone="no"?><!DOCTYPE svg PUBLIC "-//W3C//DTD SVG 1.1//EN" "http://www.w3.org/Graphics/SVG/1.1/DTD/svg11.dtd"><svg width="100%" height="100%" viewBox="-1 -1 23 23" version="1.1" xmlns="http://www.w3.org/2000/svg" xmlns:xlink="http://www.w3.org/1999/xlink" xml:space="preserve" xmlns:serif="http://www.serif.com/" style="fill-rule:evenodd;clip-rule:evenodd;stroke-linecap:round;stroke-linejoin:round;"><path d="M13.5,4.5l0,12l-3,-3l-2,0c-0.633,-0.01 -0.992,-0.313 -1,-1l0,-4c-0.002,-0.656 0.325,-0.991 1,-1l2,0l3,-3Z" style="fill:none;stroke:#fff;stroke-width:1px;"/><path d="M18.692,16.236c1.177,-1.681 1.808,-3.684 1.808,-5.736c0,-2.052 -0.631,-4.055 -1.808,-5.736" style="fill:none;stroke:#fff;stroke-width:1px;"/><path d="M16.234,14.515c0.824,-1.177 1.266,-2.578 1.266,-4.015c0,-1.437 -0.442,-2.838 -1.266,-4.015" style="fill:none;stroke:#fff;stroke-width:1px;"/><path d="M11.372,0.538c-2.045,-0.179 -4.095,0.276 -5.872,1.302c-1.777,1.026 -3.196,2.574 -4.063,4.434" style="fill:none;stroke:#fff;stroke-width:1px;"/><path d="M11.11,3.527c-1.431,-0.126 -2.866,0.193 -4.11,0.911c-1.244,0.718 -2.237,1.802 -2.844,3.104" style="fill:none;stroke:#fff;stroke-width:1px;"/><path d="M1.437,14.726c0.867,1.86 2.286,3.408 4.063,4.434c1.777,1.026 3.827,1.481 5.872,1.302" style="fill:none;stroke:#fff;stroke-width:1px;"/><path d="M4.156,13.458c0.607,1.302 1.6,2.386 2.844,3.104c1.244,0.718 2.679,1.037 4.11,0.911" style="fill:none;stroke:#fff;stroke-width:1px;"/></svg>