<?xml version="1.0" encoding="utf-8"?>
<!-- Generator: Adobe Illustrator 15.1.0, SVG Export Plug-In . SVG Version: 6.00 Build 0)  -->
<!DOCTYPE svg PUBLIC "-//W3C//DTD SVG 1.1//EN" "http://www.w3.org/Graphics/SVG/1.1/DTD/svg11.dtd">
<svg version="1.1" id="Layer_1" xmlns="http://www.w3.org/2000/svg" xmlns:xlink="http://www.w3.org/1999/xlink" x="0px" y="0px"
	 width="204px" height="67px" viewBox="0 0 204 67" enable-background="new 0 0 204 67" xml:space="preserve">
<g>
	<path d="M145.591,41.654L127.613,3.005c-0.246-0.515-0.7-0.573-0.884-0.573c-0.185,0-0.637,0.058-0.876,0.573l-17.984,38.649
		l-2.193-1.021l17.988-38.646c0.563-1.214,1.734-1.969,3.065-1.969c1.332,0,2.51,0.755,3.075,1.969l17.977,38.646L145.591,41.654z"
		/>
	<polygon points="175.253,0.004 145.392,0.004 145.392,2.42 159.115,2.42 159.115,41.609 161.53,41.609 161.53,2.42 175.253,2.42 	
		"/>
	<path d="M67.691,41.684L55.809,19.58l2.101,0.069c0.046,0,4.55,0.106,7.262-2.523c1.383-1.344,2.085-3.213,2.085-5.564
		c0-2.791-0.8-4.989-2.377-6.535c-2.721-2.664-6.936-2.607-6.983-2.608H42.937v39.191h-2.416V0.002h17.348
		c0.183-0.004,5.22-0.093,8.685,3.283c2.071,2.016,3.118,4.801,3.118,8.276c0,3.038-0.951,5.495-2.832,7.311
		c-2.177,2.107-5.094,2.829-7.013,3.073l9.992,18.598L67.691,41.684z"/>
	<polygon points="99.873,2.418 99.873,0.002 77.324,0.002 76.112,0.006 76.112,40.574 76.116,41.787 99.873,41.787 99.873,39.369 
		78.529,39.369 78.529,22.103 92.175,22.103 92.175,19.688 78.529,19.688 78.529,2.418 	"/>
	<path d="M34.471,41.777H22.312C10.007,41.777,0,32.407,0,20.89C0,9.371,10.007,0,22.312,0h12.159v2.416H22.312
		c-10.969,0-19.896,8.287-19.896,18.474c0,10.185,8.927,18.473,19.896,18.473h12.159V41.777z"/>
	<polygon points="204,2.416 204,0 181.457,0 180.245,0.002 180.245,40.572 180.249,41.783 204,41.783 204,39.367 182.662,39.367 
		182.662,22.101 196.304,22.101 196.304,19.684 182.662,19.684 182.662,2.416 	"/>
	<polygon points="148.635,56.99 148.077,56.783 147.832,56.703 147.587,56.639 147.349,56.586 147.095,56.557 146.826,56.537 
		146.534,56.525 146.189,56.547 145.844,56.596 145.512,56.691 145.362,56.754 145.206,56.834 145.067,56.928 144.949,57.029 
		144.842,57.158 144.753,57.293 144.668,57.441 144.618,57.617 144.575,57.807 144.567,58.021 144.575,58.219 144.618,58.395 
		144.686,58.561 144.773,58.715 144.885,58.857 145.01,58.994 145.158,59.131 145.317,59.238 145.678,59.473 146.091,59.689 
		146.975,60.125 147.429,60.359 147.861,60.625 148.065,60.775 148.274,60.93 148.46,61.098 148.635,61.281 148.805,61.48 
		148.951,61.697 149.071,61.922 149.188,62.168 149.267,62.434 149.344,62.729 149.374,63.035 149.392,63.377 149.374,63.812 
		149.306,64.205 149.208,64.574 149.06,64.912 148.895,65.207 148.686,65.49 148.45,65.736 148.184,65.943 147.891,66.139 
		147.573,66.295 147.241,66.426 146.877,66.533 146.506,66.613 146.11,66.678 145.699,66.709 145.286,66.721 145,66.709 
		144.697,66.678 144.409,66.633 144.116,66.57 143.554,66.426 142.996,66.254 143.15,64.754 143.633,64.941 144.214,65.115 
		144.537,65.186 144.85,65.252 145.174,65.293 145.482,65.303 145.836,65.281 146.218,65.207 146.405,65.146 146.579,65.078 
		146.759,64.979 146.934,64.891 147.083,64.764 147.233,64.627 147.356,64.488 147.468,64.32 147.565,64.135 147.624,63.926 
		147.662,63.711 147.684,63.473 147.674,63.24 147.633,63.035 147.565,62.838 147.479,62.67 147.368,62.502 147.241,62.348 
		147.095,62.209 146.934,62.08 146.571,61.826 146.16,61.609 145.274,61.188 144.822,60.957 144.39,60.713 143.977,60.43 
		143.789,60.279 143.616,60.113 143.448,59.938 143.3,59.74 143.182,59.523 143.063,59.299 142.982,59.045 142.909,58.768 
		142.875,58.482 142.857,58.168 142.875,57.807 142.927,57.461 143.025,57.146 143.135,56.842 143.292,56.574 143.466,56.32 
		143.676,56.092 143.9,55.896 144.164,55.709 144.431,55.553 144.727,55.416 145.05,55.307 145.382,55.221 145.719,55.162 
		146.081,55.119 146.464,55.109 147.045,55.131 147.645,55.211 148.265,55.336 148.567,55.416 148.855,55.514 	"/>
	<polygon points="133.709,55.307 139.674,55.307 139.674,56.723 135.32,56.723 135.32,59.996 139.486,59.996 139.486,61.412 
		135.32,61.412 135.32,66.533 133.709,66.533 	"/>
	<polygon points="54.813,55.307 56.996,55.307 61.949,64.342 61.979,64.342 61.979,55.307 63.591,55.307 63.591,66.533 
		61.537,66.533 56.448,57.301 56.415,57.301 56.415,66.533 54.813,66.533 	"/>
	<path d="M75.73,57.301c-0.787-0.518-1.635-0.775-3.082-0.775c-2.595,0-4.312,1.879-4.312,4.395c0,2.635,1.892,4.383,4.226,4.383
		c0.608,0.016,1.213-0.045,1.804-0.188v-3.408h-2.37v-1.328h3.974v5.84c-1.104,0.359-2.263,0.531-3.425,0.504
		c-3.543,0-5.913-2.289-5.913-5.85c0-3.463,2.515-5.764,5.938-5.764c1.126-0.041,2.25,0.15,3.302,0.564l-0.136,1.627H75.73z"/>
	<polygon points="112.692,55.307 114.305,55.307 114.305,65.115 118.994,65.115 118.994,66.533 112.692,66.533 	"/>
	<path d="M129.834,61.883c0,3.15-1.593,4.838-4.363,4.838c-2.77,0-4.364-1.691-4.364-4.838v-6.576h1.602v6.369
		c0,2.137,0.679,3.627,2.751,3.627c2.068,0,2.753-1.482,2.753-3.627v-6.369h1.614v6.576H129.834z"/>
	<polygon points="153.039,55.307 159.338,55.307 159.338,56.723 154.652,56.723 154.652,59.996 158.917,59.996 158.917,61.412 
		154.652,61.412 154.652,65.115 159.338,65.115 159.338,66.533 153.039,66.533 	"/>
	<polygon points="163.047,55.307 165.24,55.307 170.191,64.342 170.221,64.342 170.221,55.307 171.84,55.307 171.84,66.533 
		169.767,66.533 164.696,57.301 164.664,57.301 164.664,66.533 163.047,66.533 	"/>
	<path d="M35.761,55.328h0.278l0.404,0.057l0.374,0.061l0.34,0.094l0.329,0.111l0.305,0.127l0.271,0.158l0.249,0.186l0.217,0.207
		l0.188,0.227l0.153,0.258l0.125,0.293l0.091,0.303l0.055,0.344l0.02,0.383v0.275l-0.029,0.264l-0.054,0.248l-0.071,0.225
		l-0.083,0.217l-0.112,0.195l-0.128,0.186l-0.133,0.168l-0.167,0.156l-0.171,0.131l-0.188,0.137l-0.208,0.107l-0.219,0.107
		l-0.237,0.09l-0.246,0.086l-0.261,0.07v0.029l0.279,0.037l0.228,0.055l0.261,0.078l0.246,0.096l0.225,0.1l0.219,0.137l0.196,0.146
		l0.183,0.16l0.158,0.186l0.143,0.195l0.136,0.217l0.104,0.232l0.083,0.246l0.049,0.258l0.043,0.268v0.295l0.005,0.439l-0.074,0.396
		l-0.105,0.352l-0.146,0.303l-0.183,0.281l-0.22,0.236l-0.255,0.217l-0.279,0.178l-0.305,0.16l-0.33,0.129l-0.354,0.094l-0.373,0.08
		l-0.379,0.066l-0.407,0.039l-0.236,0.021H35.58h-0.424h-2.993V55.307H35.2h0.437h0.124V55.328z M35.761,60.057l0.262-0.053
		l0.236-0.049l0.217-0.059l0.208-0.086l0.187-0.088l0.166-0.129l0.142-0.145l0.127-0.17l0.104-0.193l0.071-0.234l0.042-0.258
		l0.021-0.303l-0.021-0.242l-0.033-0.217l-0.06-0.195l-0.083-0.176l-0.104-0.15l-0.113-0.135l-0.136-0.117l-0.143-0.102
		l-0.158-0.094l-0.163-0.059l-0.177-0.061l-0.176-0.051l-0.347-0.059H35.77l-0.306-0.021h-1.688v3.48h0.878h0.569l0.537-0.021
		V60.057z M35.761,65.166l0.262-0.029l0.236-0.041l0.226-0.066l0.216-0.07l0.195-0.09l0.178-0.115l0.166-0.127l0.143-0.139
		l0.112-0.176l0.104-0.188l0.074-0.217l0.045-0.244v-0.273v-0.303l-0.054-0.279l-0.083-0.248l-0.113-0.213l-0.133-0.188
		l-0.167-0.158l-0.178-0.131l-0.196-0.115l-0.217-0.107l-0.227-0.07l-0.25-0.059l-0.246-0.043h-0.092L35.34,61.42h-0.516h-1.048
		v3.773h1.199h0.552l0.246-0.021L35.761,65.166z"/>
	<path d="M48.942,62.377l-2.232-5.564l-2.246,5.564H48.942z M46.71,63.701h-2.753l-1.145,2.832h-1.684l4.79-11.227h1.696
		l4.742,11.227h-1.759l-1.136-2.832H46.71z M46.71,56.834l-2.246,5.543l2.246-5.564V56.834z"/>
	<path d="M87.455,65.115l0.062-0.02L87.808,65l0.258-0.139l0.112-0.096l0.112-0.088l1.03-1.043l-1.872-1.857l-0.404-0.395
		l-1.022,1.021l-0.092,0.109l-0.092,0.107l-0.146,0.262l-0.05,0.139l-0.042,0.146l-0.029,0.145v0.158v0.15v0.156l0.029,0.158
		l0.054,0.158l0.062,0.139l0.08,0.145l0.104,0.146l0.127,0.137l0.133,0.119l0.142,0.109l0.145,0.078l0.155,0.07l0.145,0.049
		l0.154,0.029l0.158,0.021h0.157h0.154h0.083V65.115z M87.455,55.109h0.104h0.231l0.208,0.021l0.196,0.043l0.187,0.049l0.305,0.117
		l0.279,0.139l0.226,0.156l0.166,0.137l0.176,0.166L88.4,57.07l-0.124-0.109l-0.181-0.119l-0.113-0.049l-0.125-0.043l-0.142-0.02
		H87.55l-0.104,0.02h-0.092l-0.208,0.051l-0.208,0.107l-0.187,0.129l-0.167,0.168l-0.06,0.105l-0.062,0.1l-0.05,0.117l-0.033,0.121
		l-0.021,0.137v0.145v0.18l0.042,0.15l0.054,0.145l0.062,0.117l0.124,0.178l0.074,0.08l0.733,0.736l2.998,3.006l1.135-1.139
		l1.131,1.139l-1.138,1.123l1.591,1.592l-1.126,1.141l-1.593-1.594l-1.017,1.021l-0.195,0.174l-0.217,0.166l-0.24,0.158
		l-0.255,0.121l-0.279,0.115l-0.279,0.092l-0.305,0.078l-0.208,0.029h-0.092h-0.305l-0.305-0.021l-0.306-0.051l-0.306-0.096
		l-0.306-0.119l-0.304-0.178l-0.306-0.217l-0.292-0.264l-0.269-0.289l-0.231-0.312l-0.166-0.301l-0.139-0.309l-0.083-0.305
		l-0.063-0.307V63.67v-0.311l0.045-0.301l0.06-0.309l0.092-0.275l0.112-0.273l0.137-0.258l0.142-0.236l0.157-0.209l0.175-0.195
		l1.025-1.016l-0.258-0.273l-0.187-0.205l-0.207-0.26l-0.187-0.311l-0.093-0.164l-0.07-0.197l-0.063-0.215l-0.053-0.215
		l-0.029-0.238v-0.246v-0.258l0.044-0.273l0.06-0.244l0.092-0.26l0.113-0.238l0.124-0.242l0.157-0.217l0.179-0.209l0.196-0.186
		l0.216-0.166l0.225-0.139l0.25-0.137l0.258-0.088l0.279-0.086l0.305-0.043h0.196L87.455,55.109z"/>
	<path d="M104.083,55.109h0.311l0.309,0.021l0.302,0.029l0.295,0.051l0.274,0.059l0.276,0.078l0.264,0.09l0.258,0.105l0.237,0.1
		l0.237,0.139l0.227,0.135l0.221,0.141l0.209,0.156l0.194,0.18l0.197,0.172l0.171,0.189l0.165,0.193l0.158,0.219l0.158,0.215
		l0.135,0.227l0.123,0.225l0.129,0.254l0.192,0.502l0.168,0.541l0.059,0.273l0.05,0.295l0.029,0.289l0.031,0.307l0.028,0.303v0.311
		l-0.038,0.609l-0.061,0.611l-0.108,0.568l-0.166,0.543l-0.194,0.51l-0.255,0.475l-0.274,0.449l-0.158,0.207l-0.173,0.195
		l-0.171,0.186l-0.189,0.17l-0.194,0.166l-0.207,0.166l-0.216,0.146l-0.237,0.119l-0.235,0.129l-0.247,0.117l-0.246,0.088
		l-0.273,0.094l-0.267,0.072l-0.288,0.059l-0.293,0.039l-0.302,0.045l-0.309,0.021h-0.629l-0.309-0.021l-0.302-0.045l-0.294-0.039
		l-0.277-0.059l-0.267-0.072l-0.272-0.094l-0.257-0.088l-0.24-0.117l-0.237-0.129l-0.226-0.119l-0.216-0.146l-0.21-0.166
		l-0.193-0.166l-0.196-0.17l-0.178-0.186l-0.167-0.195l-0.154-0.207l-0.157-0.217l-0.134-0.232l-0.127-0.227l-0.112-0.244
		l-0.208-0.512l-0.154-0.541l-0.062-0.283l-0.054-0.287l-0.07-0.609l-0.023-0.611l0.023-0.611l0.07-0.59l0.116-0.568l0.154-0.541
		l0.208-0.504l0.249-0.48l0.278-0.441l0.164-0.217l0.166-0.195l0.174-0.188l0.184-0.176l0.196-0.178l0.219-0.158l0.217-0.137
		l0.216-0.137l0.239-0.137l0.247-0.102l0.259-0.107l0.262-0.088l0.268-0.078l0.289-0.059l0.294-0.051l0.302-0.029l0.311-0.02h0.3
		v-0.008H104.083z M104.083,65.293l0.471-0.02l0.433-0.078l0.403-0.109l0.363-0.166l0.343-0.195l0.302-0.225l0.267-0.273
		l0.253-0.287l0.206-0.309l0.18-0.338l0.151-0.363l0.127-0.383l0.074-0.408l0.078-0.404l0.029-0.412l0.021-0.412l-0.021-0.422
		l-0.039-0.432l-0.068-0.404l-0.1-0.395l-0.129-0.375l-0.158-0.361l-0.194-0.357l-0.207-0.309l-0.247-0.287l-0.274-0.268
		l-0.309-0.23l-0.327-0.182l-0.36-0.156l-0.396-0.115l-0.206-0.043l-0.217-0.027h-0.451h-0.453l-0.413,0.07l-0.394,0.115
		l-0.356,0.156l-0.331,0.182l-0.307,0.23l-0.267,0.268l-0.249,0.287l-0.217,0.309l-0.187,0.346l-0.157,0.361l-0.121,0.391
		l-0.092,0.395l-0.071,0.42l-0.053,0.422v0.426v0.412l0.038,0.412l0.075,0.402l0.091,0.391l0.125,0.383l0.146,0.361l0.187,0.338
		l0.207,0.311l0.238,0.287l0.278,0.273l0.307,0.225l0.328,0.195l0.374,0.166l0.402,0.109l0.208,0.039l0.227,0.035l0.224,0.021
		L104.083,65.293z"/>
</g>
</svg>
