<?xml version="1.0" encoding="utf-8"?>
<!-- Generator: Adobe Illustrator 15.1.0, SVG Export Plug-In . SVG Version: 6.00 Build 0)  -->
<!DOCTYPE svg PUBLIC "-//W3C//DTD SVG 1.1//EN" "http://www.w3.org/Graphics/SVG/1.1/DTD/svg11.dtd">
<svg version="1.1" id="Layer_1" xmlns="http://www.w3.org/2000/svg" xmlns:xlink="http://www.w3.org/1999/xlink" x="0px" y="0px"
	 width="100px" height="100px" viewBox="0 0 100 100" enable-background="new 0 0 100 100" xml:space="preserve">
<g>
	<path d="M50.284,26.761l-0.026-0.624l0.004,0.624c-0.448,0.004-0.818,0.247-1.015,0.669L31.406,65.78
		c4.637,4.275,10.762,6.625,17.299,6.625h23.52L51.299,27.43C51.103,27.008,50.732,26.765,50.284,26.761z"/>
	<path d="M24.123,49.582c0,4.988,1.778,9.857,5.028,13.815l16.985-36.513C33.708,28.087,24.123,37.871,24.123,49.582z"/>
	<path d="M50,0C22.386,0,0,22.386,0,50c0,27.613,22.386,50,50,50c27.613,0,50-22.387,50-50C100,22.386,77.613,0,50,0z
		 M48.705,75.456c-6.944,0-13.53-2.404-18.642-6.789l-3.011,6.472l-2.767-1.285l3.456-7.431c-4.304-4.692-6.668-10.656-6.668-16.841
		c0-14.264,12.396-25.87,27.632-25.87h15.667v3.049H54.354l22.654,48.695H48.705z"/>
</g>
</svg>
