<svg id="Layer_1" data-name="Layer 1" xmlns="http://www.w3.org/2000/svg" viewBox="0 0 187.98 51.2"><defs><style>.cls-1{fill:#e11e4a;}</style></defs><title>hifiberry_logo</title><ellipse class="cls-1" cx="46.09" cy="30.28" rx="4.36" ry="7.09" transform="translate(-7.12 15.79) rotate(-18.07)"/><ellipse class="cls-1" cx="22.96" cy="5.05" rx="4.36" ry="7.09" transform="translate(8.06 23.23) rotate(-63.07)"/><ellipse class="cls-1" cx="37.37" cy="8.03" rx="3.38" ry="4.17" transform="translate(8.38 32.95) rotate(-52.8)"/><ellipse class="cls-1" cx="44.66" cy="16.3" rx="3.38" ry="4.17" transform="translate(4.68 42.02) rotate(-52.81)"/><ellipse class="cls-1" cx="33.48" cy="40.74" rx="10.63" ry="6.31" transform="translate(-13.69 64.32) rotate(-77.15)"/><ellipse class="cls-1" cx="11.52" cy="16.37" rx="11.55" ry="6.85" transform="translate(-1.24 0.95) rotate(-4.46)"/><ellipse class="cls-1" cx="18.69" cy="32.56" rx="11.46" ry="7.23" transform="translate(-15.95 18.09) rotate(-37.47)"/><circle class="cls-1" cx="85.61" cy="14.1" r="2.2"/><circle class="cls-1" cx="111.18" cy="14.1" r="2.2"/><path class="cls-1" d="M80.81,32.85H75.94v-8h-8v8H63.18V13.14h4.74v8.18h8V13.14h4.88v19.7Z"/><rect class="cls-1" x="83.66" y="18.25" width="3.89" height="14.6"/><path class="cls-1" d="M106.89,24.65H95.27v8.2H90.43V20.74a8.36,8.36,0,0,1,.42-2.48,6.28,6.28,0,0,1,3-3.66q2.65-1.46,8.6-1.46h4.4v3.3h-4.68a17.35,17.35,0,0,0-3.78.28,4,4,0,0,0-2.68,2,5.54,5.54,0,0,0-.59,2.58h11.73v3.3Z"/><rect class="cls-1" x="109.23" y="18.25" width="3.89" height="14.6"/><path class="cls-1" d="M134.18,27.52a5.1,5.1,0,0,1-1.58,3.78,5.24,5.24,0,0,1-3.81,1.55H116V13.14h12.29A5.86,5.86,0,0,1,132,14.41a4.75,4.75,0,0,1,1.82,3.33,2.13,2.13,0,0,1,0,.34v0.34a4.81,4.81,0,0,1-3,4.65,5.25,5.25,0,0,1,2.44,1.72A4.36,4.36,0,0,1,134.18,27.52Zm-5.1-.2a2.53,2.53,0,0,0-.62-1.7,2,2,0,0,0-1.58-.72h-6.65V29.5H127a1.91,1.91,0,0,0,1.48-.63A2.2,2.2,0,0,0,129.07,27.32Zm-0.25-8a2.59,2.59,0,0,0-.63-1.75,2.05,2.05,0,0,0-1.62-.73h-6.23v4.71l6.48,0a1.81,1.81,0,0,0,1.44-.66A2.38,2.38,0,0,0,128.82,19.35Z"/><path class="cls-1" d="M161.24,20.53l-4.6.67V32.58h-4.09V17.21h4.09v2.14a4.18,4.18,0,0,1,.81-1.31,3.07,3.07,0,0,1,1.25-.77,7.47,7.47,0,0,1,.76-0.21,3.89,3.89,0,0,1,1.78,0v3.44Z"/><path class="cls-1" d="M172.1,20.53l-4.6.67V32.58H163.4V17.21h4.09v2.14a4.17,4.17,0,0,1,.81-1.31,3.06,3.06,0,0,1,1.25-.77,7.51,7.51,0,0,1,.76-0.21,3.89,3.89,0,0,1,1.78,0v3.44Z"/><path class="cls-1" d="M188,17.21l0,16a4,4,0,0,1-.42,1.83,5,5,0,0,1-1.1,1.44,5.9,5.9,0,0,1-2.14,1.22,9.36,9.36,0,0,1-2.64.33h-8.07v-3.2H182a1.73,1.73,0,0,0,1.07-.39,1.58,1.58,0,0,0,.68-1.26v-0.6H180a7.54,7.54,0,0,1-2.32-.31,4.72,4.72,0,0,1-1.84-1.2,5.12,5.12,0,0,1-1.58-3.82v-10h4.33l0,9.83a3.88,3.88,0,0,0,.08.89,1.55,1.55,0,0,0,.42.65,1.82,1.82,0,0,0,.79.49,3.94,3.94,0,0,0,1.11.13h2.8v-12H188Z"/><path class="cls-1" d="M148.12,18.51A8.2,8.2,0,0,0,143.27,17a7.48,7.48,0,0,0-6.07,2.52c-1.38,1.6-1.49,3.44-1.49,5.59,0,2,0,3.72,1.31,5.24a5.87,5.87,0,0,0,4.58,2.27h7.24V29.79h-5.21a7.64,7.64,0,0,1-1.71-.16,2.54,2.54,0,0,1-1.21-.65,2.5,2.5,0,0,1-.67-1,3.81,3.81,0,0,1-.16-1.2h10.26c0.18-1.25.23-2.92,0.23-2.92C150.39,21.59,150.08,19.9,148.12,18.51Zm-8.23,5.07a3,3,0,0,1,2.27-3,4.35,4.35,0,0,1,2.17,0,3,3,0,0,1,2.27,3h-6.71Z"/></svg>