<?xml version="1.0" encoding="UTF-8" standalone="no"?><!DOCTYPE svg PUBLIC "-//W3C//DTD SVG 1.1//EN" "http://www.w3.org/Graphics/SVG/1.1/DTD/svg11.dtd"><svg width="100%" height="100%" viewBox="-1 -1 23 23" version="1.1" xmlns="http://www.w3.org/2000/svg" xmlns:xlink="http://www.w3.org/1999/xlink" xml:space="preserve" xmlns:serif="http://www.serif.com/" style="fill-rule:evenodd;clip-rule:evenodd;stroke-linecap:round;stroke-linejoin:round;"><path d="M7.5,14.5l-3,0c-2.208,0 -4,-1.792 -4,-4c0,-2.208 1.792,-4 4,-4l4,0c2.208,0 4,1.792 4,4c0,0.728 -0.195,1.412 -0.536,2" style="fill:none;stroke:#000;stroke-width:1px;"/><path d="M13.5,6.5l3,0c2.208,0 4,1.792 4,4c0,2.208 -1.792,4 -4,4l-4,0c-2.208,0 -4,-1.792 -4,-4c0,-0.728 0.195,-1.412 0.536,-2" style="fill:none;stroke:#000;stroke-opacity:0.25;stroke-width:1px;"/></svg>