<?xml version="1.0" encoding="UTF-8" standalone="no"?><!DOCTYPE svg PUBLIC "-//W3C//DTD SVG 1.1//EN" "http://www.w3.org/Graphics/SVG/1.1/DTD/svg11.dtd"><svg width="100%" height="100%" viewBox="-1 -1 23 23" version="1.1" xmlns="http://www.w3.org/2000/svg" xmlns:xlink="http://www.w3.org/1999/xlink" xml:space="preserve" xmlns:serif="http://www.serif.com/" style="fill-rule:evenodd;clip-rule:evenodd;stroke-linejoin:round;stroke-miterlimit:2;"><path d="M18.056,1.001c1.022,0.038 1.905,0.915 1.943,1.943c0.063,5.037 0.063,10.075 0,15.112c-0.037,1.02 -0.91,1.905 -1.943,1.943c-5.037,0.063 -10.075,0.063 -15.112,0c-1.02,-0.037 -1.905,-0.91 -1.943,-1.943c-0.063,-5.037 -0.063,-10.075 0,-15.112c0.038,-1.022 0.915,-1.905 1.943,-1.943c5.037,-0.063 10.075,-0.063 15.112,0Zm-6.046,8.515c1.031,-1.432 2.069,-2.858 3.08,-4.303c0.109,-0.141 0.172,-0.223 0.454,-0.211c0.348,0.046 0.554,0.431 0.389,0.748c-1.031,1.619 -2.127,3.195 -3.243,4.757c1.071,1.571 2.13,3.15 3.22,4.706c0.287,0.451 -0.419,1.016 -0.793,0.608c-1.085,-1.414 -2.116,-2.869 -3.127,-4.337c-1.031,1.432 -2.069,2.858 -3.08,4.303c-0.323,0.42 -1.099,-0.044 -0.843,-0.537c1.031,-1.619 2.127,-3.195 3.243,-4.757c-1.071,-1.571 -2.13,-3.15 -3.22,-4.706c-0.216,-0.34 -0.065,-0.808 0.454,-0.785c0.199,0.026 0.252,0.082 0.339,0.177c1.085,1.414 2.116,2.869 3.127,4.337Zm-4.015,0.984c0,-0.276 -0.224,-0.5 -0.5,-0.5l-2.995,0c-0.276,0 -0.5,0.224 -0.5,0.5c0,0.276 0.224,0.5 0.5,0.5l2.995,0c0.276,0 0.5,-0.224 0.5,-0.5Z"/></svg>