<?xml version="1.0" encoding="utf-8"?>
<!-- Generator: Adobe Illustrator 15.1.0, SVG Export Plug-In . SVG Version: 6.00 Build 0)  -->
<!DOCTYPE svg PUBLIC "-//W3C//DTD SVG 1.1//EN" "http://www.w3.org/Graphics/SVG/1.1/DTD/svg11.dtd">
<svg version="1.1" id="Layer_1" xmlns="http://www.w3.org/2000/svg" xmlns:xlink="http://www.w3.org/1999/xlink" x="0px" y="0px"
	 width="22px" height="22px" viewBox="0 0 22 22" enable-background="new 0 0 22 22" xml:space="preserve">
<path fill="none" stroke="#FFFFFF" stroke-linecap="round" stroke-miterlimit="10" d="M20,18c0,1.104-0.896,2-2,2H4
	c-1.104,0-2-0.896-2-2V4c0-1.104,0.896-2,2-2h14c1.104,0,2,0.896,2,2V18z"/>
<path fill="none" stroke="#FFFFFF" stroke-linecap="round" stroke-miterlimit="10" d="M11,15.5"/>
<path fill="none" stroke="#FFFFFF" stroke-linecap="round" stroke-miterlimit="10" d="M14,2.5c0,0,0,2,0,4c0,3-6-4-6,4.5
	s6,1.5,6,4.5c0,2,0,4,0,4"/>
</svg>
