<?xml version="1.0" encoding="utf-8"?>
<!-- Generator: Adobe Illustrator 15.1.0, SVG Export Plug-In . SVG Version: 6.00 Build 0)  -->
<!DOCTYPE svg PUBLIC "-//W3C//DTD SVG 1.1//EN" "http://www.w3.org/Graphics/SVG/1.1/DTD/svg11.dtd">
<svg version="1.1" id="Layer_1" xmlns="http://www.w3.org/2000/svg" xmlns:xlink="http://www.w3.org/1999/xlink" x="0px" y="0px"
	 width="22px" height="22px" viewBox="0 0 22 22" enable-background="new 0 0 22 22" xml:space="preserve">
<g id="Settings">
	<circle fill="none" stroke="#000000" stroke-miterlimit="10" cx="11" cy="11" r="3.5"/>
	<line fill="none" stroke="#000000" stroke-miterlimit="10" x1="14.667" y1="11" x2="22" y2="11"/>
	<line fill="none" stroke="#000000" stroke-miterlimit="10" x1="12.133" y1="14.488" x2="14.398" y2="21.462"/>
	<line fill="none" stroke="#000000" stroke-miterlimit="10" x1="12.134" y1="7.513" x2="14.398" y2="0.538"/>
	<line fill="none" stroke="#000000" stroke-miterlimit="10" x1="8.036" y1="8.846" x2="2.101" y2="4.534"/>
	<line fill="none" stroke="#000000" stroke-miterlimit="10" x1="8.035" y1="13.154" x2="2.101" y2="17.466"/>
	<line fill="none" stroke="#000000" stroke-miterlimit="10" x1="20" y1="11" x2="22" y2="11"/>
	<line fill="none" stroke="#000000" stroke-miterlimit="10" x1="13.779" y1="19.561" x2="14.398" y2="21.462"/>
	<line fill="none" stroke="#000000" stroke-miterlimit="10" x1="13.782" y1="2.44" x2="14.398" y2="0.539"/>
	<line fill="none" stroke="#000000" stroke-miterlimit="10" x1="3.721" y1="5.71" x2="2.101" y2="4.534"/>
	<line fill="none" stroke="#000000" stroke-miterlimit="10" x1="3.719" y1="16.29" x2="2.101" y2="17.466"/>
	<line fill="none" stroke="#000000" stroke-miterlimit="10" x1="0" y1="11" x2="2.095" y2="11"/>
	<line fill="none" stroke="#000000" stroke-miterlimit="10" x1="19.471" y1="8.248" x2="21.462" y2="7.601"/>
	<line fill="none" stroke="#000000" stroke-miterlimit="10" x1="0.538" y1="14.398" x2="2.529" y2="13.752"/>
	<line fill="none" stroke="#000000" stroke-miterlimit="10" x1="18.203" y1="5.767" x2="19.898" y2="4.534"/>
	<line fill="none" stroke="#000000" stroke-miterlimit="10" x1="16.234" y1="3.796" x2="17.466" y2="2.101"/>
	<line fill="none" stroke="#000000" stroke-miterlimit="10" x1="4.534" y1="19.898" x2="5.766" y2="18.205"/>
	<line fill="none" stroke="#000000" stroke-miterlimit="10" x1="7.602" y1="21.462" x2="8.249" y2="19.471"/>
	<line fill="none" stroke="#000000" stroke-miterlimit="10" x1="10.999" y1="2.095" x2="10.999" y2="0"/>
	<line fill="none" stroke="#000000" stroke-miterlimit="10" x1="11.001" y1="22" x2="11.001" y2="19.904"/>
	<line fill="none" stroke="#000000" stroke-miterlimit="10" x1="8.246" y1="2.526" x2="7.601" y2="0.538"/>
	<line fill="none" stroke="#000000" stroke-miterlimit="10" x1="5.768" y1="3.799" x2="4.533" y2="2.101"/>
	<line fill="none" stroke="#000000" stroke-miterlimit="10" x1="17.467" y1="19.898" x2="16.236" y2="18.206"/>
	<line fill="none" stroke="#000000" stroke-miterlimit="10" x1="19.9" y1="17.466" x2="18.207" y2="16.234"/>
	<line fill="none" stroke="#000000" stroke-miterlimit="10" x1="2.534" y1="8.25" x2="0.537" y2="7.602"/>
	<line fill="none" stroke="#000000" stroke-miterlimit="10" x1="21.463" y1="14.398" x2="19.473" y2="13.752"/>
	<circle fill="none" stroke="#000000" stroke-miterlimit="10" cx="11" cy="11" r="9"/>
	<circle fill="#000000" cx="11" cy="11" r="1"/>
</g>
</svg>
