<?xml version="1.0" encoding="UTF-8" standalone="no"?><!DOCTYPE svg PUBLIC "-//W3C//DTD SVG 1.1//EN" "http://www.w3.org/Graphics/SVG/1.1/DTD/svg11.dtd"><svg width="100%" height="100%" viewBox="-1 -1 23 23" version="1.1" xmlns="http://www.w3.org/2000/svg" xmlns:xlink="http://www.w3.org/1999/xlink" xml:space="preserve" xmlns:serif="http://www.serif.com/" style="fill-rule:evenodd;clip-rule:evenodd;stroke-linecap:round;stroke-linejoin:round;"><path d="M12.5,4.5l0,12l-3,-3l-2,0c-0.633,-0.01 -0.992,-0.313 -1,-1l0,-4c-0.002,-0.656 0.325,-0.991 1,-1l2,0l3,-3Z" style="fill:none;stroke:#fff;stroke-width:1px;"/><path d="M16.666,2.629c2.334,1.831 3.834,4.677 3.834,7.871c0,5.519 -4.481,10 -10,10c-5.519,0 -10,-4.481 -10,-10c0,-5.519 4.481,-10 10,-10" style="fill:none;stroke:#fff;stroke-width:1px;stroke-linejoin:miter;"/><path d="M19.5,2.5l-3,0l0,3" style="fill:none;stroke:#fff;stroke-width:1px;stroke-linejoin:miter;"/></svg>