<?xml version="1.0" encoding="utf-8"?>
<!-- Generator: Adobe Illustrator 15.1.0, SVG Export Plug-In . SVG Version: 6.00 Build 0)  -->
<!DOCTYPE svg PUBLIC "-//W3C//DTD SVG 1.1//EN" "http://www.w3.org/Graphics/SVG/1.1/DTD/svg11.dtd">
<svg version="1.1" id="Layer_2" xmlns="http://www.w3.org/2000/svg" xmlns:xlink="http://www.w3.org/1999/xlink" x="0px" y="0px"
	 width="22px" height="22px" viewBox="0 0 22 22" enable-background="new 0 0 22 22" xml:space="preserve">
<path fill="none" stroke="#000000" stroke-linecap="round" stroke-miterlimit="10" d="M4.574,16.301C2.981,14.678,2,12.453,2,10
	c0-4.971,4.029-9,9-9c4.971,0,9,4.029,9,9c0,2.454-0.982,4.68-2.575,6.303"/>
<path fill="none" stroke="#000000" stroke-linecap="round" stroke-miterlimit="10" d="M6.499,13.967C5.566,12.91,5,11.521,5,10
	c0-3.313,2.687-6,6-6c3.312,0,6,2.687,6,6c0,1.521-0.564,2.909-1.498,3.967"/>
<path fill="none" stroke="#000000" stroke-linecap="round" stroke-miterlimit="10" d="M8.453,11.587C8.166,11.126,8,10.583,8,10
	c0-1.657,1.343-3,3-3s3,1.343,3,3c0,0.584-0.167,1.128-0.455,1.588"/>
<polygon fill="none" stroke="#000000" stroke-linecap="round" stroke-linejoin="round" stroke-miterlimit="10" points="18,20 
	11,11.5 4,20 "/>
</svg>
