<?xml version="1.0" encoding="utf-8"?>
<!-- Generator: Adobe Illustrator 15.1.0, SVG Export Plug-In . SVG Version: 6.00 Build 0)  -->
<!DOCTYPE svg PUBLIC "-//W3C//DTD SVG 1.1//EN" "http://www.w3.org/Graphics/SVG/1.1/DTD/svg11.dtd">
<svg version="1.1" id="Layer_2" xmlns="http://www.w3.org/2000/svg" xmlns:xlink="http://www.w3.org/1999/xlink" x="0px" y="0px"
	 width="22px" height="22px" viewBox="0 0 22 22" enable-background="new 0 0 22 22" xml:space="preserve">
<path fill="none" stroke="#000000" stroke-miterlimit="10" d="M5,5.5v13.426C5,18.926,5,20,6.2,20c1.2,0,8.399,0,9.6,0
	c1.201,0,1.2-1.074,1.2-1.074V5.5"/>
<line fill="none" stroke="#000000" stroke-linecap="round" stroke-miterlimit="10" x1="8" y1="8" x2="8" y2="17"/>
<line fill="none" stroke="#000000" stroke-linecap="round" stroke-miterlimit="10" x1="11" y1="8" x2="11" y2="17"/>
<line fill="none" stroke="#000000" stroke-linecap="round" stroke-miterlimit="10" x1="14" y1="8" x2="14" y2="17"/>
<path fill="none" stroke="#000000" stroke-miterlimit="10" d="M14,4.5V4c0,0,0-2-2-2c-1,0-1,0-2,0C8,2,8,4,8,4v0.5"/>
<line fill="none" stroke="#000000" stroke-linecap="round" stroke-miterlimit="10" x1="4" y1="5" x2="18" y2="5"/>
</svg>
