<?xml version="1.0" encoding="utf-8"?>
<!-- Generator: Adobe Illustrator 15.1.0, SVG Export Plug-In . SVG Version: 6.00 Build 0)  -->
<!DOCTYPE svg PUBLIC "-//W3C//DTD SVG 1.1//EN" "http://www.w3.org/Graphics/SVG/1.1/DTD/svg11.dtd">
<svg version="1.1" id="Layer_2" xmlns="http://www.w3.org/2000/svg" xmlns:xlink="http://www.w3.org/1999/xlink" x="0px" y="0px"
	 width="22px" height="22px" viewBox="0 0 22 22" enable-background="new 0 0 22 22" xml:space="preserve">
<g>
	
		<line fill="none" stroke="#000000" stroke-linecap="round" stroke-linejoin="round" stroke-miterlimit="10" x1="2.5" y1="8" x2="0.5" y2="8"/>
	
		<line fill="none" stroke="#000000" stroke-linecap="round" stroke-linejoin="round" stroke-miterlimit="10" x1="2.5" y1="11" x2="0.5" y2="11"/>
	
		<line fill="none" stroke="#000000" stroke-linecap="round" stroke-linejoin="round" stroke-miterlimit="10" x1="2.5" y1="14" x2="0.5" y2="14"/>
</g>
<g>
	
		<line fill="none" stroke="#000000" stroke-linecap="round" stroke-linejoin="round" stroke-miterlimit="10" x1="21.5" y1="8" x2="19.5" y2="8"/>
	
		<line fill="none" stroke="#000000" stroke-linecap="round" stroke-linejoin="round" stroke-miterlimit="10" x1="21.5" y1="11" x2="19.5" y2="11"/>
	
		<line fill="none" stroke="#000000" stroke-linecap="round" stroke-linejoin="round" stroke-miterlimit="10" x1="21.5" y1="14" x2="19.5" y2="14"/>
</g>
<g>
	
		<line fill="none" stroke="#000000" stroke-linecap="round" stroke-linejoin="round" stroke-miterlimit="10" x1="8" y1="19.5" x2="8" y2="21.5"/>
	
		<line fill="none" stroke="#000000" stroke-linecap="round" stroke-linejoin="round" stroke-miterlimit="10" x1="11" y1="19.5" x2="11" y2="21.5"/>
	
		<line fill="none" stroke="#000000" stroke-linecap="round" stroke-linejoin="round" stroke-miterlimit="10" x1="14" y1="19.5" x2="14" y2="21.5"/>
</g>
<g>
	
		<line fill="none" stroke="#000000" stroke-linecap="round" stroke-linejoin="round" stroke-miterlimit="10" x1="8" y1="0.5" x2="8" y2="2.5"/>
	
		<line fill="none" stroke="#000000" stroke-linecap="round" stroke-linejoin="round" stroke-miterlimit="10" x1="11" y1="0.5" x2="11" y2="2.5"/>
	
		<line fill="none" stroke="#000000" stroke-linecap="round" stroke-linejoin="round" stroke-miterlimit="10" x1="14" y1="0.5" x2="14" y2="2.5"/>
</g>
<path fill="none" stroke="#000000" stroke-linecap="round" stroke-linejoin="round" stroke-miterlimit="10" d="M7.5,11
	c0,0,0.875-1,1.75-1c1.75,0,1.75,2,3.5,2c0.875,0,1.75-1,1.75-1"/>
<path fill="none" stroke="#000000" stroke-linecap="round" stroke-miterlimit="10" d="M19,17c0,1.104-0.896,2-2,2H5
	c-1.104,0-2-0.896-2-2V5c0-1.104,0.896-2,2-2h12c1.104,0,2,0.896,2,2V17z"/>
</svg>
