<?xml version="1.0" encoding="utf-8"?>
<!-- Generator: Adobe Illustrator 15.1.0, SVG Export Plug-In . SVG Version: 6.00 Build 0)  -->
<!DOCTYPE svg PUBLIC "-//W3C//DTD SVG 1.1//EN" "http://www.w3.org/Graphics/SVG/1.1/DTD/svg11.dtd">
<svg version="1.1" id="Layer_2" xmlns="http://www.w3.org/2000/svg" xmlns:xlink="http://www.w3.org/1999/xlink" x="0px" y="0px"
	 width="22px" height="22px" viewBox="0 0 22 22" enable-background="new 0 0 22 22" xml:space="preserve">
<polyline fill="none" stroke="#000000" stroke-linecap="round" stroke-miterlimit="10" points="6.5,5.5 1,11 6.5,16.5 "/>
<polyline fill="none" stroke="#000000" stroke-linecap="round" stroke-miterlimit="10" points="15.5,16.5 21,11 15.5,5.5 "/>
<path fill="#000000" d="M8,11c0,0.553-0.448,1-1,1l0,0c-0.552,0-1-0.447-1-1l0,0c0-0.552,0.448-1,1-1l0,0C7.552,10,8,10.448,8,11
	L8,11z"/>
<path fill="#000000" d="M12,11c0,0.553-0.447,1-1,1l0,0c-0.552,0-1-0.447-1-1l0,0c0-0.552,0.448-1,1-1l0,0
	C11.553,10,12,10.448,12,11L12,11z"/>
<path fill="#000000" d="M16,11c0,0.553-0.447,1-1,1l0,0c-0.553,0-1-0.447-1-1l0,0c0-0.552,0.447-1,1-1l0,0
	C15.553,10,16,10.448,16,11L16,11z"/>
</svg>
