<?xml version="1.0" encoding="utf-8"?>
<!-- Generator: Adobe Illustrator 15.1.0, SVG Export Plug-In . SVG Version: 6.00 Build 0)  -->
<!DOCTYPE svg PUBLIC "-//W3C//DTD SVG 1.1//EN" "http://www.w3.org/Graphics/SVG/1.1/DTD/svg11.dtd">
<svg version="1.1" id="Layer_1" xmlns="http://www.w3.org/2000/svg" xmlns:xlink="http://www.w3.org/1999/xlink" x="0px" y="0px"
	 width="22px" height="22px" viewBox="0 0 22 22" enable-background="new 0 0 22 22" xml:space="preserve">
<circle fill="none" stroke="#000000" stroke-miterlimit="10" cx="11" cy="11" r="3.5"/>
<path fill="none" stroke="#000000" stroke-miterlimit="10" d="M15.948,6.048C17.216,7.315,18,9.066,18,11
	c0,1.934-0.783,3.684-2.05,4.95"/>
<path fill="none" stroke="#000000" stroke-miterlimit="10" d="M6.052,15.951C4.784,14.685,4,12.934,4,11
	c0-1.933,0.783-3.683,2.05-4.95"/>
<path fill="none" stroke="#000000" stroke-miterlimit="10" d="M18.068,3.927C19.88,5.736,21,8.237,21,11
	c0,2.762-1.119,5.262-2.929,7.071"/>
<path fill="none" stroke="#000000" stroke-miterlimit="10" d="M3.931,18.072C2.12,16.262,1,13.762,1,11
	c0-2.761,1.119-5.261,2.929-7.071"/>
</svg>
