<?xml version="1.0" encoding="utf-8"?>
<!-- Generator: Adobe Illustrator 15.1.0, SVG Export Plug-In . SVG Version: 6.00 Build 0)  -->
<!DOCTYPE svg PUBLIC "-//W3C//DTD SVG 1.1//EN" "http://www.w3.org/Graphics/SVG/1.1/DTD/svg11.dtd">
<svg version="1.1" id="Layer_1" xmlns="http://www.w3.org/2000/svg" xmlns:xlink="http://www.w3.org/1999/xlink" x="0px" y="0px"
	 width="22px" height="22px" viewBox="0 0 22 22" enable-background="new 0 0 22 22" xml:space="preserve">
<polygon fill="none" stroke="#000000" stroke-miterlimit="10" points="12,2 12,20 7,15 2,15 2,7 7,7 "/>
<g>
	<path d="M18,5.5c0.827,0,1.5,0.673,1.5,1.5S18.827,8.5,18,8.5S16.5,7.827,16.5,7S17.173,5.5,18,5.5 M18,4.5
		c-1.381,0-2.5,1.119-2.5,2.5s1.119,2.5,2.5,2.5s2.5-1.119,2.5-2.5S19.381,4.5,18,4.5L18,4.5z"/>
</g>
<line fill="none" stroke="#000000" stroke-linecap="round" stroke-miterlimit="10" x1="18" y1="4.5" x2="18" y2="2.5"/>
<line fill="none" stroke="#000000" stroke-linecap="round" stroke-miterlimit="10" x1="18" y1="9.5" x2="18" y2="19.5"/>
</svg>
