<?xml version="1.0" encoding="utf-8"?>
<!-- Generator: Adobe Illustrator 15.1.0, SVG Export Plug-In . SVG Version: 6.00 Build 0)  -->
<!DOCTYPE svg PUBLIC "-//W3C//DTD SVG 1.1//EN" "http://www.w3.org/Graphics/SVG/1.1/DTD/svg11.dtd">
<svg version="1.1" id="Layer_2" xmlns="http://www.w3.org/2000/svg" xmlns:xlink="http://www.w3.org/1999/xlink" x="0px" y="0px"
	 width="22px" height="22px" viewBox="0 0 22 22" enable-background="new 0 0 22 22" xml:space="preserve">
<g opacity="0.25">
	<g>
		<path d="M0.5,7.849C3.239,5.084,7.108,3.482,11,3.5c3.892-0.018,7.762,1.584,10.5,4.349l-0.71,0.704
			c-1.271-1.283-2.813-2.305-4.49-2.999C14.612,4.86,12.837,4.492,10.979,4.5C9.207,4.492,7.369,4.86,5.7,5.555
			C4.016,6.257,2.5,7.252,1.192,8.571L0.5,7.849z"/>
	</g>
</g>
<g>
	<g>
		<path d="M3,10.349c2.086-2.107,5.035-3.327,8-3.313c2.965-0.014,5.913,1.207,8,3.313l-0.71,0.704
			c-1.894-1.912-4.589-3.033-7.294-3.017C9.652,8.03,8.302,8.304,7.053,8.821c-1.257,0.524-2.379,1.259-3.361,2.25L3,10.349z"/>
	</g>
</g>
<g>
	<g>
		<path d="M5.5,12.85c1.435-1.449,3.461-2.288,5.5-2.28c2.038-0.008,4.065,0.831,5.5,2.28l-0.711,0.704
			c-0.619-0.626-1.374-1.127-2.195-1.467c-0.833-0.341-1.684-0.521-2.616-0.518c-0.844-0.003-1.758,0.177-2.572,0.518
			c-0.83,0.349-1.558,0.823-2.214,1.484L5.5,12.85z"/>
	</g>
</g>
<g>
	<g>
		<path d="M11,15.107c0.521,0,1.024,0.122,1.475,0.353L11,16.936L9.525,15.46C9.976,15.229,10.479,15.107,11,15.107 M11,14.107
			c-1.086,0-2.172,0.414-3,1.242l3,3l3-3C13.172,14.521,12.086,14.107,11,14.107L11,14.107z"/>
	</g>
</g>
</svg>
