<?xml version="1.0" encoding="utf-8"?>
<!-- Generator: Adobe Illustrator 15.1.0, SVG Export Plug-In . SVG Version: 6.00 Build 0)  -->
<!DOCTYPE svg PUBLIC "-//W3C//DTD SVG 1.1//EN" "http://www.w3.org/Graphics/SVG/1.1/DTD/svg11.dtd">
<svg version="1.1" id="Layer_2" xmlns="http://www.w3.org/2000/svg" xmlns:xlink="http://www.w3.org/1999/xlink" x="0px" y="0px"
	 width="22px" height="22px" viewBox="0 0 22 22" enable-background="new 0 0 22 22" xml:space="preserve">
<g>
	<path fill="#000000" d="M18.5,9.5v5h-5v-5H18.5 M19.5,8.5h-7v7h7V8.5L19.5,8.5z"/>
</g>
<g>
	<path fill="#000000" d="M17.5,4.5v4h-3v-4H17.5 M18.5,3.5h-5v6h5V3.5L18.5,3.5z"/>
</g>
<path fill="none" stroke="#000000" stroke-miterlimit="10" d="M16,15.5v1c0,0,0,3-3,3s-3-3-3-3v-11c0,0,0-3-3-3s-3,3-3,3v9"/>
<line fill="none" stroke="#000000" stroke-miterlimit="10" x1="16" y1="3.5" x2="16" y2="6.5"/>
</svg>
