<?xml version="1.0" encoding="utf-8"?>
<!-- Generator: Adobe Illustrator 15.1.0, SVG Export Plug-In . SVG Version: 6.00 Build 0)  -->
<!DOCTYPE svg PUBLIC "-//W3C//DTD SVG 1.1//EN" "http://www.w3.org/Graphics/SVG/1.1/DTD/svg11.dtd">
<svg version="1.1" id="Layer_1" xmlns="http://www.w3.org/2000/svg" xmlns:xlink="http://www.w3.org/1999/xlink" x="0px" y="0px"
	 width="283.524px" height="23.618px" viewBox="0 0 283.524 23.618" enable-background="new 0 0 283.524 23.618"
	 xml:space="preserve">
<path d="M0,0.392h6.17c4.733,0,7.998,1.535,7.998,5.746c0,3.135-1.828,4.701-4.701,5.42v0.064c3.102,0.262,5.289,2.285,5.289,5.484
	c0,4.897-4.048,6.072-8.684,6.072H0V0.392z M3.264,20.503h2.449c2.938,0,5.582-0.621,5.582-3.689c0-3.525-3.101-4.016-5.908-4.016
	H3.264V20.503z M3.264,10.12H5.06c3.167,0,5.844-0.293,5.844-3.656c0-2.709-2.317-3.395-4.211-3.395H3.264V10.12z"/>
<path d="M27.918,0.392h3.428l9.631,22.787h-3.559l-2.317-5.745H23.936l-2.318,5.745h-3.428L27.918,0.392z M29.518,3.461
	l-4.538,11.296h9.076L29.518,3.461z"/>
<path d="M45.971,0.392h4.439l10.056,18.348h0.065V0.392h3.265v22.787h-4.179L49.301,4.44h-0.065v18.738h-3.265V0.392z"/>
<path d="M88.445,4.44c-1.6-1.045-3.33-1.567-6.268-1.567c-5.257,0-8.75,3.819-8.75,8.913c0,5.354,3.853,8.912,8.587,8.912
	c2.252,0,2.84-0.229,3.656-0.392v-6.921h-4.799v-2.678h8.063V22.56c-1.241,0.424-3.396,1.012-6.954,1.012
	c-7.215,0-12.014-4.637-12.014-11.883C69.968,4.669,75.061,0,82.015,0c3.329,0,4.799,0.489,6.692,1.144L88.445,4.44z"/>
<path d="M146.002,0c6.922,0,10.97,5.028,10.97,11.786c0,6.92-4.016,11.785-10.97,11.785c-6.953,0-10.969-4.865-10.969-11.785
	C135.033,5.028,139.081,0,146.002,0z M146.002,20.698c5.257,0,7.509-4.375,7.509-8.912c0-4.637-2.48-8.945-7.509-8.913
	c-5.027-0.032-7.508,4.276-7.508,8.913C138.494,16.323,140.746,20.698,146.002,20.698z"/>
<path d="M163.471,0.392h3.265v19.915h9.533v2.872h-12.798V0.392z"/>
<path d="M198.261,13.745c0,6.398-3.232,9.826-8.848,9.826s-8.847-3.428-8.847-9.826V0.392h3.265v12.928
	c0,4.375,1.371,7.379,5.582,7.379c4.212,0,5.583-3.004,5.583-7.379V0.392h3.265V13.745z"/>
<path d="M206.139,0.392h12.111v2.873h-8.847v6.66h8.455v2.873h-8.455v10.381h-3.265V0.392z"/>
<path d="M236.434,3.819c-1.665-0.652-2.579-0.946-4.276-0.946c-1.828,0-3.983,0.653-3.983,3.036c0,4.375,9.794,3.363,9.794,10.871
	c0,4.865-3.754,6.791-8.324,6.791c-1.6,0-3.167-0.457-4.669-0.947l0.326-3.035c1.11,0.457,3.069,1.109,4.734,1.109
	c1.86,0,4.473-1.045,4.473-3.722c0-5.093-9.794-3.688-9.794-10.773c0-4.048,3.199-6.203,7.312-6.203
	c1.502,0,3.297,0.261,4.864,0.816L236.434,3.819z"/>
<path d="M245.387,0.392h12.765v2.873h-9.5v6.66h8.651v2.873h-8.651v7.509h9.5v2.872h-12.765V0.392z"/>
<path d="M265.699,0.392h4.44l10.056,18.348h0.064V0.392h3.265v22.787h-4.179L269.029,4.44h-0.065v18.738h-3.265V0.392z"/>
<path d="M121.558,22.845c0,0-2.581-2.582-3.227-3.227c-0.542,0.525-1.076,1.059-2.088,2.07c-2.002,2.004-6.132,3.078-9.194,0.017
	c-3.107-3.107-1.928-7.298-0.016-9.21c0.741-0.741,1.625-1.609,2.087-2.072c-0.398-0.43-2.358-1.959-2.358-4.732
	c0-2.868,2.311-5.688,5.689-5.688c2.47,0,3.855,1.514,4.031,1.688c-0.167,0.168-2.036,2.028-2.299,2.291
	c-0.251-0.263-0.824-0.717-1.732-0.717c-1.068,0-2.438,0.864-2.438,2.438c0,0.991,0.657,1.649,0.741,1.733
	c1.088,1.087,7.564,7.589,7.564,7.589l2.307-2.307l2.295,2.307l-2.307,2.295l3.227,3.227L121.558,22.845z M111.415,12.733
	c0,0-0.964,0.965-2.071,2.072s-1.435,3.154,0,4.589c1.434,1.435,3.474,1.115,4.589,0.017c1.115-1.1,2.104-2.104,2.104-2.104
	L111.415,12.733z"/>
</svg>
