<?xml version="1.0" encoding="UTF-8" standalone="no"?><!DOCTYPE svg PUBLIC "-//W3C//DTD SVG 1.1//EN" "http://www.w3.org/Graphics/SVG/1.1/DTD/svg11.dtd"><svg width="100%" height="100%" viewBox="-1 -1 23 23" version="1.1" xmlns="http://www.w3.org/2000/svg" xmlns:xlink="http://www.w3.org/1999/xlink" xml:space="preserve" xmlns:serif="http://www.serif.com/" style="fill-rule:evenodd;clip-rule:evenodd;stroke-linecap:round;stroke-linejoin:round;"><path d="M18.5,1.5c0,0 0.321,0.128 0.733,0.293c0.995,0.398 1.511,1.498 1.181,2.518c-0.575,1.777 -1.493,4.615 -2.381,7.359c-0.355,1.098 -1.378,1.843 -2.533,1.843c-1.155,0 -2.178,-0.745 -2.533,-1.843c-0.883,-2.728 -1.795,-5.548 -2.371,-7.328c-0.335,-1.037 0.19,-2.156 1.202,-2.561c0.397,-0.159 0.702,-0.281 0.702,-0.281" style="fill:none;stroke:#fff;stroke-width:1px;"/><path d="M15.5,15.5l0,0.368c0,0.698 -0.277,1.368 -0.771,1.861c-0.493,0.494 -1.163,0.771 -1.861,0.771c0,0 -0.001,0 -0.001,0c-1.11,0 -2.09,-0.724 -2.416,-1.785c-0.766,-2.487 -2.145,-6.971 -2.908,-9.449c-0.323,-1.05 -1.293,-1.766 -2.391,-1.766l-0.002,0c-1.464,0 -2.65,1.186 -2.65,2.65c0,1.198 0,2.35 0,2.35" style="fill:none;stroke:#fff;stroke-width:1px;"/><circle cx="2.5" cy="14.5" r="2" style="fill:none;stroke:#fff;stroke-width:1px;"/></svg>