<?xml version="1.0" encoding="UTF-8" standalone="no"?><!DOCTYPE svg PUBLIC "-//W3C//DTD SVG 1.1//EN" "http://www.w3.org/Graphics/SVG/1.1/DTD/svg11.dtd"><svg width="100%" height="100%" viewBox="-1 -1 23 23" version="1.1" xmlns="http://www.w3.org/2000/svg" xmlns:xlink="http://www.w3.org/1999/xlink" xml:space="preserve" xmlns:serif="http://www.serif.com/" style="fill-rule:evenodd;clip-rule:evenodd;stroke-linecap:round;stroke-linejoin:round;"><path d="M17.5,10.473c0,-0.258 -0.102,-0.506 -0.285,-0.688c-0.182,-0.183 -0.43,-0.285 -0.688,-0.285c-2.564,0 -9.49,0 -12.054,0c-0.258,0 -0.506,0.102 -0.688,0.285c-0.183,0.182 -0.285,0.43 -0.285,0.688c0,1.912 0,6.142 0,8.054c0,0.258 0.102,0.506 0.285,0.688c0.182,0.183 0.43,0.285 0.688,0.285c2.564,0 9.49,0 12.054,0c0.258,0 0.506,-0.102 0.688,-0.285c0.183,-0.182 0.285,-0.43 0.285,-0.688c0,-1.912 0,-6.142 0,-8.054Z" style="fill:none;stroke:#fff;stroke-width:1px;"/><path d="M5.5,7.5c0,0 0,-0.872 0,-2c0,-1.326 0.527,-2.598 1.464,-3.536c0.938,-0.937 2.21,-1.464 3.536,-1.464c0,0 0,0 0,0c1.326,0 2.598,0.527 3.536,1.464c0.937,0.938 1.464,2.21 1.464,3.536c0,1.128 0,2 0,2" style="fill:none;stroke:#fff;stroke-width:1px;"/><circle cx="10.5" cy="14.5" r="1" style="fill:#fff;"/></svg>