<?xml version="1.0" encoding="UTF-8" standalone="no"?><!DOCTYPE svg PUBLIC "-//W3C//DTD SVG 1.1//EN" "http://www.w3.org/Graphics/SVG/1.1/DTD/svg11.dtd"><svg width="100%" height="100%" viewBox="-1 -1 23 23" version="1.1" xmlns="http://www.w3.org/2000/svg" xmlns:xlink="http://www.w3.org/1999/xlink" xml:space="preserve" xmlns:serif="http://www.serif.com/" style="fill-rule:evenodd;clip-rule:evenodd;stroke-linecap:round;stroke-linejoin:round;"><path d="M17.571,17.571c1.875,-1.875 2.929,-4.419 2.929,-7.071c0,-5.519 -4.481,-10 -10,-10c-5.519,0 -10,4.481 -10,10c0,2.652 1.054,5.196 2.929,7.071" style="fill:none;stroke:#fff;stroke-width:1px;"/><path d="M15.45,15.45c1.313,-1.313 2.05,-3.093 2.05,-4.95c0,-3.863 -3.137,-7 -7,-7c-3.863,0 -7,3.137 -7,7c0,1.857 0.737,3.637 2.05,4.95" style="fill:none;stroke:#fff;stroke-width:1px;"/><path d="M13.328,13.328c0.751,-0.75 1.172,-1.767 1.172,-2.828c0,-2.208 -1.792,-4 -4,-4c-2.208,0 -4,1.792 -4,4c0,1.061 0.421,2.078 1.172,2.828" style="fill:none;stroke:#fff;stroke-width:1px;"/><path d="M16.5,19.5l-6,-6l-6,6l12,0" style="fill:none;stroke:#fff;stroke-width:1px;"/></svg>