<?xml version="1.0" encoding="UTF-8" standalone="no"?><!DOCTYPE svg PUBLIC "-//W3C//DTD SVG 1.1//EN" "http://www.w3.org/Graphics/SVG/1.1/DTD/svg11.dtd"><svg width="100%" height="100%" viewBox="0 0 16 16" version="1.1" xmlns="http://www.w3.org/2000/svg" xmlns:xlink="http://www.w3.org/1999/xlink" xml:space="preserve" xmlns:serif="http://www.serif.com/" style="fill-rule:evenodd;clip-rule:evenodd;stroke-linejoin:round;stroke-miterlimit:1.41421;"><path d="M11.569,14.866c-0.871,0 -1.69,-0.339 -2.306,-0.955c-0.616,-0.616 -0.956,-1.435 -0.956,-2.306c0,-0.871 0.34,-1.69 0.956,-2.306c0.616,-0.616 1.435,-0.955 2.306,-0.955c0.871,0 1.69,0.339 2.306,0.955c0.615,0.616 0.955,1.435 0.955,2.306c0,1.798 -1.463,3.261 -3.261,3.261Zm3.104,-6.365c-0.829,-0.83 -1.932,-1.286 -3.104,-1.286c-1.173,0 -2.275,0.456 -3.105,1.286c-0.829,0.829 -1.285,1.932 -1.285,3.104c0,1.173 0.456,2.275 1.285,3.104c0.83,0.83 1.932,1.287 3.105,1.287c1.172,0 2.275,-0.457 3.104,-1.287c0.829,-0.829 1.286,-1.931 1.286,-3.104c0,-1.172 -0.457,-2.275 -1.286,-3.104" style="fill:#231f20;fill-rule:nonzero;"/><path d="M2.71,14.871l-0.535,0l0,-4.557c0.094,0 0.531,0.002 0.531,0.002c0.608,0 1.185,0.236 1.615,0.666c0.43,0.431 0.667,1.003 0.667,1.611c0,1.256 -1.022,2.278 -2.278,2.278Zm-0.535,-13.522c1.04,0.005 2.019,0.411 2.754,1.146c0.74,0.741 1.146,1.725 1.146,2.771c0,1.046 -0.406,2.029 -1.146,2.769c-0.735,0.736 -1.714,1.142 -2.754,1.147l0,-7.833Zm2.36,8.369c1.647,-0.881 2.67,-2.584 2.67,-4.452c0,-1.348 -0.524,-2.616 -1.477,-3.568c-0.953,-0.954 -2.221,-1.479 -3.568,-1.479l-1.119,0l0.002,15.781l1.669,0c0.91,0 1.765,-0.354 2.408,-0.998c0.644,-0.643 0.999,-1.499 0.999,-2.409c0,-0.589 -0.153,-1.169 -0.443,-1.678c-0.274,-0.485 -0.671,-0.898 -1.141,-1.197" style="fill:#231f20;fill-rule:nonzero;"/><path d="M10.731,4.011l0.544,-0.544l1.215,1.205c-0.055,0.057 -0.291,0.295 -0.551,0.552c-0.312,0.308 -0.831,0.372 -1.208,-0.004c-0.164,-0.166 -0.252,-0.371 -0.252,-0.595c0,-0.226 0.095,-0.456 0.252,-0.614Zm-1.162,0.636c0,0.457 0.181,0.879 0.521,1.219c0.478,0.478 1.002,0.543 1.357,0.514c0.425,-0.035 0.851,-0.228 1.142,-0.518c0.259,-0.26 0.406,-0.407 0.547,-0.544l0.878,0.855l0.617,-0.619l0.008,-0.015l-0.865,-0.865l0.615,-0.616l-0.643,-0.643l-0.615,0.617c0,0 -1.798,-1.803 -2.021,-2.028c-0.12,-0.122 -0.193,-0.25 -0.193,-0.453c0,-0.216 0.097,-0.359 0.179,-0.442c0.121,-0.12 0.298,-0.195 0.46,-0.195c0.247,0 0.399,0.13 0.452,0.186l0.013,0.014l0.014,-0.013l0.365,-0.364l0.253,-0.252l0.01,-0.013l-0.017,-0.019c-0.166,-0.169 -0.529,-0.453 -1.092,-0.453c-0.429,0 -0.827,0.171 -1.118,0.482c-0.273,0.29 -0.43,0.678 -0.43,1.066c0,0.644 0.367,1.04 0.627,1.281l-0.547,0.535c-0.318,0.319 -0.517,0.81 -0.517,1.283" style="fill:#231f20;fill-rule:nonzero;"/></svg>