<?xml version="1.0" encoding="UTF-8" standalone="no"?><!DOCTYPE svg PUBLIC "-//W3C//DTD SVG 1.1//EN" "http://www.w3.org/Graphics/SVG/1.1/DTD/svg11.dtd"><svg width="100%" height="100%" viewBox="0 0 23 23" version="1.1" xmlns="http://www.w3.org/2000/svg" xmlns:xlink="http://www.w3.org/1999/xlink" xml:space="preserve" xmlns:serif="http://www.serif.com/" style="fill-rule:evenodd;clip-rule:evenodd;stroke-linecap:round;stroke-linejoin:round;"><path d="M18.499,7.5c-0.836,-0.628 -1.874,-1 -2.999,-1l-9,0c-2.76,0 -5,2.24 -5,5c0,2.76 2.24,5 5,5l9,0c2.76,0 5,-2.24 5,-5" style="fill:none;stroke:#000;stroke-width:1px;"/><path d="M20.5,7.5l0,4" style="fill:none;stroke:#000;stroke-width:1px;"/><path d="M20.5,5.5l0,-1" style="fill:none;stroke:#000;stroke-width:1px;"/><path d="M18.5,11.5c0,-1.656 -1.344,-3 -3,-3l-9,0c-1.656,0 -3,1.344 -3,3c0,1.656 1.344,3 3,3l9,0c1.656,0 3,-1.344 3,-3Z" style="fill:none;stroke:#000;stroke-width:1px;"/></svg>