<?xml version="1.0" encoding="UTF-8" standalone="no"?>
<!DOCTYPE svg PUBLIC "-//W3C//DTD SVG 1.1//EN" "http://www.w3.org/Graphics/SVG/1.1/DTD/svg11.dtd">
<svg width="100%" height="100%" viewBox="0 0 23 23" version="1.1" xmlns="http://www.w3.org/2000/svg" xmlns:xlink="http://www.w3.org/1999/xlink" xml:space="preserve" xmlns:serif="http://www.serif.com/" style="fill-rule:evenodd;clip-rule:evenodd;stroke-linecap:round;stroke-linejoin:round;">
    <path d="M20.5,4.487C20.5,4.226 20.396,3.974 20.211,3.789C20.026,3.604 19.774,3.5 19.513,3.5C16.371,3.5 6.629,3.5 3.487,3.5C3.226,3.5 2.974,3.604 2.789,3.789C2.604,3.974 2.5,4.226 2.5,4.487C2.5,7.353 2.5,15.647 2.5,18.513C2.5,18.774 2.604,19.026 2.789,19.211C2.974,19.396 3.226,19.5 3.487,19.5C6.629,19.5 16.371,19.5 19.513,19.5C19.774,19.5 20.026,19.396 20.211,19.211C20.396,19.026 20.5,18.774 20.5,18.513C20.5,15.647 20.5,7.353 20.5,4.487Z" style="fill:none;stroke:black;stroke-width:1px;"/>
    <rect x="16.5" y="5.5" width="2" height="12" style="fill:none;stroke:black;stroke-width:1px;"/>
    <rect x="12.5" y="5.5" width="2" height="12" style="fill:none;stroke:black;stroke-width:1px;"/>
    <rect x="8.5" y="5.5" width="2" height="12" style="fill:none;stroke:black;stroke-width:1px;"/>
    <rect x="4.5" y="5.5" width="2" height="12" style="fill:none;stroke:black;stroke-width:1px;"/>
</svg>
