<?xml version="1.0" encoding="UTF-8" standalone="no"?>
<!DOCTYPE svg PUBLIC "-//W3C//DTD SVG 1.1//EN" "http://www.w3.org/Graphics/SVG/1.1/DTD/svg11.dtd">
<svg width="100%" height="100%" viewBox="0 0 23 23" version="1.1" xmlns="http://www.w3.org/2000/svg" xmlns:xlink="http://www.w3.org/1999/xlink" xml:space="preserve" xmlns:serif="http://www.serif.com/" style="fill-rule:evenodd;clip-rule:evenodd;stroke-linecap:round;stroke-linejoin:round;">
    <circle cx="17.5" cy="11.5" r="0.5" style="fill:none;stroke:black;stroke-width:1px;"/>
    <path d="M20.5,9.503C20.5,9.237 20.394,8.982 20.206,8.794C20.018,8.606 19.763,8.5 19.497,8.5C16.344,8.5 6.656,8.5 3.503,8.5C3.237,8.5 2.982,8.606 2.794,8.794C2.606,8.982 2.5,9.237 2.5,9.503C2.5,10.612 2.5,12.388 2.5,13.497C2.5,13.763 2.606,14.018 2.794,14.206C2.982,14.394 3.237,14.5 3.503,14.5C6.656,14.5 16.344,14.5 19.497,14.5C19.763,14.5 20.018,14.394 20.206,14.206C20.394,14.018 20.5,13.763 20.5,13.497C20.5,12.388 20.5,10.612 20.5,9.503Z" style="fill:none;stroke:black;stroke-width:1px;"/>
</svg>
