<?xml version="1.0" encoding="UTF-8" standalone="no"?><!DOCTYPE svg PUBLIC "-//W3C//DTD SVG 1.1//EN" "http://www.w3.org/Graphics/SVG/1.1/DTD/svg11.dtd"><svg width="100%" height="100%" viewBox="-1 -1 23 23" version="1.1" xmlns="http://www.w3.org/2000/svg" xmlns:xlink="http://www.w3.org/1999/xlink" xml:space="preserve" xmlns:serif="http://www.serif.com/" style="fill-rule:evenodd;clip-rule:evenodd;stroke-linecap:round;stroke-linejoin:round;"><path d="M17.5,4.486c0,-0.545 -0.441,-0.986 -0.986,-0.986c-2.571,0 -9.457,0 -12.028,0c-0.545,0 -0.986,0.441 -0.986,0.986c0,2.571 0,9.457 0,12.028c0,0.545 0.441,0.986 0.986,0.986c2.571,0 9.457,0 12.028,0c0.545,0 0.986,-0.441 0.986,-0.986c0,-2.571 0,-9.457 0,-12.028Z" style="fill:none;stroke:#000;stroke-width:1px;"/><path d="M6.5,0.5l0,3" style="fill:none;stroke:#000;stroke-width:1px;"/><path d="M14.5,0.5l0,3" style="fill:none;stroke:#000;stroke-width:1px;"/><path d="M10.5,0.5l0,3" style="fill:none;stroke:#000;stroke-width:1px;"/><path d="M3.5,6.5l-3,0" style="fill:none;stroke:#000;stroke-width:1px;"/><path d="M3.5,10.5l-3,0" style="fill:none;stroke:#000;stroke-width:1px;"/><path d="M3.5,14.5l-3,0" style="fill:none;stroke:#000;stroke-width:1px;"/><path d="M6.5,17.5l0,3" style="fill:none;stroke:#000;stroke-width:1px;"/><path d="M10.5,17.5l0,3" style="fill:none;stroke:#000;stroke-width:1px;"/><path d="M14.5,17.5l0,3" style="fill:none;stroke:#000;stroke-width:1px;"/><path d="M17.5,14.5l3,0" style="fill:none;stroke:#000;stroke-width:1px;"/><path d="M17.5,10.5l3,0" style="fill:none;stroke:#000;stroke-width:1px;"/><path d="M17.5,6.5l3,0" style="fill:none;stroke:#000;stroke-width:1px;"/><path d="M6.5,10.5c0,0 1.012,-1 2,-1c1.985,0 2.011,2 4,2c1.016,0 2,-1 2,-1" style="fill:none;stroke:#000;stroke-width:1px;"/></svg>