<?xml version="1.0" encoding="utf-8"?>
<!-- Generator: Adobe Illustrator 15.1.0, SVG Export Plug-In . SVG Version: 6.00 Build 0)  -->
<!DOCTYPE svg PUBLIC "-//W3C//DTD SVG 1.1//EN" "http://www.w3.org/Graphics/SVG/1.1/DTD/svg11.dtd">
<svg version="1.1" id="Layer_2" xmlns="http://www.w3.org/2000/svg" xmlns:xlink="http://www.w3.org/1999/xlink" x="0px" y="0px"
	 width="22px" height="22px" viewBox="0 0 22 22" enable-background="new 0 0 22 22" xml:space="preserve">
<circle fill="none" stroke="#000000" stroke-miterlimit="10" cx="11" cy="11" r="10"/>
<g>
	<path d="M7.458,14.083l1.378-1.313c0.624,0.703,1.274,1.092,2.197,1.092c0.754,0,1.288-0.428,1.288-1.104V12.73
		c0-0.74-0.664-1.156-1.782-1.156H9.707L9.395,10.3l2.171-2.184H7.99V6.4h6.148v1.508l-2.301,2.197
		c1.236,0.208,2.445,0.858,2.445,2.547v0.026c0,1.716-1.248,2.978-3.277,2.978C9.369,15.656,8.237,15.006,7.458,14.083z"/>
</g>
</svg>
