<?xml version="1.0" encoding="UTF-8" standalone="no"?><!DOCTYPE svg PUBLIC "-//W3C//DTD SVG 1.1//EN" "http://www.w3.org/Graphics/SVG/1.1/DTD/svg11.dtd"><svg width="100%" height="100%" viewBox="-1 -1 23 23" version="1.1" xmlns="http://www.w3.org/2000/svg" xmlns:xlink="http://www.w3.org/1999/xlink" xml:space="preserve" xmlns:serif="http://www.serif.com/" style="fill-rule:evenodd;clip-rule:evenodd;stroke-linecap:round;stroke-linejoin:round;"><path d="M10.5,6.5l0,6" style="fill:none;stroke:#ffaa46;stroke-width:1px;"/><circle cx="10.5" cy="15.5" r="1" style="fill:#ffaa46;"/><path d="M9.229,2.201c0.262,-0.454 0.747,-0.734 1.271,-0.734c0.524,0 1.009,0.28 1.271,0.734c2.055,3.559 6.084,10.539 8.139,14.098c0.262,0.454 0.262,1.013 0,1.467c-0.262,0.454 -0.746,0.734 -1.271,0.734c-4.11,0 -12.168,0 -16.278,0c-0.525,0 -1.009,-0.28 -1.271,-0.734c-0.262,-0.454 -0.262,-1.013 0,-1.467c2.055,-3.559 6.084,-10.539 8.139,-14.098Z" style="fill:none;stroke:#ffaa46;stroke-width:1px;"/></svg>