<?xml version="1.0" encoding="UTF-8" standalone="no"?><!DOCTYPE svg PUBLIC "-//W3C//DTD SVG 1.1//EN" "http://www.w3.org/Graphics/SVG/1.1/DTD/svg11.dtd"><svg width="100%" height="100%" viewBox="0 0 21 21" version="1.1" xmlns="http://www.w3.org/2000/svg" xmlns:xlink="http://www.w3.org/1999/xlink" xml:space="preserve" xmlns:serif="http://www.serif.com/" style="fill-rule:evenodd;clip-rule:evenodd;stroke-linecap:round;stroke-linejoin:round;"><path d="M19.5,2.993c0,-0.396 -0.157,-0.776 -0.437,-1.056c-0.28,-0.28 -0.66,-0.437 -1.056,-0.437c-3.388,0 -11.626,0 -15.014,0c-0.396,0 -0.776,0.157 -1.056,0.437c-0.28,0.28 -0.437,0.66 -0.437,1.056c0,3.388 0,11.626 0,15.014c0,0.396 0.157,0.776 0.437,1.056c0.28,0.28 0.66,0.437 1.056,0.437c3.388,0 11.626,0 15.014,0c0.396,0 0.776,-0.157 1.056,-0.437c0.28,-0.28 0.437,-0.66 0.437,-1.056c0,-3.388 0,-11.626 0,-15.014Z" style="fill:none;stroke:#fff;stroke-width:1px;"/><path d="M17.5,10.5c0,0 -1.129,0 -2.314,0c-1.678,0 -3.245,-0.839 -4.176,-2.235c-0.331,-0.497 -0.683,-1.024 -1.014,-1.522c-0.935,-1.401 -2.508,-2.243 -4.192,-2.243c-1.182,0 -2.304,0 -2.304,0" style="fill:none;stroke:#fff;stroke-width:1px;"/><path d="M17.5,10.5c0,0 -1.129,0 -2.314,0c-1.678,0 -3.245,0.839 -4.176,2.235c-0.331,0.497 -0.683,1.024 -1.014,1.522c-0.935,1.401 -2.508,2.243 -4.192,2.243c-1.182,0 -2.304,0 -2.304,0" style="fill:none;stroke:#fff;stroke-width:1px;"/><circle cx="3.5" cy="10.5" r="0.5"/><circle cx="5.5" cy="10.5" r="0.5"/><circle cx="7.5" cy="10.5" r="0.5"/><circle cx="9.5" cy="10.5" r="0.5"/></svg>