<?xml version="1.0" encoding="UTF-8" standalone="no"?><!DOCTYPE svg PUBLIC "-//W3C//DTD SVG 1.1//EN" "http://www.w3.org/Graphics/SVG/1.1/DTD/svg11.dtd"><svg width="100%" height="100%" viewBox="-1 -1 23 23" version="1.1" xmlns="http://www.w3.org/2000/svg" xmlns:xlink="http://www.w3.org/1999/xlink" xml:space="preserve" xmlns:serif="http://www.serif.com/" style="fill-rule:evenodd;clip-rule:evenodd;stroke-linecap:round;stroke-linejoin:round;"><circle cx="10.5" cy="10.5" r="10" style="fill:none;stroke:#000;stroke-width:1px;"/><path d="M9.5,13.5c0,0 -0.194,0.194 -0.411,0.411c-0.377,0.377 -0.889,0.589 -1.422,0.589c-0.328,0 -0.726,0 -1.145,0c-0.801,0 -1.57,-0.318 -2.137,-0.885c-0.567,-0.567 -0.885,-1.336 -0.885,-2.137c0,-0.634 0,-1.302 0,-1.936c0,-1.68 1.362,-3.042 3.042,-3.042c0.034,0 0.068,0 0.102,0c1.137,0 2.177,0.643 2.686,1.66c0.686,1.373 1.656,3.311 2.341,4.683c0.508,1.015 1.546,1.657 2.682,1.657c0.374,0 0.769,0 1.148,0c0.53,0 1.038,-0.211 1.413,-0.586c0.375,-0.375 0.586,-0.883 0.586,-1.413c0,-0.001 0,-0.002 0,-0.003c0,-1.104 -0.894,-1.998 -1.998,-1.998c-0.332,0 -0.677,0 -1.01,0c-1.1,0 -1.992,-0.892 -1.992,-1.992c0,-0.006 0,-0.011 0,-0.016c0,-0.528 0.21,-1.035 0.583,-1.409c0.374,-0.373 0.881,-0.583 1.409,-0.583c0.341,0 0.695,0 1.035,0c0.523,0 1.025,0.208 1.395,0.578c0.37,0.37 0.578,0.872 0.578,1.395c0,0.018 0,0.027 0,0.027" style="fill:none;stroke:#000;stroke-width:1px;"/></svg>