<?xml version="1.0" encoding="UTF-8" standalone="no"?><!DOCTYPE svg PUBLIC "-//W3C//DTD SVG 1.1//EN" "http://www.w3.org/Graphics/SVG/1.1/DTD/svg11.dtd"><svg width="100%" height="100%" viewBox="0 0 21 21" version="1.1" xmlns="http://www.w3.org/2000/svg" xmlns:xlink="http://www.w3.org/1999/xlink" xml:space="preserve" xmlns:serif="http://www.serif.com/" style="fill-rule:evenodd;clip-rule:evenodd;stroke-linecap:round;stroke-linejoin:round;"><path d="M19.5,2.993c0,-0.396 -0.157,-0.776 -0.437,-1.056c-0.28,-0.28 -0.66,-0.437 -1.056,-0.437c-3.388,0 -11.626,0 -15.014,0c-0.396,0 -0.776,0.157 -1.056,0.437c-0.28,0.28 -0.437,0.66 -0.437,1.056c0,3.388 0,11.626 0,15.014c0,0.396 0.157,0.776 0.437,1.056c0.28,0.28 0.66,0.437 1.056,0.437c3.388,0 11.626,0 15.014,0c0.396,0 0.776,-0.157 1.056,-0.437c0.28,-0.28 0.437,-0.66 0.437,-1.056c0,-3.388 0,-11.626 0,-15.014Z" style="fill:none;stroke:#000;stroke-width:1px;"/><path d="M3.5,5.5c0,0 1.404,0 2.548,0c0.93,0 1.821,0.369 2.478,1.026c2.551,2.551 8.974,8.974 8.974,8.974" style="fill:none;stroke:#000;stroke-width:1px;"/><path d="M17.5,5.5c0,0 -1.404,0 -2.548,0c-0.93,0 -1.821,0.369 -2.478,1.026c-0.264,0.264 -0.474,0.474 -0.474,0.474" style="fill:none;stroke:#000;stroke-width:1px;"/><path d="M9,10l-5.5,5.5" style="fill:none;stroke:#000;stroke-width:1px;"/></svg>