<?xml version="1.0" encoding="utf-8"?>
<!-- Generator: Adobe Illustrator 15.1.0, SVG Export Plug-In . SVG Version: 6.00 Build 0)  -->
<!DOCTYPE svg PUBLIC "-//W3C//DTD SVG 1.1//EN" "http://www.w3.org/Graphics/SVG/1.1/DTD/svg11.dtd">
<svg version="1.1" id="Layer_1" xmlns="http://www.w3.org/2000/svg" xmlns:xlink="http://www.w3.org/1999/xlink" x="0px" y="0px"
	 width="22px" height="22px" viewBox="0 0 22 22" enable-background="new 0 0 22 22" xml:space="preserve">
<g>
	<circle cx="2" cy="2" r="0.5"/>
</g>
<g>
	<circle cx="5" cy="2" r="0.75"/>
</g>
<g>
	<circle cx="2" cy="5" r="0.5"/>
</g>
<g>
	<circle cx="5" cy="5" r="0.75"/>
</g>
<g>
	<circle cx="2" cy="8" r="0.5"/>
</g>
<g>
	<circle cx="5" cy="8" r="0.75"/>
</g>
<g>
	<circle cx="2" cy="11" r="0.5"/>
</g>
<g>
	<circle cx="5" cy="11" r="0.75"/>
</g>
<g>
	<circle cx="2" cy="14" r="0.5"/>
</g>
<g>
	<circle cx="5" cy="14" r="0.75"/>
</g>
<g>
	<circle cx="2" cy="17" r="0.5"/>
</g>
<g>
	<circle cx="5" cy="17" r="0.75"/>
</g>
<g>
	<circle cx="2" cy="20" r="0.5"/>
</g>
<g>
	<circle cx="5" cy="20" r="0.75"/>
</g>
<g>
	<circle cx="8" cy="2" r="0.75"/>
</g>
<g>
	<circle cx="8" cy="5" r="0.75"/>
</g>
<g>
	<circle cx="8" cy="8" r="0.75"/>
</g>
<g>
	<circle cx="8" cy="11" r="0.75"/>
</g>
<g>
	<circle cx="8" cy="14" r="0.75"/>
</g>
<g>
	<circle cx="8" cy="17" r="0.75"/>
</g>
<g>
	<circle cx="8" cy="20" r="0.75"/>
</g>
<g>
	<circle cx="11" cy="11" r="1"/>
</g>
<g>
	<circle cx="11" cy="8" r="1"/>
</g>
<g>
	<circle cx="11" cy="5" r="1"/>
</g>
<g>
	<circle cx="11" cy="2" r="1"/>
</g>
<g>
	<circle cx="11" cy="20" r="1"/>
</g>
<g>
	<circle cx="11" cy="17" r="1"/>
</g>
<g>
	<circle cx="11" cy="14" r="1"/>
</g>
<g>
	<circle cx="14" cy="11" r="1"/>
</g>
<g>
	<circle cx="14" cy="8" r="1"/>
</g>
<g>
	<circle cx="14" cy="5" r="1"/>
</g>
<g>
	<circle cx="14" cy="2" r="1"/>
</g>
<g>
	<circle cx="14" cy="20" r="1"/>
</g>
<g>
	<circle cx="14" cy="17" r="1"/>
</g>
<g>
	<circle cx="14" cy="14" r="1"/>
</g>
<g>
	<circle cx="17" cy="11" r="1"/>
</g>
<g>
	<circle cx="17" cy="2" r="1"/>
</g>
<g>
	<circle cx="17" cy="20" r="1"/>
</g>
<g>
	<circle cx="17" cy="17" r="1"/>
</g>
<g>
	<circle cx="17" cy="14" r="1"/>
</g>
<g>
	<circle cx="20" cy="17" r="1"/>
</g>
<g>
	<circle cx="20" cy="14" r="1"/>
</g>
</svg>
